G04 (created by PCBNEW-RS274X (2012-jan-04)-stable) date Fri 25 Jan 2013 16:17:33 CET*
G01*
G70*
G90*
%MOIN*%
G04 Gerber Fmt 3.4, Leading zero omitted, Abs format*
%FSLAX34Y34*%
G04 APERTURE LIST*
%ADD10C,0.006000*%
%ADD11C,0.015000*%
%ADD12C,0.005000*%
%ADD13C,0.000100*%
G04 APERTURE END LIST*
G54D10*
G54D11*
X53350Y-37475D02*
X53375Y-37475D01*
X53350Y-46050D02*
X53350Y-37475D01*
X68350Y-46050D02*
X53350Y-46050D01*
X68350Y-37450D02*
X68350Y-46050D01*
X53350Y-37450D02*
X68350Y-37450D01*
G54D12*
X62785Y-40550D02*
X62784Y-40559D01*
X62781Y-40569D01*
X62776Y-40577D01*
X62770Y-40585D01*
X62762Y-40591D01*
X62754Y-40596D01*
X62745Y-40598D01*
X62735Y-40599D01*
X62726Y-40599D01*
X62717Y-40596D01*
X62708Y-40591D01*
X62701Y-40585D01*
X62694Y-40578D01*
X62690Y-40569D01*
X62687Y-40560D01*
X62686Y-40550D01*
X62686Y-40541D01*
X62689Y-40532D01*
X62693Y-40523D01*
X62700Y-40516D01*
X62707Y-40509D01*
X62715Y-40505D01*
X62725Y-40502D01*
X62734Y-40501D01*
X62743Y-40501D01*
X62753Y-40504D01*
X62761Y-40508D01*
X62769Y-40514D01*
X62775Y-40522D01*
X62780Y-40530D01*
X62783Y-40539D01*
X62784Y-40549D01*
X62785Y-40550D01*
X62285Y-40550D02*
X62685Y-40550D01*
X62685Y-40550D02*
X62685Y-39950D01*
X62685Y-39950D02*
X62285Y-39950D01*
X61885Y-39950D02*
X61485Y-39950D01*
X61485Y-39950D02*
X61485Y-40550D01*
X61485Y-40550D02*
X61885Y-40550D01*
X63585Y-40085D02*
X63584Y-40094D01*
X63581Y-40104D01*
X63576Y-40112D01*
X63570Y-40120D01*
X63562Y-40126D01*
X63554Y-40131D01*
X63545Y-40133D01*
X63535Y-40134D01*
X63526Y-40134D01*
X63517Y-40131D01*
X63508Y-40126D01*
X63501Y-40120D01*
X63494Y-40113D01*
X63490Y-40104D01*
X63487Y-40095D01*
X63486Y-40085D01*
X63486Y-40076D01*
X63489Y-40067D01*
X63493Y-40058D01*
X63500Y-40051D01*
X63507Y-40044D01*
X63515Y-40040D01*
X63525Y-40037D01*
X63534Y-40036D01*
X63543Y-40036D01*
X63553Y-40039D01*
X63561Y-40043D01*
X63569Y-40049D01*
X63575Y-40057D01*
X63580Y-40065D01*
X63583Y-40074D01*
X63584Y-40084D01*
X63585Y-40085D01*
X63985Y-40085D02*
X63585Y-40085D01*
X63585Y-40085D02*
X63585Y-40685D01*
X63585Y-40685D02*
X63985Y-40685D01*
X64385Y-40685D02*
X64785Y-40685D01*
X64785Y-40685D02*
X64785Y-40085D01*
X64785Y-40085D02*
X64385Y-40085D01*
G54D13*
G36*
X65745Y-45564D02*
X65558Y-45564D01*
X65558Y-45390D01*
X65558Y-44580D01*
X65558Y-43771D01*
X64547Y-43771D01*
X63536Y-43771D01*
X63536Y-44430D01*
X63536Y-44566D01*
X63535Y-44699D01*
X63534Y-44825D01*
X63533Y-44942D01*
X63532Y-45045D01*
X63530Y-45132D01*
X63529Y-45198D01*
X63527Y-45239D01*
X63519Y-45390D01*
X64538Y-45390D01*
X65558Y-45390D01*
X65558Y-45564D01*
X63456Y-45564D01*
X63456Y-45390D01*
X63456Y-45136D01*
X63456Y-44881D01*
X63456Y-44841D01*
X63456Y-44306D01*
X63456Y-43770D01*
X62910Y-43774D01*
X62365Y-43777D01*
X62361Y-44028D01*
X62358Y-44279D01*
X62839Y-44279D01*
X63322Y-44279D01*
X63322Y-44560D01*
X63322Y-44841D01*
X63389Y-44841D01*
X63456Y-44841D01*
X63456Y-44881D01*
X63389Y-44881D01*
X63322Y-44881D01*
X63322Y-45062D01*
X63322Y-45242D01*
X62840Y-45242D01*
X62359Y-45242D01*
X62359Y-45316D01*
X62359Y-45390D01*
X62907Y-45390D01*
X63456Y-45390D01*
X63456Y-45564D01*
X62800Y-45564D01*
X62305Y-45564D01*
X62305Y-45390D01*
X62305Y-45136D01*
X62305Y-44881D01*
X61826Y-44878D01*
X61347Y-44874D01*
X61347Y-44767D01*
X61347Y-44660D01*
X61826Y-44656D01*
X62305Y-44653D01*
X62305Y-44219D01*
X62305Y-43784D01*
X61756Y-43784D01*
X61206Y-43784D01*
X61210Y-44035D01*
X61214Y-44286D01*
X61693Y-44290D01*
X62171Y-44293D01*
X62171Y-44400D01*
X62171Y-44507D01*
X61693Y-44510D01*
X61214Y-44514D01*
X61210Y-44951D01*
X61206Y-45390D01*
X61756Y-45390D01*
X62305Y-45390D01*
X62305Y-45564D01*
X61153Y-45564D01*
X61153Y-45377D01*
X61153Y-44854D01*
X61153Y-44333D01*
X61153Y-44293D01*
X61153Y-44032D01*
X61153Y-43771D01*
X61086Y-43771D01*
X61047Y-43771D01*
X61027Y-43777D01*
X61020Y-43791D01*
X61020Y-43811D01*
X61020Y-43851D01*
X60538Y-43851D01*
X60055Y-43851D01*
X60055Y-44340D01*
X60055Y-44827D01*
X60122Y-44827D01*
X60189Y-44827D01*
X60192Y-44410D01*
X60196Y-43992D01*
X60608Y-43988D01*
X61019Y-43984D01*
X61020Y-44139D01*
X61020Y-44293D01*
X61086Y-44293D01*
X61153Y-44293D01*
X61153Y-44333D01*
X61086Y-44333D01*
X61020Y-44333D01*
X61020Y-44600D01*
X61020Y-44868D01*
X60538Y-44868D01*
X60055Y-44868D01*
X60055Y-45122D01*
X60055Y-45377D01*
X60604Y-45377D01*
X61153Y-45377D01*
X61153Y-45564D01*
X59855Y-45564D01*
X59855Y-44566D01*
X59855Y-43570D01*
X62800Y-43570D01*
X65745Y-43570D01*
X65745Y-44566D01*
X65745Y-45564D01*
X65745Y-45564D01*
X65745Y-45564D01*
G37*
G36*
X62171Y-45242D02*
X61764Y-45242D01*
X61356Y-45242D01*
X61352Y-45142D01*
X61350Y-45091D01*
X61350Y-45051D01*
X61351Y-45029D01*
X61352Y-45028D01*
X61366Y-45024D01*
X61406Y-45021D01*
X61469Y-45018D01*
X61554Y-45016D01*
X61659Y-45015D01*
X61764Y-45015D01*
X62171Y-45015D01*
X62171Y-45129D01*
X62171Y-45242D01*
X62171Y-45242D01*
X62171Y-45242D01*
G37*
G36*
X62171Y-44146D02*
X61341Y-44146D01*
X61341Y-43918D01*
X62171Y-43918D01*
X62171Y-44146D01*
X62171Y-44146D01*
X62171Y-44146D01*
G37*
G36*
X65318Y-44038D02*
X65314Y-44256D01*
X65310Y-44474D01*
X65226Y-44474D01*
X65166Y-44479D01*
X65130Y-44490D01*
X65118Y-44508D01*
X65123Y-44521D01*
X65142Y-44530D01*
X65184Y-44530D01*
X65202Y-44528D01*
X65253Y-44524D01*
X65291Y-44528D01*
X65310Y-44537D01*
X65310Y-44547D01*
X65295Y-44554D01*
X65260Y-44560D01*
X65213Y-44566D01*
X65210Y-44566D01*
X65115Y-44576D01*
X65115Y-44576D01*
X65128Y-44580D01*
X65191Y-44592D01*
X65200Y-44593D01*
X65249Y-44601D01*
X65285Y-44610D01*
X65303Y-44618D01*
X65304Y-44620D01*
X65291Y-44627D01*
X65259Y-44631D01*
X65218Y-44633D01*
X65172Y-44635D01*
X65137Y-44638D01*
X65122Y-44643D01*
X65115Y-44643D01*
X65115Y-44576D01*
X65096Y-44563D01*
X65096Y-44386D01*
X65096Y-44369D01*
X65086Y-44349D01*
X65083Y-44346D01*
X65083Y-44119D01*
X65077Y-44093D01*
X65055Y-44082D01*
X65044Y-44081D01*
X65011Y-44082D01*
X64991Y-44091D01*
X64966Y-44103D01*
X64935Y-44104D01*
X64911Y-44095D01*
X64909Y-44092D01*
X64889Y-44079D01*
X64885Y-44078D01*
X64880Y-44083D01*
X64892Y-44095D01*
X64912Y-44108D01*
X64934Y-44117D01*
X64944Y-44118D01*
X64970Y-44128D01*
X64983Y-44139D01*
X65011Y-44154D01*
X65041Y-44156D01*
X65071Y-44149D01*
X65082Y-44132D01*
X65083Y-44119D01*
X65083Y-44346D01*
X65073Y-44337D01*
X65066Y-44339D01*
X65049Y-44338D01*
X65016Y-44322D01*
X64970Y-44295D01*
X64915Y-44258D01*
X64915Y-44258D01*
X64878Y-44229D01*
X64859Y-44207D01*
X64853Y-44182D01*
X64853Y-44169D01*
X64851Y-44137D01*
X64837Y-44124D01*
X64825Y-44121D01*
X64803Y-44123D01*
X64795Y-44140D01*
X64795Y-44155D01*
X64798Y-44176D01*
X64810Y-44196D01*
X64836Y-44221D01*
X64879Y-44253D01*
X64897Y-44266D01*
X64943Y-44301D01*
X64981Y-44335D01*
X65005Y-44361D01*
X65010Y-44369D01*
X65030Y-44391D01*
X65059Y-44401D01*
X65087Y-44395D01*
X65096Y-44386D01*
X65096Y-44563D01*
X65023Y-44515D01*
X64957Y-44476D01*
X64907Y-44456D01*
X64889Y-44454D01*
X64861Y-44452D01*
X64852Y-44441D01*
X64855Y-44413D01*
X64856Y-44407D01*
X64852Y-44358D01*
X64827Y-44310D01*
X64786Y-44269D01*
X64763Y-44255D01*
X64763Y-44083D01*
X64761Y-44078D01*
X64738Y-44089D01*
X64713Y-44115D01*
X64693Y-44146D01*
X64688Y-44168D01*
X64694Y-44192D01*
X64717Y-44199D01*
X64721Y-44199D01*
X64747Y-44193D01*
X64754Y-44172D01*
X64755Y-44166D01*
X64749Y-44137D01*
X64739Y-44124D01*
X64734Y-44111D01*
X64748Y-44096D01*
X64763Y-44083D01*
X64763Y-44255D01*
X64734Y-44239D01*
X64676Y-44226D01*
X64667Y-44226D01*
X64635Y-44224D01*
X64626Y-44218D01*
X64631Y-44210D01*
X64643Y-44185D01*
X64647Y-44156D01*
X64642Y-44128D01*
X64625Y-44119D01*
X64621Y-44119D01*
X64598Y-44130D01*
X64585Y-44155D01*
X64587Y-44182D01*
X64592Y-44190D01*
X64606Y-44209D01*
X64607Y-44215D01*
X64594Y-44218D01*
X64559Y-44221D01*
X64554Y-44221D01*
X64554Y-44160D01*
X64542Y-44121D01*
X64514Y-44092D01*
X64477Y-44079D01*
X64474Y-44080D01*
X64465Y-44083D01*
X64480Y-44091D01*
X64498Y-44104D01*
X64503Y-44130D01*
X64502Y-44150D01*
X64502Y-44183D01*
X64510Y-44197D01*
X64526Y-44199D01*
X64546Y-44193D01*
X64553Y-44170D01*
X64554Y-44160D01*
X64554Y-44221D01*
X64503Y-44223D01*
X64470Y-44223D01*
X64470Y-44159D01*
X64458Y-44132D01*
X64435Y-44119D01*
X64432Y-44119D01*
X64413Y-44125D01*
X64409Y-44141D01*
X64409Y-44083D01*
X64392Y-44080D01*
X64384Y-44080D01*
X64341Y-44090D01*
X64311Y-44121D01*
X64299Y-44166D01*
X64299Y-44168D01*
X64306Y-44192D01*
X64329Y-44199D01*
X64333Y-44199D01*
X64358Y-44193D01*
X64366Y-44172D01*
X64366Y-44168D01*
X64360Y-44137D01*
X64351Y-44122D01*
X64343Y-44110D01*
X64351Y-44101D01*
X64380Y-44092D01*
X64400Y-44088D01*
X64409Y-44083D01*
X64409Y-44141D01*
X64406Y-44150D01*
X64406Y-44159D01*
X64411Y-44188D01*
X64427Y-44199D01*
X64433Y-44199D01*
X64458Y-44193D01*
X64467Y-44186D01*
X64470Y-44159D01*
X64470Y-44223D01*
X64433Y-44225D01*
X64349Y-44225D01*
X64293Y-44226D01*
X64259Y-44226D01*
X64259Y-44158D01*
X64256Y-44129D01*
X64243Y-44120D01*
X64229Y-44121D01*
X64204Y-44134D01*
X64195Y-44162D01*
X64195Y-44189D01*
X64210Y-44198D01*
X64225Y-44199D01*
X64249Y-44195D01*
X64258Y-44178D01*
X64259Y-44158D01*
X64259Y-44226D01*
X64152Y-44226D01*
X64152Y-44158D01*
X64149Y-44129D01*
X64136Y-44120D01*
X64122Y-44121D01*
X64097Y-44134D01*
X64087Y-44162D01*
X64088Y-44189D01*
X64103Y-44198D01*
X64118Y-44199D01*
X64142Y-44195D01*
X64151Y-44178D01*
X64152Y-44158D01*
X64152Y-44226D01*
X63978Y-44226D01*
X63978Y-44193D01*
X63983Y-44165D01*
X63991Y-44152D01*
X64006Y-44133D01*
X63999Y-44116D01*
X63973Y-44106D01*
X63965Y-44105D01*
X63936Y-44108D01*
X63926Y-44120D01*
X63934Y-44147D01*
X63944Y-44167D01*
X63961Y-44206D01*
X63961Y-44233D01*
X63942Y-44260D01*
X63934Y-44267D01*
X63904Y-44296D01*
X63934Y-44281D01*
X63960Y-44264D01*
X63971Y-44252D01*
X63987Y-44247D01*
X64026Y-44243D01*
X64083Y-44240D01*
X64153Y-44239D01*
X64326Y-44239D01*
X64326Y-44285D01*
X64322Y-44319D01*
X64314Y-44339D01*
X64313Y-44340D01*
X64301Y-44360D01*
X64301Y-44390D01*
X64313Y-44414D01*
X64320Y-44419D01*
X64346Y-44422D01*
X64354Y-44419D01*
X64364Y-44400D01*
X64365Y-44370D01*
X64358Y-44345D01*
X64353Y-44340D01*
X64344Y-44322D01*
X64339Y-44289D01*
X64339Y-44285D01*
X64339Y-44239D01*
X64533Y-44239D01*
X64727Y-44239D01*
X64775Y-44281D01*
X64805Y-44312D01*
X64812Y-44332D01*
X64809Y-44338D01*
X64796Y-44368D01*
X64802Y-44406D01*
X64821Y-44437D01*
X64838Y-44464D01*
X64840Y-44486D01*
X64845Y-44507D01*
X64868Y-44523D01*
X64901Y-44532D01*
X64930Y-44524D01*
X64940Y-44519D01*
X64962Y-44508D01*
X64981Y-44507D01*
X65006Y-44520D01*
X65036Y-44540D01*
X65079Y-44564D01*
X65115Y-44576D01*
X65115Y-44643D01*
X65105Y-44643D01*
X65075Y-44632D01*
X65039Y-44612D01*
X65007Y-44589D01*
X64992Y-44574D01*
X64969Y-44552D01*
X64949Y-44550D01*
X64930Y-44559D01*
X64918Y-44580D01*
X64920Y-44593D01*
X64934Y-44609D01*
X64963Y-44610D01*
X64968Y-44609D01*
X64999Y-44607D01*
X65016Y-44614D01*
X65044Y-44639D01*
X65092Y-44662D01*
X65149Y-44679D01*
X65210Y-44686D01*
X65220Y-44687D01*
X65273Y-44689D01*
X65300Y-44694D01*
X65302Y-44703D01*
X65281Y-44711D01*
X65236Y-44720D01*
X65194Y-44725D01*
X65135Y-44731D01*
X65096Y-44732D01*
X65069Y-44728D01*
X65048Y-44718D01*
X65042Y-44714D01*
X65014Y-44690D01*
X64999Y-44665D01*
X64985Y-44647D01*
X64960Y-44639D01*
X64935Y-44640D01*
X64919Y-44652D01*
X64918Y-44664D01*
X64934Y-44683D01*
X64962Y-44691D01*
X65001Y-44703D01*
X65029Y-44719D01*
X65059Y-44735D01*
X65110Y-44746D01*
X65161Y-44752D01*
X65212Y-44757D01*
X65253Y-44762D01*
X65276Y-44767D01*
X65278Y-44768D01*
X65286Y-44782D01*
X65273Y-44794D01*
X65245Y-44800D01*
X65236Y-44801D01*
X65205Y-44807D01*
X65197Y-44821D01*
X65205Y-44835D01*
X65235Y-44840D01*
X65250Y-44841D01*
X65287Y-44846D01*
X65304Y-44856D01*
X65298Y-44868D01*
X65269Y-44876D01*
X65260Y-44877D01*
X65215Y-44881D01*
X65169Y-44888D01*
X65145Y-44891D01*
X65122Y-44886D01*
X65094Y-44872D01*
X65055Y-44847D01*
X65020Y-44822D01*
X64970Y-44786D01*
X64934Y-44764D01*
X64904Y-44752D01*
X64874Y-44748D01*
X64850Y-44747D01*
X64811Y-44745D01*
X64786Y-44739D01*
X64781Y-44734D01*
X64770Y-44723D01*
X64755Y-44720D01*
X64753Y-44721D01*
X64753Y-44384D01*
X64748Y-44352D01*
X64729Y-44321D01*
X64729Y-44320D01*
X64711Y-44307D01*
X64689Y-44299D01*
X64655Y-44294D01*
X64602Y-44293D01*
X64581Y-44293D01*
X64522Y-44293D01*
X64484Y-44297D01*
X64459Y-44303D01*
X64441Y-44315D01*
X64434Y-44322D01*
X64413Y-44355D01*
X64406Y-44391D01*
X64415Y-44417D01*
X64416Y-44418D01*
X64438Y-44426D01*
X64460Y-44413D01*
X64471Y-44389D01*
X64469Y-44357D01*
X64461Y-44341D01*
X64453Y-44326D01*
X64459Y-44315D01*
X64484Y-44309D01*
X64530Y-44307D01*
X64582Y-44306D01*
X64648Y-44309D01*
X64692Y-44315D01*
X64713Y-44325D01*
X64710Y-44340D01*
X64702Y-44346D01*
X64688Y-44366D01*
X64691Y-44394D01*
X64706Y-44415D01*
X64721Y-44420D01*
X64743Y-44409D01*
X64753Y-44384D01*
X64753Y-44721D01*
X64735Y-44727D01*
X64728Y-44750D01*
X64728Y-44760D01*
X64732Y-44790D01*
X64748Y-44800D01*
X64755Y-44801D01*
X64776Y-44792D01*
X64781Y-44780D01*
X64788Y-44768D01*
X64813Y-44762D01*
X64850Y-44760D01*
X64885Y-44762D01*
X64915Y-44769D01*
X64946Y-44784D01*
X64986Y-44811D01*
X65014Y-44832D01*
X65062Y-44868D01*
X65099Y-44890D01*
X65133Y-44903D01*
X65173Y-44910D01*
X65207Y-44914D01*
X65262Y-44921D01*
X65293Y-44930D01*
X65304Y-44942D01*
X65304Y-44943D01*
X65292Y-44956D01*
X65256Y-44962D01*
X65253Y-44962D01*
X65215Y-44965D01*
X65186Y-44973D01*
X65183Y-44975D01*
X65179Y-44983D01*
X65198Y-44987D01*
X65233Y-44988D01*
X65304Y-44988D01*
X65304Y-45055D01*
X65304Y-45122D01*
X65146Y-45122D01*
X65146Y-44986D01*
X65109Y-44967D01*
X65066Y-44950D01*
X65039Y-44954D01*
X65026Y-44974D01*
X65011Y-45000D01*
X64986Y-45022D01*
X64969Y-45031D01*
X64946Y-45037D01*
X64913Y-45040D01*
X64864Y-45041D01*
X64797Y-45041D01*
X64791Y-45040D01*
X64791Y-44966D01*
X64780Y-44935D01*
X64755Y-44907D01*
X64721Y-44888D01*
X64684Y-44885D01*
X64684Y-44885D01*
X64678Y-44886D01*
X64678Y-44741D01*
X64678Y-44692D01*
X64676Y-44640D01*
X64672Y-44558D01*
X64666Y-44502D01*
X64657Y-44472D01*
X64654Y-44469D01*
X64643Y-44440D01*
X64644Y-44399D01*
X64647Y-44365D01*
X64641Y-44350D01*
X64624Y-44346D01*
X64623Y-44346D01*
X64598Y-44355D01*
X64594Y-44371D01*
X64600Y-44401D01*
X64615Y-44438D01*
X64634Y-44472D01*
X64649Y-44488D01*
X64656Y-44505D01*
X64657Y-44542D01*
X64655Y-44588D01*
X64649Y-44638D01*
X64641Y-44685D01*
X64631Y-44720D01*
X64623Y-44733D01*
X64606Y-44746D01*
X64597Y-44737D01*
X64594Y-44734D01*
X64594Y-44662D01*
X64586Y-44639D01*
X64581Y-44633D01*
X64576Y-44617D01*
X64584Y-44600D01*
X64594Y-44580D01*
X64590Y-44569D01*
X64569Y-44562D01*
X64561Y-44561D01*
X64561Y-44381D01*
X64550Y-44355D01*
X64525Y-44346D01*
X64506Y-44357D01*
X64500Y-44382D01*
X64506Y-44410D01*
X64515Y-44422D01*
X64518Y-44438D01*
X64498Y-44458D01*
X64489Y-44465D01*
X64449Y-44488D01*
X64415Y-44491D01*
X64375Y-44475D01*
X64370Y-44471D01*
X64331Y-44458D01*
X64295Y-44458D01*
X64268Y-44471D01*
X64259Y-44492D01*
X64263Y-44517D01*
X64268Y-44525D01*
X64289Y-44532D01*
X64321Y-44534D01*
X64353Y-44530D01*
X64372Y-44521D01*
X64373Y-44520D01*
X64391Y-44510D01*
X64416Y-44507D01*
X64457Y-44497D01*
X64502Y-44472D01*
X64539Y-44438D01*
X64553Y-44417D01*
X64561Y-44381D01*
X64561Y-44561D01*
X64526Y-44558D01*
X64525Y-44557D01*
X64472Y-44556D01*
X64442Y-44564D01*
X64436Y-44585D01*
X64438Y-44593D01*
X64452Y-44609D01*
X64481Y-44610D01*
X64486Y-44609D01*
X64518Y-44607D01*
X64535Y-44615D01*
X64532Y-44629D01*
X64524Y-44635D01*
X64504Y-44640D01*
X64464Y-44644D01*
X64410Y-44648D01*
X64362Y-44649D01*
X64298Y-44651D01*
X64257Y-44654D01*
X64257Y-44359D01*
X64244Y-44342D01*
X64219Y-44346D01*
X64198Y-44369D01*
X64192Y-44398D01*
X64202Y-44418D01*
X64224Y-44425D01*
X64247Y-44414D01*
X64257Y-44396D01*
X64257Y-44359D01*
X64257Y-44654D01*
X64253Y-44655D01*
X64222Y-44660D01*
X64199Y-44670D01*
X64177Y-44685D01*
X64171Y-44690D01*
X64160Y-44702D01*
X64160Y-44368D01*
X64147Y-44350D01*
X64119Y-44347D01*
X64088Y-44358D01*
X64062Y-44368D01*
X64020Y-44378D01*
X63998Y-44382D01*
X63957Y-44391D01*
X63937Y-44402D01*
X63931Y-44419D01*
X63931Y-44420D01*
X63940Y-44442D01*
X63959Y-44447D01*
X63999Y-44456D01*
X64030Y-44477D01*
X64051Y-44504D01*
X64056Y-44532D01*
X64041Y-44555D01*
X64036Y-44558D01*
X64021Y-44578D01*
X64022Y-44591D01*
X64042Y-44610D01*
X64073Y-44611D01*
X64098Y-44600D01*
X64110Y-44588D01*
X64103Y-44572D01*
X64095Y-44563D01*
X64077Y-44537D01*
X64072Y-44518D01*
X64063Y-44496D01*
X64040Y-44469D01*
X64039Y-44468D01*
X64015Y-44439D01*
X64000Y-44412D01*
X64000Y-44394D01*
X64018Y-44387D01*
X64034Y-44387D01*
X64069Y-44393D01*
X64093Y-44407D01*
X64120Y-44425D01*
X64140Y-44418D01*
X64152Y-44399D01*
X64160Y-44368D01*
X64160Y-44702D01*
X64141Y-44722D01*
X64125Y-44754D01*
X64124Y-44782D01*
X64139Y-44799D01*
X64153Y-44801D01*
X64178Y-44791D01*
X64188Y-44779D01*
X64188Y-44750D01*
X64181Y-44733D01*
X64174Y-44711D01*
X64187Y-44694D01*
X64196Y-44687D01*
X64234Y-44672D01*
X64285Y-44667D01*
X64338Y-44672D01*
X64372Y-44682D01*
X64402Y-44690D01*
X64425Y-44681D01*
X64426Y-44680D01*
X64452Y-44670D01*
X64498Y-44670D01*
X64520Y-44673D01*
X64563Y-44677D01*
X64586Y-44675D01*
X64594Y-44666D01*
X64594Y-44662D01*
X64594Y-44734D01*
X64581Y-44723D01*
X64566Y-44720D01*
X64547Y-44727D01*
X64541Y-44752D01*
X64540Y-44760D01*
X64545Y-44790D01*
X64560Y-44800D01*
X64567Y-44801D01*
X64589Y-44792D01*
X64594Y-44780D01*
X64601Y-44763D01*
X64607Y-44760D01*
X64619Y-44771D01*
X64621Y-44781D01*
X64631Y-44797D01*
X64651Y-44798D01*
X64664Y-44795D01*
X64672Y-44788D01*
X64677Y-44772D01*
X64678Y-44741D01*
X64678Y-44886D01*
X64666Y-44889D01*
X64674Y-44891D01*
X64690Y-44893D01*
X64725Y-44901D01*
X64737Y-44921D01*
X64729Y-44944D01*
X64725Y-44978D01*
X64729Y-44991D01*
X64748Y-45012D01*
X64768Y-45008D01*
X64782Y-44994D01*
X64791Y-44966D01*
X64791Y-45040D01*
X64741Y-45040D01*
X64685Y-45039D01*
X64685Y-44984D01*
X64683Y-44954D01*
X64668Y-44935D01*
X64647Y-44932D01*
X64639Y-44936D01*
X64623Y-44962D01*
X64622Y-44992D01*
X64630Y-45006D01*
X64652Y-45013D01*
X64675Y-45002D01*
X64685Y-44984D01*
X64685Y-45039D01*
X64649Y-45038D01*
X64594Y-45039D01*
X64594Y-44969D01*
X64587Y-44937D01*
X64570Y-44925D01*
X64549Y-44936D01*
X64545Y-44941D01*
X64528Y-44957D01*
X64510Y-44951D01*
X64507Y-44948D01*
X64487Y-44925D01*
X64491Y-44908D01*
X64521Y-44897D01*
X64570Y-44891D01*
X64588Y-44889D01*
X64580Y-44887D01*
X64551Y-44886D01*
X64501Y-44884D01*
X64498Y-44884D01*
X64498Y-44757D01*
X64497Y-44730D01*
X64482Y-44721D01*
X64474Y-44720D01*
X64446Y-44731D01*
X64434Y-44758D01*
X64438Y-44782D01*
X64454Y-44799D01*
X64475Y-44795D01*
X64492Y-44776D01*
X64498Y-44757D01*
X64498Y-44884D01*
X64463Y-44884D01*
X64388Y-44882D01*
X64336Y-44881D01*
X64303Y-44878D01*
X64284Y-44874D01*
X64275Y-44867D01*
X64273Y-44857D01*
X64273Y-44851D01*
X64278Y-44807D01*
X64290Y-44776D01*
X64306Y-44759D01*
X64323Y-44762D01*
X64335Y-44780D01*
X64353Y-44797D01*
X64367Y-44801D01*
X64386Y-44794D01*
X64393Y-44768D01*
X64393Y-44760D01*
X64388Y-44730D01*
X64372Y-44720D01*
X64369Y-44720D01*
X64339Y-44729D01*
X64329Y-44736D01*
X64310Y-44746D01*
X64297Y-44736D01*
X64270Y-44723D01*
X64255Y-44720D01*
X64241Y-44723D01*
X64235Y-44734D01*
X64235Y-44760D01*
X64239Y-44801D01*
X64248Y-44881D01*
X64176Y-44881D01*
X64128Y-44878D01*
X64098Y-44869D01*
X64076Y-44851D01*
X64060Y-44822D01*
X64050Y-44784D01*
X64047Y-44744D01*
X64051Y-44714D01*
X64062Y-44701D01*
X64087Y-44694D01*
X64115Y-44688D01*
X64143Y-44674D01*
X64151Y-44655D01*
X64136Y-44638D01*
X64127Y-44634D01*
X64095Y-44631D01*
X64071Y-44640D01*
X64063Y-44658D01*
X64064Y-44662D01*
X64060Y-44681D01*
X64039Y-44696D01*
X64012Y-44703D01*
X63989Y-44697D01*
X63988Y-44695D01*
X63979Y-44677D01*
X63989Y-44651D01*
X64001Y-44631D01*
X63999Y-44619D01*
X63978Y-44607D01*
X63968Y-44601D01*
X63947Y-44586D01*
X63948Y-44566D01*
X63952Y-44559D01*
X63961Y-44523D01*
X63944Y-44494D01*
X63919Y-44481D01*
X63899Y-44468D01*
X63886Y-44444D01*
X63877Y-44401D01*
X63877Y-44400D01*
X63874Y-44350D01*
X63881Y-44317D01*
X63886Y-44309D01*
X63897Y-44294D01*
X63891Y-44297D01*
X63879Y-44305D01*
X63865Y-44322D01*
X63859Y-44347D01*
X63859Y-44389D01*
X63860Y-44403D01*
X63862Y-44448D01*
X63858Y-44473D01*
X63848Y-44485D01*
X63843Y-44487D01*
X63816Y-44508D01*
X63809Y-44540D01*
X63812Y-44553D01*
X63829Y-44566D01*
X63862Y-44578D01*
X63872Y-44580D01*
X63906Y-44588D01*
X63922Y-44602D01*
X63924Y-44621D01*
X63929Y-44645D01*
X63937Y-44654D01*
X63950Y-44664D01*
X63957Y-44678D01*
X63974Y-44703D01*
X63998Y-44720D01*
X64022Y-44739D01*
X64031Y-44769D01*
X64032Y-44788D01*
X64042Y-44838D01*
X64076Y-44872D01*
X64130Y-44891D01*
X64178Y-44895D01*
X64247Y-44895D01*
X64238Y-44940D01*
X64236Y-44982D01*
X64244Y-45008D01*
X64259Y-45015D01*
X64278Y-45000D01*
X64286Y-44987D01*
X64294Y-44960D01*
X64282Y-44930D01*
X64280Y-44927D01*
X64259Y-44895D01*
X64367Y-44895D01*
X64475Y-44895D01*
X64451Y-44934D01*
X64436Y-44963D01*
X64436Y-44980D01*
X64450Y-44997D01*
X64450Y-44997D01*
X64468Y-45012D01*
X64484Y-45008D01*
X64498Y-44996D01*
X64522Y-44982D01*
X64533Y-44987D01*
X64552Y-44999D01*
X64568Y-45001D01*
X64588Y-44993D01*
X64594Y-44969D01*
X64594Y-45039D01*
X64582Y-45040D01*
X64539Y-45043D01*
X64517Y-45049D01*
X64515Y-45059D01*
X64527Y-45069D01*
X64560Y-45081D01*
X64589Y-45078D01*
X64600Y-45068D01*
X64617Y-45063D01*
X64656Y-45059D01*
X64714Y-45056D01*
X64786Y-45055D01*
X64793Y-45055D01*
X64868Y-45055D01*
X64921Y-45053D01*
X64957Y-45050D01*
X64979Y-45045D01*
X64994Y-45036D01*
X65001Y-45030D01*
X65028Y-45012D01*
X65069Y-44998D01*
X65085Y-44995D01*
X65146Y-44986D01*
X65146Y-45122D01*
X64549Y-45122D01*
X64400Y-45122D01*
X64400Y-44962D01*
X64384Y-44940D01*
X64365Y-44935D01*
X64346Y-44942D01*
X64340Y-44967D01*
X64339Y-44975D01*
X64344Y-45004D01*
X64360Y-45015D01*
X64365Y-45015D01*
X64390Y-45005D01*
X64398Y-44995D01*
X64400Y-44962D01*
X64400Y-45122D01*
X64206Y-45122D01*
X64206Y-45043D01*
X64198Y-45029D01*
X64192Y-45028D01*
X64185Y-45017D01*
X64187Y-44991D01*
X64186Y-44956D01*
X64173Y-44933D01*
X64153Y-44925D01*
X64132Y-44939D01*
X64131Y-44940D01*
X64120Y-44970D01*
X64126Y-44990D01*
X64134Y-45016D01*
X64132Y-45029D01*
X64112Y-45038D01*
X64077Y-45041D01*
X64036Y-45037D01*
X63999Y-45026D01*
X63999Y-45026D01*
X63969Y-45018D01*
X63945Y-45028D01*
X63944Y-45028D01*
X63933Y-45049D01*
X63942Y-45068D01*
X63964Y-45077D01*
X63984Y-45075D01*
X64017Y-45066D01*
X64056Y-45059D01*
X64097Y-45059D01*
X64132Y-45068D01*
X64163Y-45079D01*
X64185Y-45077D01*
X64200Y-45063D01*
X64206Y-45043D01*
X64206Y-45122D01*
X63795Y-45122D01*
X63786Y-44959D01*
X63783Y-44901D01*
X63781Y-44822D01*
X63779Y-44727D01*
X63778Y-44622D01*
X63777Y-44513D01*
X63777Y-44418D01*
X63777Y-44038D01*
X64547Y-44038D01*
X65318Y-44038D01*
X65318Y-44038D01*
X65318Y-44038D01*
G37*
G36*
X64764Y-44752D02*
X64762Y-44760D01*
X64755Y-44760D01*
X64743Y-44756D01*
X64746Y-44752D01*
X64762Y-44750D01*
X64764Y-44752D01*
X64764Y-44752D01*
X64764Y-44752D01*
G37*
G36*
X64964Y-44658D02*
X64962Y-44666D01*
X64956Y-44667D01*
X64944Y-44662D01*
X64946Y-44658D01*
X64962Y-44656D01*
X64964Y-44658D01*
X64964Y-44658D01*
X64964Y-44658D01*
G37*
G36*
X65170Y-44660D02*
X65163Y-44667D01*
X65156Y-44660D01*
X65163Y-44654D01*
X65170Y-44660D01*
X65170Y-44660D01*
X65170Y-44660D01*
G37*
G36*
X64964Y-44578D02*
X64962Y-44585D01*
X64956Y-44586D01*
X64944Y-44582D01*
X64946Y-44578D01*
X64962Y-44576D01*
X64964Y-44578D01*
X64964Y-44578D01*
X64964Y-44578D01*
G37*
G36*
X65170Y-44500D02*
X65163Y-44507D01*
X65156Y-44500D01*
X65163Y-44494D01*
X65170Y-44500D01*
X65170Y-44500D01*
X65170Y-44500D01*
G37*
G36*
X64902Y-44487D02*
X64895Y-44494D01*
X64889Y-44487D01*
X64895Y-44480D01*
X64902Y-44487D01*
X64902Y-44487D01*
X64902Y-44487D01*
G37*
G36*
X64339Y-44380D02*
X64333Y-44387D01*
X64326Y-44380D01*
X64333Y-44373D01*
X64339Y-44380D01*
X64339Y-44380D01*
X64339Y-44380D01*
G37*
G36*
X64835Y-44380D02*
X64828Y-44387D01*
X64821Y-44380D01*
X64828Y-44373D01*
X64835Y-44380D01*
X64835Y-44380D01*
X64835Y-44380D01*
G37*
G36*
X64618Y-44166D02*
X64616Y-44168D01*
X64608Y-44166D01*
X64607Y-44159D01*
X64612Y-44148D01*
X64616Y-44150D01*
X64618Y-44166D01*
X64618Y-44166D01*
X64618Y-44166D01*
G37*
G36*
X63965Y-44125D02*
X63958Y-44132D01*
X63951Y-44125D01*
X63958Y-44119D01*
X63965Y-44125D01*
X63965Y-44125D01*
X63965Y-44125D01*
G37*
G36*
X61020Y-45229D02*
X60189Y-45229D01*
X60189Y-45015D01*
X61020Y-45015D01*
X61020Y-45229D01*
X61020Y-45229D01*
X61020Y-45229D01*
G37*
G36*
X63322Y-44132D02*
X62492Y-44132D01*
X62492Y-43918D01*
X63322Y-43918D01*
X63322Y-44132D01*
X63322Y-44132D01*
X63322Y-44132D01*
G37*
G36*
X63978Y-45048D02*
X63971Y-45055D01*
X63965Y-45048D01*
X63971Y-45042D01*
X63978Y-45048D01*
X63978Y-45048D01*
X63978Y-45048D01*
G37*
G36*
X64165Y-45048D02*
X64159Y-45055D01*
X64152Y-45048D01*
X64159Y-45042D01*
X64165Y-45048D01*
X64165Y-45048D01*
X64165Y-45048D01*
G37*
G36*
X64161Y-44966D02*
X64159Y-44974D01*
X64152Y-44975D01*
X64141Y-44970D01*
X64143Y-44966D01*
X64159Y-44964D01*
X64161Y-44966D01*
X64161Y-44966D01*
X64161Y-44966D01*
G37*
G36*
X64567Y-45048D02*
X64560Y-45055D01*
X64554Y-45048D01*
X64560Y-45042D01*
X64567Y-45048D01*
X64567Y-45048D01*
X64567Y-45048D01*
G37*
G36*
X65062Y-44981D02*
X65056Y-44988D01*
X65049Y-44981D01*
X65056Y-44975D01*
X65062Y-44981D01*
X65062Y-44981D01*
X65062Y-44981D01*
G37*
G36*
X64259Y-44968D02*
X64253Y-44975D01*
X64246Y-44968D01*
X64253Y-44961D01*
X64259Y-44968D01*
X64259Y-44968D01*
X64259Y-44968D01*
G37*
G36*
X64474Y-44968D02*
X64467Y-44975D01*
X64460Y-44968D01*
X64467Y-44961D01*
X64474Y-44968D01*
X64474Y-44968D01*
X64474Y-44968D01*
G37*
G36*
X64567Y-44968D02*
X64560Y-44975D01*
X64554Y-44968D01*
X64560Y-44961D01*
X64567Y-44968D01*
X64567Y-44968D01*
X64567Y-44968D01*
G37*
G36*
X64259Y-44754D02*
X64253Y-44760D01*
X64246Y-44754D01*
X64253Y-44747D01*
X64259Y-44754D01*
X64259Y-44754D01*
X64259Y-44754D01*
G37*
G36*
X64366Y-44754D02*
X64359Y-44760D01*
X64353Y-44754D01*
X64359Y-44747D01*
X64366Y-44754D01*
X64366Y-44754D01*
X64366Y-44754D01*
G37*
G36*
X64112Y-44660D02*
X64105Y-44667D01*
X64098Y-44660D01*
X64105Y-44654D01*
X64112Y-44660D01*
X64112Y-44660D01*
X64112Y-44660D01*
G37*
G36*
X63965Y-44633D02*
X63958Y-44640D01*
X63951Y-44633D01*
X63958Y-44627D01*
X63965Y-44633D01*
X63965Y-44633D01*
X63965Y-44633D01*
G37*
G36*
X63897Y-44534D02*
X63887Y-44547D01*
X63884Y-44547D01*
X63871Y-44537D01*
X63871Y-44534D01*
X63881Y-44521D01*
X63884Y-44520D01*
X63897Y-44531D01*
X63897Y-44534D01*
X63897Y-44534D01*
X63897Y-44534D01*
G37*
G36*
X64366Y-44968D02*
X64359Y-44975D01*
X64353Y-44968D01*
X64359Y-44961D01*
X64366Y-44968D01*
X64366Y-44968D01*
X64366Y-44968D01*
G37*
G36*
X64661Y-44968D02*
X64654Y-44975D01*
X64647Y-44968D01*
X64654Y-44961D01*
X64661Y-44968D01*
X64661Y-44968D01*
X64661Y-44968D01*
G37*
G36*
X64755Y-44968D02*
X64748Y-44975D01*
X64741Y-44968D01*
X64748Y-44961D01*
X64755Y-44968D01*
X64755Y-44968D01*
X64755Y-44968D01*
G37*
G36*
X64152Y-44754D02*
X64145Y-44760D01*
X64138Y-44754D01*
X64145Y-44747D01*
X64152Y-44754D01*
X64152Y-44754D01*
X64152Y-44754D01*
G37*
G36*
X64406Y-44660D02*
X64400Y-44667D01*
X64393Y-44660D01*
X64400Y-44654D01*
X64406Y-44660D01*
X64406Y-44660D01*
X64406Y-44660D01*
G37*
G36*
X64563Y-44658D02*
X64561Y-44666D01*
X64554Y-44667D01*
X64543Y-44662D01*
X64545Y-44658D01*
X64561Y-44656D01*
X64563Y-44658D01*
X64563Y-44658D01*
X64563Y-44658D01*
G37*
G36*
X64474Y-44580D02*
X64467Y-44586D01*
X64460Y-44580D01*
X64467Y-44573D01*
X64474Y-44580D01*
X64474Y-44580D01*
X64474Y-44580D01*
G37*
G36*
X64563Y-44578D02*
X64561Y-44585D01*
X64554Y-44586D01*
X64543Y-44582D01*
X64545Y-44578D01*
X64561Y-44576D01*
X64563Y-44578D01*
X64563Y-44578D01*
X64563Y-44578D01*
G37*
G36*
X64474Y-44754D02*
X64467Y-44760D01*
X64460Y-44754D01*
X64467Y-44747D01*
X64474Y-44754D01*
X64474Y-44754D01*
X64474Y-44754D01*
G37*
G36*
X64567Y-44754D02*
X64560Y-44760D01*
X64554Y-44754D01*
X64560Y-44747D01*
X64567Y-44754D01*
X64567Y-44754D01*
X64567Y-44754D01*
G37*
G36*
X64661Y-44754D02*
X64654Y-44760D01*
X64647Y-44754D01*
X64654Y-44747D01*
X64661Y-44754D01*
X64661Y-44754D01*
X64661Y-44754D01*
G37*
G36*
X64621Y-44380D02*
X64614Y-44387D01*
X64607Y-44380D01*
X64614Y-44373D01*
X64621Y-44380D01*
X64621Y-44380D01*
X64621Y-44380D01*
G37*
G36*
X64072Y-44580D02*
X64065Y-44586D01*
X64058Y-44580D01*
X64065Y-44573D01*
X64072Y-44580D01*
X64072Y-44580D01*
X64072Y-44580D01*
G37*
G36*
X63965Y-44420D02*
X63958Y-44427D01*
X63951Y-44420D01*
X63958Y-44413D01*
X63965Y-44420D01*
X63965Y-44420D01*
X63965Y-44420D01*
G37*
G36*
X64134Y-44378D02*
X64132Y-44385D01*
X64125Y-44387D01*
X64114Y-44382D01*
X64116Y-44378D01*
X64132Y-44376D01*
X64134Y-44378D01*
X64134Y-44378D01*
X64134Y-44378D01*
G37*
G36*
X64326Y-44500D02*
X64319Y-44507D01*
X64313Y-44500D01*
X64319Y-44494D01*
X64326Y-44500D01*
X64326Y-44500D01*
X64326Y-44500D01*
G37*
G36*
X64527Y-44380D02*
X64520Y-44387D01*
X64514Y-44380D01*
X64520Y-44373D01*
X64527Y-44380D01*
X64527Y-44380D01*
X64527Y-44380D01*
G37*
G36*
X64232Y-44380D02*
X64226Y-44387D01*
X64219Y-44380D01*
X64226Y-44373D01*
X64232Y-44380D01*
X64232Y-44380D01*
X64232Y-44380D01*
G37*
G36*
X64442Y-44378D02*
X64440Y-44385D01*
X64433Y-44387D01*
X64422Y-44382D01*
X64424Y-44378D01*
X64440Y-44376D01*
X64442Y-44378D01*
X64442Y-44378D01*
X64442Y-44378D01*
G37*
G36*
X64728Y-44380D02*
X64721Y-44387D01*
X64715Y-44380D01*
X64721Y-44373D01*
X64728Y-44380D01*
X64728Y-44380D01*
X64728Y-44380D01*
G37*
G36*
X65062Y-44366D02*
X65056Y-44373D01*
X65049Y-44366D01*
X65056Y-44360D01*
X65062Y-44366D01*
X65062Y-44366D01*
X65062Y-44366D01*
G37*
G36*
X64821Y-44166D02*
X64815Y-44172D01*
X64808Y-44166D01*
X64815Y-44159D01*
X64821Y-44166D01*
X64821Y-44166D01*
X64821Y-44166D01*
G37*
G36*
X64122Y-44166D02*
X64121Y-44168D01*
X64113Y-44166D01*
X64112Y-44159D01*
X64117Y-44148D01*
X64121Y-44150D01*
X64122Y-44166D01*
X64122Y-44166D01*
X64122Y-44166D01*
G37*
G36*
X64229Y-44166D02*
X64228Y-44168D01*
X64220Y-44166D01*
X64219Y-44159D01*
X64224Y-44148D01*
X64228Y-44150D01*
X64229Y-44166D01*
X64229Y-44166D01*
X64229Y-44166D01*
G37*
G36*
X64527Y-44166D02*
X64520Y-44172D01*
X64514Y-44166D01*
X64520Y-44159D01*
X64527Y-44166D01*
X64527Y-44166D01*
X64527Y-44166D01*
G37*
G36*
X64715Y-44166D02*
X64708Y-44172D01*
X64701Y-44166D01*
X64708Y-44159D01*
X64715Y-44166D01*
X64715Y-44166D01*
X64715Y-44166D01*
G37*
G36*
X65036Y-44112D02*
X65029Y-44119D01*
X65022Y-44112D01*
X65029Y-44105D01*
X65036Y-44112D01*
X65036Y-44112D01*
X65036Y-44112D01*
G37*
G36*
X58575Y-40124D02*
X58469Y-40124D01*
X58469Y-38848D01*
X58465Y-38846D01*
X58454Y-38844D01*
X58434Y-38843D01*
X58405Y-38841D01*
X58357Y-38836D01*
X58308Y-38828D01*
X58260Y-38815D01*
X58218Y-38800D01*
X58183Y-38784D01*
X58170Y-38776D01*
X58157Y-38769D01*
X58137Y-38761D01*
X58113Y-38752D01*
X58104Y-38750D01*
X58076Y-38742D01*
X58055Y-38737D01*
X58034Y-38736D01*
X58012Y-38738D01*
X57974Y-38742D01*
X57941Y-38749D01*
X57909Y-38758D01*
X57876Y-38771D01*
X57841Y-38789D01*
X57803Y-38812D01*
X57758Y-38842D01*
X57723Y-38866D01*
X57680Y-38895D01*
X57645Y-38917D01*
X57615Y-38933D01*
X57588Y-38945D01*
X57564Y-38951D01*
X57539Y-38955D01*
X57516Y-38955D01*
X57486Y-38953D01*
X57453Y-38947D01*
X57422Y-38937D01*
X57396Y-38926D01*
X57385Y-38918D01*
X57369Y-38904D01*
X57404Y-38886D01*
X57459Y-38857D01*
X57503Y-38833D01*
X57540Y-38812D01*
X57569Y-38795D01*
X57591Y-38779D01*
X57608Y-38765D01*
X57622Y-38751D01*
X57631Y-38739D01*
X57642Y-38718D01*
X57647Y-38695D01*
X57645Y-38668D01*
X57635Y-38637D01*
X57623Y-38606D01*
X57609Y-38576D01*
X57600Y-38554D01*
X57595Y-38538D01*
X57593Y-38525D01*
X57595Y-38514D01*
X57599Y-38501D01*
X57600Y-38498D01*
X57608Y-38482D01*
X57620Y-38467D01*
X57637Y-38452D01*
X57661Y-38436D01*
X57693Y-38419D01*
X57734Y-38399D01*
X57750Y-38392D01*
X57794Y-38372D01*
X57828Y-38355D01*
X57854Y-38341D01*
X57875Y-38328D01*
X57891Y-38317D01*
X57902Y-38307D01*
X57914Y-38293D01*
X57924Y-38277D01*
X57930Y-38263D01*
X57930Y-38254D01*
X57929Y-38254D01*
X57923Y-38255D01*
X57909Y-38262D01*
X57891Y-38272D01*
X57887Y-38275D01*
X57864Y-38289D01*
X57838Y-38303D01*
X57810Y-38316D01*
X57784Y-38328D01*
X57762Y-38337D01*
X57747Y-38341D01*
X57745Y-38341D01*
X57731Y-38343D01*
X57710Y-38349D01*
X57683Y-38357D01*
X57655Y-38367D01*
X57628Y-38378D01*
X57605Y-38388D01*
X57600Y-38390D01*
X57561Y-38412D01*
X57530Y-38434D01*
X57506Y-38460D01*
X57487Y-38490D01*
X57471Y-38528D01*
X57460Y-38565D01*
X57450Y-38597D01*
X57443Y-38620D01*
X57436Y-38636D01*
X57430Y-38649D01*
X57421Y-38661D01*
X57410Y-38674D01*
X57408Y-38676D01*
X57392Y-38692D01*
X57374Y-38705D01*
X57352Y-38716D01*
X57324Y-38727D01*
X57290Y-38738D01*
X57264Y-38746D01*
X57241Y-38754D01*
X57224Y-38760D01*
X57220Y-38763D01*
X57209Y-38767D01*
X57204Y-38766D01*
X57207Y-38758D01*
X57217Y-38742D01*
X57225Y-38730D01*
X57244Y-38698D01*
X57259Y-38670D01*
X57267Y-38646D01*
X57269Y-38635D01*
X57265Y-38622D01*
X57255Y-38607D01*
X57253Y-38603D01*
X57236Y-38585D01*
X57162Y-38592D01*
X57110Y-38595D01*
X57069Y-38595D01*
X57039Y-38591D01*
X57019Y-38582D01*
X57009Y-38568D01*
X57007Y-38550D01*
X57015Y-38525D01*
X57030Y-38495D01*
X57033Y-38490D01*
X57052Y-38455D01*
X57063Y-38427D01*
X57066Y-38405D01*
X57065Y-38397D01*
X57062Y-38395D01*
X57054Y-38402D01*
X57041Y-38419D01*
X57036Y-38425D01*
X57019Y-38447D01*
X56997Y-38473D01*
X56974Y-38497D01*
X56968Y-38502D01*
X56935Y-38537D01*
X56911Y-38567D01*
X56897Y-38594D01*
X56894Y-38615D01*
X56901Y-38632D01*
X56904Y-38635D01*
X56915Y-38642D01*
X56933Y-38651D01*
X56949Y-38658D01*
X56981Y-38672D01*
X57001Y-38687D01*
X57011Y-38705D01*
X57010Y-38725D01*
X56998Y-38749D01*
X56976Y-38778D01*
X56960Y-38796D01*
X56942Y-38813D01*
X56927Y-38825D01*
X56916Y-38830D01*
X56915Y-38830D01*
X56905Y-38826D01*
X56890Y-38816D01*
X56875Y-38803D01*
X56858Y-38788D01*
X56845Y-38780D01*
X56833Y-38777D01*
X56818Y-38777D01*
X56778Y-38782D01*
X56736Y-38797D01*
X56708Y-38812D01*
X56679Y-38830D01*
X55979Y-38832D01*
X55873Y-38832D01*
X55778Y-38832D01*
X55694Y-38832D01*
X55619Y-38833D01*
X55555Y-38833D01*
X55498Y-38833D01*
X55450Y-38834D01*
X55409Y-38834D01*
X55375Y-38834D01*
X55347Y-38835D01*
X55325Y-38836D01*
X55307Y-38837D01*
X55294Y-38838D01*
X55284Y-38838D01*
X55277Y-38840D01*
X55272Y-38841D01*
X55269Y-38843D01*
X55267Y-38844D01*
X55266Y-38845D01*
X55263Y-38848D01*
X55260Y-38852D01*
X55258Y-38858D01*
X55256Y-38868D01*
X55255Y-38883D01*
X55254Y-38903D01*
X55254Y-38930D01*
X55254Y-38966D01*
X55254Y-39011D01*
X55254Y-39057D01*
X55254Y-39113D01*
X55254Y-39157D01*
X55255Y-39193D01*
X55255Y-39221D01*
X55257Y-39241D01*
X55258Y-39255D01*
X55260Y-39263D01*
X55262Y-39268D01*
X55264Y-39270D01*
X55266Y-39272D01*
X55271Y-39273D01*
X55277Y-39275D01*
X55286Y-39276D01*
X55300Y-39277D01*
X55317Y-39277D01*
X55340Y-39278D01*
X55369Y-39279D01*
X55404Y-39279D01*
X55447Y-39280D01*
X55498Y-39280D01*
X55558Y-39280D01*
X55627Y-39281D01*
X55706Y-39281D01*
X55797Y-39281D01*
X55826Y-39281D01*
X55906Y-39281D01*
X55983Y-39282D01*
X56055Y-39282D01*
X56123Y-39282D01*
X56184Y-39283D01*
X56239Y-39284D01*
X56286Y-39284D01*
X56324Y-39284D01*
X56353Y-39285D01*
X56373Y-39286D01*
X56381Y-39286D01*
X56381Y-39286D01*
X56378Y-39295D01*
X56368Y-39310D01*
X56355Y-39328D01*
X56340Y-39346D01*
X56327Y-39362D01*
X56317Y-39372D01*
X56298Y-39385D01*
X56277Y-39395D01*
X56249Y-39404D01*
X56213Y-39411D01*
X56181Y-39417D01*
X56147Y-39424D01*
X56116Y-39432D01*
X56090Y-39441D01*
X56071Y-39451D01*
X56060Y-39460D01*
X56059Y-39464D01*
X56061Y-39469D01*
X56069Y-39469D01*
X56083Y-39466D01*
X56097Y-39463D01*
X56111Y-39464D01*
X56127Y-39467D01*
X56151Y-39475D01*
X56156Y-39477D01*
X56199Y-39489D01*
X56236Y-39493D01*
X56267Y-39490D01*
X56292Y-39480D01*
X56307Y-39470D01*
X56328Y-39452D01*
X56356Y-39427D01*
X56389Y-39394D01*
X56408Y-39375D01*
X56497Y-39282D01*
X56578Y-39282D01*
X56658Y-39283D01*
X56596Y-39341D01*
X56562Y-39374D01*
X56537Y-39403D01*
X56520Y-39429D01*
X56510Y-39454D01*
X56507Y-39478D01*
X56506Y-39484D01*
X56508Y-39504D01*
X56514Y-39522D01*
X56525Y-39542D01*
X56543Y-39565D01*
X56558Y-39582D01*
X56578Y-39605D01*
X56591Y-39624D01*
X56598Y-39640D01*
X56601Y-39658D01*
X56602Y-39678D01*
X56601Y-39699D01*
X56597Y-39718D01*
X56589Y-39737D01*
X56577Y-39758D01*
X56559Y-39781D01*
X56535Y-39809D01*
X56503Y-39842D01*
X56473Y-39872D01*
X56430Y-39915D01*
X56396Y-39952D01*
X56370Y-39983D01*
X56353Y-40008D01*
X56343Y-40028D01*
X56340Y-40043D01*
X56341Y-40049D01*
X56346Y-40047D01*
X56355Y-40036D01*
X56356Y-40034D01*
X56370Y-40018D01*
X56387Y-39999D01*
X56397Y-39989D01*
X56421Y-39968D01*
X56450Y-39949D01*
X56486Y-39931D01*
X56530Y-39914D01*
X56561Y-39903D01*
X56598Y-39890D01*
X56628Y-39877D01*
X56652Y-39862D01*
X56671Y-39845D01*
X56685Y-39823D01*
X56694Y-39795D01*
X56701Y-39760D01*
X56706Y-39716D01*
X56708Y-39662D01*
X56709Y-39641D01*
X56711Y-39594D01*
X56714Y-39554D01*
X56716Y-39522D01*
X56719Y-39501D01*
X56721Y-39491D01*
X56744Y-39448D01*
X56777Y-39410D01*
X56821Y-39376D01*
X56856Y-39356D01*
X56878Y-39345D01*
X56892Y-39340D01*
X56901Y-39339D01*
X56905Y-39342D01*
X56905Y-39343D01*
X56908Y-39352D01*
X56909Y-39370D01*
X56910Y-39395D01*
X56911Y-39424D01*
X56911Y-39428D01*
X56912Y-39469D01*
X56914Y-39500D01*
X56920Y-39522D01*
X56928Y-39538D01*
X56940Y-39550D01*
X56947Y-39554D01*
X56966Y-39562D01*
X56989Y-39566D01*
X57017Y-39567D01*
X57051Y-39564D01*
X57092Y-39557D01*
X57143Y-39547D01*
X57171Y-39541D01*
X57238Y-39529D01*
X57296Y-39525D01*
X57324Y-39525D01*
X57345Y-39526D01*
X57361Y-39529D01*
X57376Y-39535D01*
X57390Y-39541D01*
X57421Y-39561D01*
X57445Y-39589D01*
X57463Y-39624D01*
X57474Y-39667D01*
X57480Y-39721D01*
X57481Y-39742D01*
X57482Y-39775D01*
X57484Y-39800D01*
X57487Y-39820D01*
X57493Y-39838D01*
X57496Y-39846D01*
X57507Y-39868D01*
X57522Y-39890D01*
X57538Y-39911D01*
X57555Y-39927D01*
X57569Y-39937D01*
X57575Y-39939D01*
X57580Y-39938D01*
X57584Y-39933D01*
X57584Y-39924D01*
X57583Y-39907D01*
X57580Y-39883D01*
X57575Y-39855D01*
X57565Y-39796D01*
X57597Y-39717D01*
X57617Y-39661D01*
X57629Y-39612D01*
X57634Y-39571D01*
X57630Y-39535D01*
X57617Y-39504D01*
X57597Y-39477D01*
X57587Y-39468D01*
X57567Y-39453D01*
X57543Y-39441D01*
X57514Y-39430D01*
X57477Y-39422D01*
X57431Y-39414D01*
X57407Y-39411D01*
X57374Y-39406D01*
X57341Y-39400D01*
X57313Y-39394D01*
X57295Y-39389D01*
X57257Y-39372D01*
X57228Y-39349D01*
X57209Y-39321D01*
X57201Y-39289D01*
X57203Y-39253D01*
X57217Y-39215D01*
X57234Y-39186D01*
X57245Y-39171D01*
X57306Y-39188D01*
X57370Y-39203D01*
X57427Y-39210D01*
X57477Y-39208D01*
X57511Y-39200D01*
X57538Y-39191D01*
X57564Y-39179D01*
X57590Y-39163D01*
X57616Y-39143D01*
X57645Y-39118D01*
X57678Y-39085D01*
X57716Y-39045D01*
X57754Y-39002D01*
X57797Y-38958D01*
X57841Y-38921D01*
X57884Y-38894D01*
X57900Y-38886D01*
X57928Y-38875D01*
X57958Y-38868D01*
X57991Y-38864D01*
X58030Y-38863D01*
X58076Y-38865D01*
X58123Y-38868D01*
X58196Y-38874D01*
X58263Y-38877D01*
X58322Y-38877D01*
X58373Y-38874D01*
X58415Y-38869D01*
X58446Y-38861D01*
X58459Y-38855D01*
X58466Y-38851D01*
X58469Y-38848D01*
X58469Y-40124D01*
X56840Y-40124D01*
X55105Y-40124D01*
X55105Y-39140D01*
X55105Y-38156D01*
X56840Y-38156D01*
X58575Y-38156D01*
X58575Y-39140D01*
X58575Y-40124D01*
X58575Y-40124D01*
X58575Y-40124D01*
G37*
G36*
X56613Y-39057D02*
X56610Y-39062D01*
X56599Y-39066D01*
X56584Y-39070D01*
X56584Y-39158D01*
X56584Y-39192D01*
X56584Y-39216D01*
X56585Y-39231D01*
X56587Y-39241D01*
X56590Y-39245D01*
X56594Y-39247D01*
X56597Y-39248D01*
X56608Y-39252D01*
X56612Y-39257D01*
X56610Y-39261D01*
X56600Y-39264D01*
X56580Y-39265D01*
X56569Y-39265D01*
X56545Y-39264D01*
X56531Y-39262D01*
X56526Y-39259D01*
X56526Y-39257D01*
X56533Y-39252D01*
X56546Y-39248D01*
X56547Y-39248D01*
X56566Y-39246D01*
X56566Y-39207D01*
X56566Y-39168D01*
X56566Y-39168D01*
X56566Y-39121D01*
X56561Y-39096D01*
X56552Y-39083D01*
X56541Y-39072D01*
X56529Y-39067D01*
X56511Y-39066D01*
X56506Y-39066D01*
X56487Y-39067D01*
X56474Y-39071D01*
X56463Y-39080D01*
X56461Y-39083D01*
X56449Y-39104D01*
X56447Y-39125D01*
X56453Y-39145D01*
X56465Y-39163D01*
X56482Y-39175D01*
X56502Y-39181D01*
X56524Y-39178D01*
X56536Y-39171D01*
X56554Y-39156D01*
X56563Y-39140D01*
X56566Y-39121D01*
X56566Y-39168D01*
X56550Y-39181D01*
X56532Y-39190D01*
X56507Y-39193D01*
X56505Y-39193D01*
X56486Y-39192D01*
X56473Y-39188D01*
X56459Y-39177D01*
X56452Y-39170D01*
X56438Y-39154D01*
X56431Y-39140D01*
X56429Y-39125D01*
X56429Y-39125D01*
X56434Y-39096D01*
X56448Y-39072D01*
X56468Y-39055D01*
X56493Y-39047D01*
X56520Y-39047D01*
X56546Y-39057D01*
X56559Y-39065D01*
X56565Y-39065D01*
X56566Y-39060D01*
X56569Y-39054D01*
X56581Y-39051D01*
X56590Y-39051D01*
X56606Y-39053D01*
X56613Y-39057D01*
X56613Y-39057D01*
X56613Y-39057D01*
G37*
G36*
X55444Y-39133D02*
X55438Y-39157D01*
X55427Y-39174D01*
X55427Y-39121D01*
X55423Y-39097D01*
X55420Y-39092D01*
X55408Y-39079D01*
X55389Y-39069D01*
X55369Y-39063D01*
X55365Y-39063D01*
X55339Y-39068D01*
X55319Y-39082D01*
X55306Y-39102D01*
X55302Y-39125D01*
X55307Y-39150D01*
X55311Y-39157D01*
X55326Y-39175D01*
X55345Y-39184D01*
X55371Y-39185D01*
X55373Y-39185D01*
X55393Y-39181D01*
X55408Y-39171D01*
X55413Y-39165D01*
X55423Y-39145D01*
X55427Y-39121D01*
X55427Y-39174D01*
X55424Y-39179D01*
X55404Y-39194D01*
X55380Y-39203D01*
X55353Y-39204D01*
X55326Y-39194D01*
X55303Y-39176D01*
X55289Y-39152D01*
X55285Y-39126D01*
X55290Y-39099D01*
X55305Y-39074D01*
X55308Y-39071D01*
X55332Y-39054D01*
X55359Y-39046D01*
X55386Y-39048D01*
X55411Y-39060D01*
X55430Y-39079D01*
X55442Y-39106D01*
X55444Y-39133D01*
X55444Y-39133D01*
X55444Y-39133D01*
G37*
G36*
X55612Y-39127D02*
X55606Y-39153D01*
X55592Y-39176D01*
X55570Y-39192D01*
X55542Y-39202D01*
X55512Y-39204D01*
X55482Y-39197D01*
X55465Y-39189D01*
X55454Y-39180D01*
X55451Y-39173D01*
X55452Y-39172D01*
X55460Y-39171D01*
X55473Y-39175D01*
X55480Y-39177D01*
X55513Y-39187D01*
X55541Y-39186D01*
X55565Y-39174D01*
X55573Y-39167D01*
X55587Y-39152D01*
X55594Y-39141D01*
X55594Y-39141D01*
X55594Y-39105D01*
X55590Y-39098D01*
X55582Y-39086D01*
X55582Y-39085D01*
X55564Y-39071D01*
X55541Y-39064D01*
X55516Y-39065D01*
X55513Y-39066D01*
X55499Y-39072D01*
X55484Y-39083D01*
X55473Y-39095D01*
X55468Y-39104D01*
X55474Y-39107D01*
X55491Y-39110D01*
X55517Y-39110D01*
X55531Y-39111D01*
X55557Y-39110D01*
X55577Y-39109D01*
X55590Y-39107D01*
X55594Y-39105D01*
X55594Y-39141D01*
X55592Y-39135D01*
X55582Y-39131D01*
X55562Y-39129D01*
X55531Y-39129D01*
X55521Y-39129D01*
X55449Y-39129D01*
X55453Y-39109D01*
X55464Y-39081D01*
X55482Y-39061D01*
X55495Y-39053D01*
X55526Y-39046D01*
X55555Y-39049D01*
X55580Y-39061D01*
X55599Y-39081D01*
X55609Y-39107D01*
X55612Y-39127D01*
X55612Y-39127D01*
X55612Y-39127D01*
G37*
G36*
X55771Y-39059D02*
X55764Y-39065D01*
X55753Y-39068D01*
X55737Y-39070D01*
X55737Y-39125D01*
X55737Y-39151D01*
X55736Y-39168D01*
X55733Y-39179D01*
X55729Y-39186D01*
X55721Y-39192D01*
X55721Y-39193D01*
X55700Y-39202D01*
X55673Y-39204D01*
X55643Y-39199D01*
X55634Y-39195D01*
X55619Y-39187D01*
X55612Y-39180D01*
X55614Y-39177D01*
X55626Y-39177D01*
X55628Y-39178D01*
X55663Y-39184D01*
X55689Y-39185D01*
X55706Y-39182D01*
X55712Y-39177D01*
X55716Y-39170D01*
X55718Y-39159D01*
X55719Y-39140D01*
X55719Y-39122D01*
X55719Y-39069D01*
X55677Y-39069D01*
X55655Y-39068D01*
X55642Y-39066D01*
X55636Y-39063D01*
X55635Y-39060D01*
X55638Y-39055D01*
X55647Y-39052D01*
X55664Y-39051D01*
X55677Y-39051D01*
X55719Y-39051D01*
X55719Y-39027D01*
X55719Y-39003D01*
X55673Y-39002D01*
X55654Y-39001D01*
X55645Y-39001D01*
X55645Y-38999D01*
X55649Y-38999D01*
X55671Y-38996D01*
X55671Y-38949D01*
X55671Y-38902D01*
X55692Y-38902D01*
X55706Y-38903D01*
X55713Y-38906D01*
X55713Y-38906D01*
X55708Y-38910D01*
X55697Y-38911D01*
X55688Y-38911D01*
X55683Y-38914D01*
X55681Y-38923D01*
X55680Y-38939D01*
X55680Y-38953D01*
X55680Y-38994D01*
X55709Y-38996D01*
X55737Y-38998D01*
X55737Y-39024D01*
X55737Y-39041D01*
X55740Y-39049D01*
X55748Y-39051D01*
X55755Y-39051D01*
X55768Y-39053D01*
X55771Y-39059D01*
X55771Y-39059D01*
X55771Y-39059D01*
G37*
G36*
X56124Y-39193D02*
X56115Y-39197D01*
X56098Y-39199D01*
X56095Y-39199D01*
X56075Y-39198D01*
X56066Y-39194D01*
X56067Y-39187D01*
X56074Y-39183D01*
X56079Y-39178D01*
X56081Y-39167D01*
X56082Y-39150D01*
X56082Y-39128D01*
X56080Y-39104D01*
X56079Y-39088D01*
X56075Y-39079D01*
X56070Y-39073D01*
X56064Y-39069D01*
X56051Y-39064D01*
X56042Y-39066D01*
X56039Y-39068D01*
X56034Y-39074D01*
X56031Y-39086D01*
X56030Y-39104D01*
X56029Y-39131D01*
X56029Y-39138D01*
X56029Y-39199D01*
X56011Y-39199D01*
X55997Y-39196D01*
X55993Y-39190D01*
X55998Y-39182D01*
X56002Y-39181D01*
X56007Y-39179D01*
X56010Y-39171D01*
X56011Y-39155D01*
X56011Y-39134D01*
X56011Y-39109D01*
X56009Y-39093D01*
X56005Y-39082D01*
X55999Y-39075D01*
X55987Y-39065D01*
X55977Y-39064D01*
X55967Y-39066D01*
X55963Y-39070D01*
X55960Y-39078D01*
X55958Y-39093D01*
X55958Y-39116D01*
X55958Y-39135D01*
X55958Y-39199D01*
X55940Y-39199D01*
X55926Y-39197D01*
X55919Y-39192D01*
X55920Y-39186D01*
X55927Y-39183D01*
X55937Y-39175D01*
X55940Y-39165D01*
X55939Y-39156D01*
X55937Y-39155D01*
X55930Y-39162D01*
X55924Y-39169D01*
X55898Y-39192D01*
X55868Y-39203D01*
X55835Y-39204D01*
X55810Y-39197D01*
X55793Y-39189D01*
X55782Y-39180D01*
X55779Y-39173D01*
X55780Y-39172D01*
X55788Y-39171D01*
X55802Y-39175D01*
X55808Y-39177D01*
X55841Y-39187D01*
X55869Y-39186D01*
X55893Y-39174D01*
X55902Y-39167D01*
X55915Y-39152D01*
X55922Y-39141D01*
X55922Y-39141D01*
X55922Y-39107D01*
X55916Y-39093D01*
X55903Y-39079D01*
X55884Y-39069D01*
X55864Y-39063D01*
X55859Y-39063D01*
X55839Y-39067D01*
X55820Y-39076D01*
X55805Y-39089D01*
X55797Y-39104D01*
X55796Y-39107D01*
X55802Y-39109D01*
X55817Y-39110D01*
X55839Y-39110D01*
X55859Y-39111D01*
X55885Y-39110D01*
X55905Y-39110D01*
X55919Y-39108D01*
X55922Y-39107D01*
X55922Y-39141D01*
X55920Y-39135D01*
X55910Y-39131D01*
X55890Y-39129D01*
X55859Y-39129D01*
X55850Y-39129D01*
X55820Y-39128D01*
X55800Y-39128D01*
X55788Y-39127D01*
X55781Y-39124D01*
X55779Y-39120D01*
X55779Y-39115D01*
X55784Y-39093D01*
X55799Y-39072D01*
X55820Y-39056D01*
X55845Y-39047D01*
X55859Y-39045D01*
X55886Y-39050D01*
X55910Y-39063D01*
X55927Y-39082D01*
X55928Y-39082D01*
X55940Y-39102D01*
X55940Y-39085D01*
X55944Y-39068D01*
X55956Y-39054D01*
X55971Y-39046D01*
X55986Y-39046D01*
X55999Y-39054D01*
X56012Y-39062D01*
X56024Y-39059D01*
X56030Y-39053D01*
X56041Y-39047D01*
X56056Y-39048D01*
X56074Y-39050D01*
X56095Y-39051D01*
X56099Y-39051D01*
X56116Y-39052D01*
X56124Y-39057D01*
X56123Y-39062D01*
X56113Y-39067D01*
X56107Y-39070D01*
X56104Y-39075D01*
X56102Y-39086D01*
X56101Y-39105D01*
X56101Y-39125D01*
X56101Y-39151D01*
X56102Y-39167D01*
X56104Y-39177D01*
X56108Y-39181D01*
X56113Y-39183D01*
X56124Y-39188D01*
X56124Y-39193D01*
X56124Y-39193D01*
X56124Y-39193D01*
G37*
G36*
X56268Y-39124D02*
X56262Y-39151D01*
X56250Y-39171D01*
X56250Y-39125D01*
X56245Y-39104D01*
X56232Y-39084D01*
X56213Y-39069D01*
X56193Y-39063D01*
X56191Y-39063D01*
X56164Y-39068D01*
X56143Y-39081D01*
X56129Y-39099D01*
X56123Y-39121D01*
X56125Y-39143D01*
X56136Y-39164D01*
X56147Y-39175D01*
X56170Y-39186D01*
X56194Y-39187D01*
X56218Y-39176D01*
X56230Y-39167D01*
X56243Y-39150D01*
X56249Y-39136D01*
X56250Y-39125D01*
X56250Y-39171D01*
X56248Y-39174D01*
X56227Y-39191D01*
X56203Y-39202D01*
X56176Y-39204D01*
X56150Y-39197D01*
X56144Y-39194D01*
X56123Y-39174D01*
X56110Y-39150D01*
X56107Y-39126D01*
X56111Y-39100D01*
X56123Y-39077D01*
X56142Y-39059D01*
X56167Y-39048D01*
X56189Y-39045D01*
X56212Y-39050D01*
X56235Y-39065D01*
X56253Y-39085D01*
X56265Y-39108D01*
X56268Y-39124D01*
X56268Y-39124D01*
X56268Y-39124D01*
G37*
G36*
X56426Y-39190D02*
X56420Y-39193D01*
X56404Y-39195D01*
X56380Y-39197D01*
X56358Y-39198D01*
X56328Y-39198D01*
X56308Y-39198D01*
X56297Y-39196D01*
X56293Y-39193D01*
X56293Y-39192D01*
X56300Y-39187D01*
X56318Y-39183D01*
X56329Y-39182D01*
X56363Y-39181D01*
X56363Y-39143D01*
X56363Y-39122D01*
X56360Y-39109D01*
X56355Y-39099D01*
X56344Y-39089D01*
X56344Y-39089D01*
X56323Y-39073D01*
X56307Y-39066D01*
X56293Y-39066D01*
X56283Y-39071D01*
X56270Y-39076D01*
X56264Y-39074D01*
X56266Y-39065D01*
X56274Y-39056D01*
X56294Y-39048D01*
X56316Y-39051D01*
X56342Y-39065D01*
X56343Y-39066D01*
X56363Y-39081D01*
X56363Y-39066D01*
X56364Y-39057D01*
X56370Y-39052D01*
X56382Y-39051D01*
X56390Y-39051D01*
X56408Y-39052D01*
X56416Y-39056D01*
X56417Y-39060D01*
X56412Y-39067D01*
X56399Y-39069D01*
X56381Y-39069D01*
X56381Y-39125D01*
X56381Y-39180D01*
X56403Y-39182D01*
X56418Y-39185D01*
X56426Y-39189D01*
X56426Y-39190D01*
X56426Y-39190D01*
X56426Y-39190D01*
G37*
G36*
X57203Y-38946D02*
X57201Y-38955D01*
X57196Y-38971D01*
X57188Y-38994D01*
X57179Y-39020D01*
X57169Y-39047D01*
X57160Y-39073D01*
X57156Y-39084D01*
X57148Y-39094D01*
X57133Y-39105D01*
X57128Y-39107D01*
X57113Y-39116D01*
X57091Y-39129D01*
X57067Y-39143D01*
X57056Y-39150D01*
X57033Y-39164D01*
X57012Y-39176D01*
X56996Y-39185D01*
X56991Y-39187D01*
X56978Y-39190D01*
X56957Y-39192D01*
X56933Y-39192D01*
X56909Y-39192D01*
X56890Y-39190D01*
X56887Y-39190D01*
X56876Y-39188D01*
X56858Y-39185D01*
X56851Y-39184D01*
X56825Y-39181D01*
X56818Y-39140D01*
X56813Y-39113D01*
X56811Y-39093D01*
X56813Y-39077D01*
X56818Y-39062D01*
X56829Y-39046D01*
X56844Y-39026D01*
X56866Y-39002D01*
X56894Y-38972D01*
X56918Y-38949D01*
X56935Y-38935D01*
X56942Y-38932D01*
X56956Y-38927D01*
X56977Y-38920D01*
X57004Y-38911D01*
X57027Y-38904D01*
X57093Y-38883D01*
X57148Y-38911D01*
X57171Y-38923D01*
X57189Y-38934D01*
X57201Y-38943D01*
X57203Y-38946D01*
X57203Y-38946D01*
X57203Y-38946D01*
G37*
G36*
X55389Y-38950D02*
X55388Y-38958D01*
X55379Y-38979D01*
X55379Y-38935D01*
X55379Y-38935D01*
X55374Y-38925D01*
X55361Y-38916D01*
X55344Y-38909D01*
X55331Y-38908D01*
X55315Y-38912D01*
X55300Y-38921D01*
X55291Y-38933D01*
X55289Y-38939D01*
X55293Y-38943D01*
X55305Y-38945D01*
X55327Y-38945D01*
X55334Y-38945D01*
X55359Y-38943D01*
X55374Y-38940D01*
X55379Y-38935D01*
X55379Y-38979D01*
X55378Y-38982D01*
X55360Y-38998D01*
X55336Y-39006D01*
X55308Y-39004D01*
X55303Y-39003D01*
X55290Y-38997D01*
X55284Y-38991D01*
X55284Y-38991D01*
X55288Y-38988D01*
X55295Y-38991D01*
X55316Y-38997D01*
X55339Y-38996D01*
X55359Y-38989D01*
X55366Y-38983D01*
X55376Y-38971D01*
X55378Y-38963D01*
X55371Y-38958D01*
X55354Y-38956D01*
X55332Y-38955D01*
X55309Y-38955D01*
X55291Y-38953D01*
X55282Y-38951D01*
X55281Y-38950D01*
X55282Y-38942D01*
X55288Y-38930D01*
X55291Y-38925D01*
X55302Y-38912D01*
X55314Y-38906D01*
X55332Y-38903D01*
X55350Y-38903D01*
X55362Y-38907D01*
X55373Y-38918D01*
X55376Y-38921D01*
X55386Y-38936D01*
X55389Y-38950D01*
X55389Y-38950D01*
X55389Y-38950D01*
G37*
G36*
X55616Y-38960D02*
X55607Y-38977D01*
X55607Y-38948D01*
X55605Y-38938D01*
X55593Y-38920D01*
X55576Y-38911D01*
X55557Y-38909D01*
X55539Y-38914D01*
X55525Y-38926D01*
X55517Y-38945D01*
X55516Y-38953D01*
X55521Y-38974D01*
X55535Y-38989D01*
X55555Y-38997D01*
X55578Y-38996D01*
X55585Y-38993D01*
X55596Y-38983D01*
X55604Y-38967D01*
X55607Y-38948D01*
X55607Y-38977D01*
X55606Y-38979D01*
X55597Y-38989D01*
X55584Y-39001D01*
X55575Y-39008D01*
X55572Y-39008D01*
X55563Y-39007D01*
X55552Y-39005D01*
X55531Y-38996D01*
X55517Y-38979D01*
X55510Y-38958D01*
X55513Y-38936D01*
X55522Y-38918D01*
X55534Y-38907D01*
X55548Y-38902D01*
X55561Y-38902D01*
X55580Y-38903D01*
X55592Y-38910D01*
X55602Y-38920D01*
X55615Y-38941D01*
X55616Y-38960D01*
X55616Y-38960D01*
X55616Y-38960D01*
G37*
G36*
X55959Y-38972D02*
X55958Y-38983D01*
X55956Y-38988D01*
X55950Y-38996D01*
X55950Y-38982D01*
X55949Y-38967D01*
X55940Y-38958D01*
X55921Y-38953D01*
X55909Y-38953D01*
X55890Y-38953D01*
X55880Y-38956D01*
X55876Y-38962D01*
X55875Y-38964D01*
X55878Y-38977D01*
X55890Y-38988D01*
X55908Y-38995D01*
X55925Y-38996D01*
X55941Y-38993D01*
X55949Y-38988D01*
X55950Y-38982D01*
X55950Y-38996D01*
X55946Y-39000D01*
X55932Y-39008D01*
X55922Y-39008D01*
X55914Y-39007D01*
X55907Y-39005D01*
X55893Y-38999D01*
X55886Y-38995D01*
X55879Y-38991D01*
X55876Y-38996D01*
X55868Y-39001D01*
X55860Y-39003D01*
X55852Y-39001D01*
X55856Y-39000D01*
X55858Y-38999D01*
X55864Y-38995D01*
X55867Y-38987D01*
X55868Y-38970D01*
X55868Y-38959D01*
X55870Y-38931D01*
X55876Y-38913D01*
X55888Y-38904D01*
X55907Y-38901D01*
X55922Y-38902D01*
X55936Y-38905D01*
X55942Y-38908D01*
X55941Y-38911D01*
X55929Y-38911D01*
X55919Y-38910D01*
X55901Y-38908D01*
X55890Y-38910D01*
X55883Y-38916D01*
X55882Y-38917D01*
X55875Y-38930D01*
X55876Y-38938D01*
X55888Y-38943D01*
X55906Y-38944D01*
X55927Y-38944D01*
X55939Y-38948D01*
X55948Y-38956D01*
X55951Y-38959D01*
X55959Y-38972D01*
X55959Y-38972D01*
X55959Y-38972D01*
G37*
G36*
X56185Y-38955D02*
X56181Y-38975D01*
X56169Y-38992D01*
X56150Y-39003D01*
X56139Y-39006D01*
X56121Y-39006D01*
X56103Y-39001D01*
X56089Y-38993D01*
X56080Y-38986D01*
X56080Y-38986D01*
X56079Y-38980D01*
X56085Y-38981D01*
X56097Y-38988D01*
X56097Y-38989D01*
X56116Y-38996D01*
X56138Y-38996D01*
X56159Y-38989D01*
X56165Y-38983D01*
X56176Y-38964D01*
X56176Y-38943D01*
X56166Y-38923D01*
X56149Y-38911D01*
X56129Y-38908D01*
X56109Y-38913D01*
X56101Y-38920D01*
X56090Y-38930D01*
X56084Y-38930D01*
X56083Y-38920D01*
X56083Y-38916D01*
X56084Y-38906D01*
X56088Y-38905D01*
X56091Y-38907D01*
X56100Y-38911D01*
X56104Y-38908D01*
X56111Y-38904D01*
X56126Y-38902D01*
X56131Y-38902D01*
X56155Y-38906D01*
X56172Y-38919D01*
X56182Y-38936D01*
X56185Y-38955D01*
X56185Y-38955D01*
X56185Y-38955D01*
G37*
G36*
X56303Y-38948D02*
X56302Y-38957D01*
X56295Y-38980D01*
X56294Y-38981D01*
X56294Y-38952D01*
X56289Y-38931D01*
X56276Y-38916D01*
X56259Y-38908D01*
X56239Y-38909D01*
X56220Y-38920D01*
X56217Y-38922D01*
X56204Y-38941D01*
X56204Y-38962D01*
X56215Y-38982D01*
X56231Y-38994D01*
X56251Y-38998D01*
X56271Y-38994D01*
X56283Y-38985D01*
X56291Y-38969D01*
X56294Y-38952D01*
X56294Y-38981D01*
X56280Y-38996D01*
X56265Y-39003D01*
X56251Y-39008D01*
X56241Y-39008D01*
X56228Y-39003D01*
X56228Y-39003D01*
X56211Y-38990D01*
X56199Y-38970D01*
X56196Y-38951D01*
X56201Y-38929D01*
X56215Y-38913D01*
X56233Y-38903D01*
X56254Y-38901D01*
X56276Y-38907D01*
X56289Y-38918D01*
X56300Y-38933D01*
X56303Y-38948D01*
X56303Y-38948D01*
X56303Y-38948D01*
G37*
G36*
X56411Y-38986D02*
X56407Y-38998D01*
X56400Y-39002D01*
X56388Y-39003D01*
X56370Y-39006D01*
X56368Y-39006D01*
X56350Y-39006D01*
X56335Y-39000D01*
X56330Y-38996D01*
X56319Y-38981D01*
X56319Y-38967D01*
X56329Y-38955D01*
X56346Y-38947D01*
X56369Y-38944D01*
X56385Y-38940D01*
X56395Y-38932D01*
X56396Y-38921D01*
X56393Y-38917D01*
X56380Y-38909D01*
X56362Y-38908D01*
X56344Y-38913D01*
X56334Y-38921D01*
X56322Y-38934D01*
X56322Y-38919D01*
X56322Y-38911D01*
X56326Y-38906D01*
X56336Y-38905D01*
X56355Y-38904D01*
X56358Y-38904D01*
X56380Y-38906D01*
X56394Y-38909D01*
X56401Y-38915D01*
X56401Y-38915D01*
X56405Y-38929D01*
X56396Y-38940D01*
X56377Y-38949D01*
X56364Y-38953D01*
X56343Y-38958D01*
X56332Y-38963D01*
X56328Y-38969D01*
X56329Y-38979D01*
X56330Y-38982D01*
X56333Y-38991D01*
X56340Y-38996D01*
X56354Y-38997D01*
X56363Y-38997D01*
X56383Y-38996D01*
X56395Y-38992D01*
X56402Y-38984D01*
X56411Y-38971D01*
X56411Y-38986D01*
X56411Y-38986D01*
X56411Y-38986D01*
G37*
G36*
X56524Y-38987D02*
X56523Y-38998D01*
X56519Y-39001D01*
X56511Y-39000D01*
X56496Y-39002D01*
X56493Y-39003D01*
X56466Y-39003D01*
X56453Y-39000D01*
X56439Y-38991D01*
X56435Y-38979D01*
X56435Y-38977D01*
X56438Y-38963D01*
X56449Y-38953D01*
X56469Y-38947D01*
X56475Y-38946D01*
X56497Y-38941D01*
X56509Y-38935D01*
X56511Y-38927D01*
X56509Y-38921D01*
X56497Y-38913D01*
X56480Y-38909D01*
X56463Y-38910D01*
X56451Y-38916D01*
X56441Y-38925D01*
X56437Y-38923D01*
X56437Y-38917D01*
X56442Y-38911D01*
X56455Y-38906D01*
X56473Y-38902D01*
X56490Y-38902D01*
X56498Y-38903D01*
X56511Y-38910D01*
X56517Y-38922D01*
X56515Y-38935D01*
X56505Y-38945D01*
X56494Y-38948D01*
X56465Y-38954D01*
X56447Y-38964D01*
X56441Y-38976D01*
X56441Y-38976D01*
X56444Y-38988D01*
X56454Y-38994D01*
X56473Y-38997D01*
X56483Y-38997D01*
X56501Y-38995D01*
X56513Y-38986D01*
X56515Y-38984D01*
X56524Y-38971D01*
X56524Y-38987D01*
X56524Y-38987D01*
X56524Y-38987D01*
G37*
G36*
X56649Y-38977D02*
X56645Y-38991D01*
X56639Y-38995D01*
X56639Y-38972D01*
X56631Y-38960D01*
X56615Y-38952D01*
X56593Y-38950D01*
X56573Y-38951D01*
X56563Y-38957D01*
X56562Y-38968D01*
X56563Y-38973D01*
X56572Y-38985D01*
X56588Y-38993D01*
X56606Y-38997D01*
X56624Y-38995D01*
X56636Y-38988D01*
X56638Y-38986D01*
X56639Y-38972D01*
X56639Y-38995D01*
X56631Y-39001D01*
X56613Y-39005D01*
X56592Y-39003D01*
X56585Y-39000D01*
X56573Y-38996D01*
X56566Y-38997D01*
X56566Y-38998D01*
X56561Y-39001D01*
X56550Y-39003D01*
X56541Y-39001D01*
X56543Y-38999D01*
X56544Y-38999D01*
X56550Y-38995D01*
X56553Y-38987D01*
X56554Y-38970D01*
X56554Y-38959D01*
X56555Y-38932D01*
X56560Y-38916D01*
X56563Y-38911D01*
X56576Y-38905D01*
X56595Y-38902D01*
X56614Y-38903D01*
X56625Y-38907D01*
X56625Y-38910D01*
X56615Y-38910D01*
X56605Y-38909D01*
X56586Y-38908D01*
X56575Y-38911D01*
X56568Y-38917D01*
X56561Y-38929D01*
X56562Y-38937D01*
X56573Y-38942D01*
X56595Y-38945D01*
X56596Y-38945D01*
X56624Y-38950D01*
X56642Y-38960D01*
X56649Y-38975D01*
X56649Y-38977D01*
X56649Y-38977D01*
X56649Y-38977D01*
G37*
G36*
X55503Y-38903D02*
X55501Y-38906D01*
X55497Y-38908D01*
X55490Y-38918D01*
X55486Y-38935D01*
X55485Y-38956D01*
X55487Y-38976D01*
X55492Y-38991D01*
X55497Y-38997D01*
X55501Y-39001D01*
X55496Y-39002D01*
X55483Y-39002D01*
X55471Y-39001D01*
X55468Y-39000D01*
X55470Y-38999D01*
X55476Y-38995D01*
X55479Y-38986D01*
X55480Y-38968D01*
X55480Y-38961D01*
X55480Y-38940D01*
X55477Y-38928D01*
X55470Y-38919D01*
X55467Y-38917D01*
X55449Y-38909D01*
X55432Y-38909D01*
X55421Y-38916D01*
X55417Y-38927D01*
X55414Y-38945D01*
X55414Y-38965D01*
X55416Y-38983D01*
X55419Y-38996D01*
X55421Y-38998D01*
X55423Y-39001D01*
X55413Y-39003D01*
X55409Y-39003D01*
X55397Y-39002D01*
X55394Y-39000D01*
X55395Y-38999D01*
X55400Y-38991D01*
X55403Y-38973D01*
X55403Y-38962D01*
X55405Y-38933D01*
X55413Y-38914D01*
X55427Y-38904D01*
X55441Y-38902D01*
X55457Y-38904D01*
X55468Y-38909D01*
X55475Y-38914D01*
X55479Y-38909D01*
X55486Y-38903D01*
X55494Y-38902D01*
X55503Y-38903D01*
X55503Y-38903D01*
X55503Y-38903D01*
G37*
G36*
X55832Y-38998D02*
X55827Y-39001D01*
X55813Y-39003D01*
X55795Y-39003D01*
X55776Y-39003D01*
X55759Y-39000D01*
X55749Y-38997D01*
X55747Y-38995D01*
X55747Y-38984D01*
X55749Y-38979D01*
X55753Y-38975D01*
X55755Y-38982D01*
X55755Y-38984D01*
X55756Y-38992D01*
X55761Y-38996D01*
X55773Y-38997D01*
X55788Y-38997D01*
X55806Y-38997D01*
X55817Y-38995D01*
X55820Y-38994D01*
X55817Y-38988D01*
X55807Y-38975D01*
X55792Y-38959D01*
X55785Y-38950D01*
X55769Y-38931D01*
X55757Y-38916D01*
X55750Y-38907D01*
X55749Y-38906D01*
X55754Y-38904D01*
X55769Y-38902D01*
X55789Y-38902D01*
X55791Y-38902D01*
X55812Y-38902D01*
X55825Y-38903D01*
X55830Y-38906D01*
X55832Y-38913D01*
X55832Y-38918D01*
X55831Y-38929D01*
X55830Y-38929D01*
X55826Y-38921D01*
X55821Y-38913D01*
X55811Y-38909D01*
X55794Y-38908D01*
X55778Y-38909D01*
X55768Y-38912D01*
X55767Y-38914D01*
X55770Y-38920D01*
X55780Y-38933D01*
X55795Y-38950D01*
X55800Y-38956D01*
X55815Y-38974D01*
X55826Y-38988D01*
X55832Y-38997D01*
X55832Y-38998D01*
X55832Y-38998D01*
X55832Y-38998D01*
G37*
G36*
X56056Y-38904D02*
X56048Y-38906D01*
X56044Y-38907D01*
X56035Y-38909D01*
X56029Y-38914D01*
X56026Y-38923D01*
X56025Y-38940D01*
X56024Y-38954D01*
X56023Y-38996D01*
X56045Y-38999D01*
X56050Y-39000D01*
X56044Y-39001D01*
X56029Y-39001D01*
X56017Y-39001D01*
X55995Y-39001D01*
X55984Y-39000D01*
X55985Y-38999D01*
X55990Y-38998D01*
X56014Y-38994D01*
X56016Y-38948D01*
X56018Y-38902D01*
X56040Y-38902D01*
X56054Y-38903D01*
X56056Y-38904D01*
X56056Y-38904D01*
X56056Y-38904D01*
G37*
G36*
X55683Y-38863D02*
X55680Y-38871D01*
X55677Y-38872D01*
X55672Y-38867D01*
X55671Y-38863D01*
X55674Y-38855D01*
X55677Y-38854D01*
X55682Y-38859D01*
X55683Y-38863D01*
X55683Y-38863D01*
X55683Y-38863D01*
G37*
G36*
X56029Y-38863D02*
X56026Y-38871D01*
X56023Y-38872D01*
X56018Y-38867D01*
X56017Y-38863D01*
X56020Y-38855D01*
X56023Y-38854D01*
X56028Y-38859D01*
X56029Y-38863D01*
X56029Y-38863D01*
X56029Y-38863D01*
G37*
G54D10*
X54711Y-43902D02*
X54701Y-43999D01*
X54673Y-44092D01*
X54627Y-44179D01*
X54565Y-44255D01*
X54490Y-44317D01*
X54404Y-44363D01*
X54310Y-44392D01*
X54213Y-44402D01*
X54117Y-44394D01*
X54023Y-44366D01*
X53936Y-44321D01*
X53860Y-44259D01*
X53797Y-44185D01*
X53750Y-44099D01*
X53720Y-44006D01*
X53710Y-43908D01*
X53718Y-43812D01*
X53745Y-43718D01*
X53789Y-43631D01*
X53850Y-43554D01*
X53925Y-43491D01*
X54010Y-43443D01*
X54103Y-43413D01*
X54200Y-43402D01*
X54296Y-43409D01*
X54391Y-43435D01*
X54478Y-43479D01*
X54555Y-43540D01*
X54619Y-43614D01*
X54667Y-43699D01*
X54698Y-43792D01*
X54710Y-43889D01*
X54711Y-43902D01*
G54D12*
X62127Y-40351D02*
X62210Y-40232D01*
X62269Y-40351D02*
X62269Y-40101D01*
X62174Y-40101D01*
X62150Y-40113D01*
X62139Y-40125D01*
X62127Y-40149D01*
X62127Y-40185D01*
X62139Y-40208D01*
X62150Y-40220D01*
X62174Y-40232D01*
X62269Y-40232D01*
X61889Y-40351D02*
X62031Y-40351D01*
X61960Y-40351D02*
X61960Y-40101D01*
X61984Y-40137D01*
X62008Y-40161D01*
X62031Y-40173D01*
X64227Y-40486D02*
X64310Y-40367D01*
X64369Y-40486D02*
X64369Y-40236D01*
X64274Y-40236D01*
X64250Y-40248D01*
X64239Y-40260D01*
X64227Y-40284D01*
X64227Y-40320D01*
X64239Y-40343D01*
X64250Y-40355D01*
X64274Y-40367D01*
X64369Y-40367D01*
X64131Y-40260D02*
X64119Y-40248D01*
X64096Y-40236D01*
X64036Y-40236D01*
X64012Y-40248D01*
X64000Y-40260D01*
X63989Y-40284D01*
X63989Y-40308D01*
X64000Y-40343D01*
X64143Y-40486D01*
X63989Y-40486D01*
M02*
