G04 (created by PCBNEW-RS274X (2012-jan-04)-stable) date Fri 25 Jan 2013 16:17:33 CET*
G01*
G70*
G90*
%MOIN*%
G04 Gerber Fmt 3.4, Leading zero omitted, Abs format*
%FSLAX34Y34*%
G04 APERTURE LIST*
%ADD10C,0.006000*%
%ADD11C,0.012000*%
%ADD12C,0.005200*%
%ADD13C,0.015000*%
%ADD14C,0.005000*%
%ADD15C,0.008000*%
%ADD16C,0.003000*%
%ADD17C,0.010000*%
%ADD18C,0.000100*%
%ADD19C,0.003500*%
%ADD20C,0.004700*%
G04 APERTURE END LIST*
G54D10*
G54D11*
X65643Y-44797D02*
X65986Y-44797D01*
X65815Y-45507D02*
X65815Y-44797D01*
X66129Y-44797D02*
X66529Y-45507D01*
X66529Y-44797D02*
X66129Y-45507D01*
X65921Y-44487D02*
X65721Y-44149D01*
X65578Y-44487D02*
X65578Y-43777D01*
X65806Y-43777D01*
X65864Y-43811D01*
X65892Y-43845D01*
X65921Y-43913D01*
X65921Y-44014D01*
X65892Y-44082D01*
X65864Y-44115D01*
X65806Y-44149D01*
X65578Y-44149D01*
X66121Y-43777D02*
X66521Y-44487D01*
X66521Y-43777D02*
X66121Y-44487D01*
X65375Y-43571D02*
X65375Y-42850D01*
X65518Y-42850D01*
X65603Y-42885D01*
X65661Y-42953D01*
X65689Y-43022D01*
X65718Y-43159D01*
X65718Y-43262D01*
X65689Y-43400D01*
X65661Y-43468D01*
X65603Y-43537D01*
X65518Y-43571D01*
X65375Y-43571D01*
X65889Y-42850D02*
X66232Y-42850D01*
X66061Y-43571D02*
X66061Y-42850D01*
X66775Y-43571D02*
X66575Y-43228D01*
X66432Y-43571D02*
X66432Y-42850D01*
X66660Y-42850D01*
X66718Y-42885D01*
X66746Y-42919D01*
X66775Y-42988D01*
X66775Y-43091D01*
X66746Y-43159D01*
X66718Y-43194D01*
X66660Y-43228D01*
X66432Y-43228D01*
X65672Y-42460D02*
X65643Y-42494D01*
X65557Y-42527D01*
X65500Y-42527D01*
X65415Y-42494D01*
X65357Y-42426D01*
X65329Y-42358D01*
X65300Y-42223D01*
X65300Y-42122D01*
X65329Y-41986D01*
X65357Y-41919D01*
X65415Y-41851D01*
X65500Y-41817D01*
X65557Y-41817D01*
X65643Y-41851D01*
X65672Y-41885D01*
X65900Y-42494D02*
X65986Y-42527D01*
X66129Y-42527D01*
X66186Y-42494D01*
X66215Y-42460D01*
X66243Y-42392D01*
X66243Y-42325D01*
X66215Y-42257D01*
X66186Y-42223D01*
X66129Y-42189D01*
X66015Y-42155D01*
X65957Y-42122D01*
X65929Y-42088D01*
X65900Y-42020D01*
X65900Y-41953D01*
X65929Y-41885D01*
X65957Y-41851D01*
X66015Y-41817D01*
X66157Y-41817D01*
X66243Y-41851D01*
X66414Y-41817D02*
X66757Y-41817D01*
X66586Y-42527D02*
X66586Y-41817D01*
X65692Y-41567D02*
X65492Y-41229D01*
X65349Y-41567D02*
X65349Y-40857D01*
X65577Y-40857D01*
X65635Y-40891D01*
X65663Y-40925D01*
X65692Y-40993D01*
X65692Y-41094D01*
X65663Y-41162D01*
X65635Y-41195D01*
X65577Y-41229D01*
X65349Y-41229D01*
X65920Y-41534D02*
X66006Y-41567D01*
X66149Y-41567D01*
X66206Y-41534D01*
X66235Y-41500D01*
X66263Y-41432D01*
X66263Y-41365D01*
X66235Y-41297D01*
X66206Y-41263D01*
X66149Y-41229D01*
X66035Y-41195D01*
X65977Y-41162D01*
X65949Y-41128D01*
X65920Y-41060D01*
X65920Y-40993D01*
X65949Y-40925D01*
X65977Y-40891D01*
X66035Y-40857D01*
X66177Y-40857D01*
X66263Y-40891D01*
X66434Y-40857D02*
X66777Y-40857D01*
X66606Y-41567D02*
X66606Y-40857D01*
X65220Y-39857D02*
X65420Y-40567D01*
X65620Y-39857D01*
X66163Y-40500D02*
X66134Y-40534D01*
X66048Y-40567D01*
X65991Y-40567D01*
X65906Y-40534D01*
X65848Y-40466D01*
X65820Y-40398D01*
X65791Y-40263D01*
X65791Y-40162D01*
X65820Y-40026D01*
X65848Y-39959D01*
X65906Y-39891D01*
X65991Y-39857D01*
X66048Y-39857D01*
X66134Y-39891D01*
X66163Y-39925D01*
X66763Y-40500D02*
X66734Y-40534D01*
X66648Y-40567D01*
X66591Y-40567D01*
X66506Y-40534D01*
X66448Y-40466D01*
X66420Y-40398D01*
X66391Y-40263D01*
X66391Y-40162D01*
X66420Y-40026D01*
X66448Y-39959D01*
X66506Y-39891D01*
X66591Y-39857D01*
X66648Y-39857D01*
X66734Y-39891D01*
X66763Y-39925D01*
X65463Y-38865D02*
X65406Y-38830D01*
X65320Y-38830D01*
X65235Y-38865D01*
X65177Y-38933D01*
X65149Y-39002D01*
X65120Y-39139D01*
X65120Y-39242D01*
X65149Y-39380D01*
X65177Y-39448D01*
X65235Y-39517D01*
X65320Y-39551D01*
X65377Y-39551D01*
X65463Y-39517D01*
X65492Y-39483D01*
X65492Y-39242D01*
X65377Y-39242D01*
X65749Y-39551D02*
X65749Y-38830D01*
X66092Y-39551D01*
X66092Y-38830D01*
X66378Y-39551D02*
X66378Y-38830D01*
X66521Y-38830D01*
X66606Y-38865D01*
X66664Y-38933D01*
X66692Y-39002D01*
X66721Y-39139D01*
X66721Y-39242D01*
X66692Y-39380D01*
X66664Y-39448D01*
X66606Y-39517D01*
X66521Y-39551D01*
X66378Y-39551D01*
G54D12*
X54728Y-38168D02*
X54826Y-38168D01*
X54709Y-38284D02*
X54777Y-37878D01*
X54846Y-38284D01*
X54905Y-38265D02*
X54925Y-38284D01*
X54964Y-38284D01*
X54984Y-38265D01*
X54994Y-38226D01*
X54994Y-38207D01*
X54984Y-38168D01*
X54964Y-38149D01*
X54935Y-38149D01*
X54915Y-38130D01*
X54905Y-38091D01*
X54905Y-38072D01*
X54915Y-38033D01*
X54935Y-38014D01*
X54964Y-38014D01*
X54984Y-38033D01*
X55072Y-38265D02*
X55092Y-38284D01*
X55131Y-38284D01*
X55151Y-38265D01*
X55161Y-38226D01*
X55161Y-38207D01*
X55151Y-38168D01*
X55131Y-38149D01*
X55102Y-38149D01*
X55082Y-38130D01*
X55072Y-38091D01*
X55072Y-38072D01*
X55082Y-38033D01*
X55102Y-38014D01*
X55131Y-38014D01*
X55151Y-38033D01*
X55278Y-38284D02*
X55259Y-38265D01*
X55249Y-38246D01*
X55239Y-38207D01*
X55239Y-38091D01*
X55249Y-38052D01*
X55259Y-38033D01*
X55278Y-38014D01*
X55308Y-38014D01*
X55328Y-38033D01*
X55337Y-38052D01*
X55347Y-38091D01*
X55347Y-38207D01*
X55337Y-38246D01*
X55328Y-38265D01*
X55308Y-38284D01*
X55278Y-38284D01*
X55523Y-38265D02*
X55504Y-38284D01*
X55464Y-38284D01*
X55445Y-38265D01*
X55435Y-38246D01*
X55425Y-38207D01*
X55425Y-38091D01*
X55435Y-38052D01*
X55445Y-38033D01*
X55464Y-38014D01*
X55504Y-38014D01*
X55523Y-38033D01*
X55612Y-38284D02*
X55612Y-38014D01*
X55612Y-37878D02*
X55602Y-37898D01*
X55612Y-37917D01*
X55622Y-37898D01*
X55612Y-37878D01*
X55612Y-37917D01*
X55798Y-38284D02*
X55798Y-38072D01*
X55789Y-38033D01*
X55769Y-38014D01*
X55730Y-38014D01*
X55710Y-38033D01*
X55798Y-38265D02*
X55779Y-38284D01*
X55730Y-38284D01*
X55710Y-38265D01*
X55700Y-38226D01*
X55700Y-38188D01*
X55710Y-38149D01*
X55730Y-38130D01*
X55779Y-38130D01*
X55798Y-38110D01*
X55876Y-38014D02*
X55984Y-38014D01*
X55876Y-38284D01*
X55984Y-38284D01*
X56063Y-38284D02*
X56063Y-38014D01*
X56063Y-37878D02*
X56053Y-37898D01*
X56063Y-37917D01*
X56073Y-37898D01*
X56063Y-37878D01*
X56063Y-37917D01*
X56190Y-38284D02*
X56171Y-38265D01*
X56161Y-38246D01*
X56151Y-38207D01*
X56151Y-38091D01*
X56161Y-38052D01*
X56171Y-38033D01*
X56190Y-38014D01*
X56220Y-38014D01*
X56240Y-38033D01*
X56249Y-38052D01*
X56259Y-38091D01*
X56259Y-38207D01*
X56249Y-38246D01*
X56240Y-38265D01*
X56220Y-38284D01*
X56190Y-38284D01*
X56347Y-38014D02*
X56347Y-38284D01*
X56347Y-38052D02*
X56357Y-38033D01*
X56376Y-38014D01*
X56406Y-38014D01*
X56426Y-38033D01*
X56435Y-38072D01*
X56435Y-38284D01*
X56612Y-38265D02*
X56592Y-38284D01*
X56553Y-38284D01*
X56533Y-38265D01*
X56523Y-38226D01*
X56523Y-38072D01*
X56533Y-38033D01*
X56553Y-38014D01*
X56592Y-38014D01*
X56612Y-38033D01*
X56621Y-38072D01*
X56621Y-38110D01*
X56523Y-38149D01*
X56867Y-38284D02*
X56867Y-37878D01*
X56946Y-37878D01*
X56965Y-37898D01*
X56975Y-37917D01*
X56985Y-37956D01*
X56985Y-38014D01*
X56975Y-38052D01*
X56965Y-38072D01*
X56946Y-38091D01*
X56867Y-38091D01*
X57073Y-38284D02*
X57073Y-38014D01*
X57073Y-38091D02*
X57083Y-38052D01*
X57093Y-38033D01*
X57112Y-38014D01*
X57132Y-38014D01*
X57230Y-38284D02*
X57211Y-38265D01*
X57201Y-38246D01*
X57191Y-38207D01*
X57191Y-38091D01*
X57201Y-38052D01*
X57211Y-38033D01*
X57230Y-38014D01*
X57260Y-38014D01*
X57280Y-38033D01*
X57289Y-38052D01*
X57299Y-38091D01*
X57299Y-38207D01*
X57289Y-38246D01*
X57280Y-38265D01*
X57260Y-38284D01*
X57230Y-38284D01*
X57387Y-38284D02*
X57387Y-38014D01*
X57387Y-38052D02*
X57397Y-38033D01*
X57416Y-38014D01*
X57446Y-38014D01*
X57466Y-38033D01*
X57475Y-38072D01*
X57475Y-38284D01*
X57475Y-38072D02*
X57485Y-38033D01*
X57505Y-38014D01*
X57534Y-38014D01*
X57554Y-38033D01*
X57564Y-38072D01*
X57564Y-38284D01*
X57741Y-38265D02*
X57721Y-38284D01*
X57682Y-38284D01*
X57662Y-38265D01*
X57652Y-38226D01*
X57652Y-38072D01*
X57662Y-38033D01*
X57682Y-38014D01*
X57721Y-38014D01*
X57741Y-38033D01*
X57750Y-38072D01*
X57750Y-38110D01*
X57652Y-38149D01*
X57810Y-38014D02*
X57888Y-38014D01*
X57839Y-37878D02*
X57839Y-38226D01*
X57849Y-38265D01*
X57868Y-38284D01*
X57888Y-38284D01*
X58036Y-38265D02*
X58016Y-38284D01*
X57977Y-38284D01*
X57957Y-38265D01*
X57947Y-38226D01*
X57947Y-38072D01*
X57957Y-38033D01*
X57977Y-38014D01*
X58016Y-38014D01*
X58036Y-38033D01*
X58045Y-38072D01*
X58045Y-38110D01*
X57947Y-38149D01*
X58163Y-38284D02*
X58144Y-38265D01*
X58134Y-38246D01*
X58124Y-38207D01*
X58124Y-38091D01*
X58134Y-38052D01*
X58144Y-38033D01*
X58163Y-38014D01*
X58193Y-38014D01*
X58213Y-38033D01*
X58222Y-38052D01*
X58232Y-38091D01*
X58232Y-38207D01*
X58222Y-38246D01*
X58213Y-38265D01*
X58193Y-38284D01*
X58163Y-38284D01*
X54999Y-38634D02*
X55039Y-38904D01*
X55078Y-38711D01*
X55117Y-38904D01*
X55156Y-38634D01*
X55215Y-38634D02*
X55255Y-38904D01*
X55294Y-38711D01*
X55333Y-38904D01*
X55372Y-38634D01*
X55431Y-38634D02*
X55471Y-38904D01*
X55510Y-38711D01*
X55549Y-38904D01*
X55588Y-38634D01*
X55667Y-38866D02*
X55677Y-38885D01*
X55667Y-38904D01*
X55657Y-38885D01*
X55667Y-38866D01*
X55667Y-38904D01*
X55794Y-38904D02*
X55775Y-38885D01*
X55765Y-38866D01*
X55755Y-38827D01*
X55755Y-38711D01*
X55765Y-38672D01*
X55775Y-38653D01*
X55794Y-38634D01*
X55824Y-38634D01*
X55844Y-38653D01*
X55853Y-38672D01*
X55863Y-38711D01*
X55863Y-38827D01*
X55853Y-38866D01*
X55844Y-38885D01*
X55824Y-38904D01*
X55794Y-38904D01*
X55951Y-38634D02*
X55951Y-39040D01*
X55951Y-38653D02*
X55971Y-38634D01*
X56010Y-38634D01*
X56030Y-38653D01*
X56039Y-38672D01*
X56049Y-38711D01*
X56049Y-38827D01*
X56039Y-38866D01*
X56030Y-38885D01*
X56010Y-38904D01*
X55971Y-38904D01*
X55951Y-38885D01*
X56216Y-38885D02*
X56196Y-38904D01*
X56157Y-38904D01*
X56137Y-38885D01*
X56127Y-38846D01*
X56127Y-38692D01*
X56137Y-38653D01*
X56157Y-38634D01*
X56196Y-38634D01*
X56216Y-38653D01*
X56225Y-38692D01*
X56225Y-38730D01*
X56127Y-38769D01*
X56314Y-38634D02*
X56314Y-38904D01*
X56314Y-38672D02*
X56324Y-38653D01*
X56343Y-38634D01*
X56373Y-38634D01*
X56393Y-38653D01*
X56402Y-38692D01*
X56402Y-38904D01*
X56529Y-38904D02*
X56510Y-38885D01*
X56500Y-38846D01*
X56500Y-38498D01*
X56696Y-38904D02*
X56696Y-38692D01*
X56687Y-38653D01*
X56667Y-38634D01*
X56628Y-38634D01*
X56608Y-38653D01*
X56696Y-38885D02*
X56677Y-38904D01*
X56628Y-38904D01*
X56608Y-38885D01*
X56598Y-38846D01*
X56598Y-38808D01*
X56608Y-38769D01*
X56628Y-38750D01*
X56677Y-38750D01*
X56696Y-38730D01*
X56794Y-38904D02*
X56794Y-38498D01*
X56794Y-38653D02*
X56814Y-38634D01*
X56853Y-38634D01*
X56873Y-38653D01*
X56882Y-38672D01*
X56892Y-38711D01*
X56892Y-38827D01*
X56882Y-38866D01*
X56873Y-38885D01*
X56853Y-38904D01*
X56814Y-38904D01*
X56794Y-38885D01*
X56951Y-38634D02*
X57029Y-38634D01*
X56980Y-38498D02*
X56980Y-38846D01*
X56990Y-38885D01*
X57009Y-38904D01*
X57029Y-38904D01*
X57127Y-38904D02*
X57108Y-38885D01*
X57098Y-38866D01*
X57088Y-38827D01*
X57088Y-38711D01*
X57098Y-38672D01*
X57108Y-38653D01*
X57127Y-38634D01*
X57157Y-38634D01*
X57177Y-38653D01*
X57186Y-38672D01*
X57196Y-38711D01*
X57196Y-38827D01*
X57186Y-38866D01*
X57177Y-38885D01*
X57157Y-38904D01*
X57127Y-38904D01*
X57284Y-38866D02*
X57294Y-38885D01*
X57284Y-38904D01*
X57274Y-38885D01*
X57284Y-38866D01*
X57284Y-38904D01*
X57411Y-38904D02*
X57392Y-38885D01*
X57382Y-38866D01*
X57372Y-38827D01*
X57372Y-38711D01*
X57382Y-38672D01*
X57392Y-38653D01*
X57411Y-38634D01*
X57441Y-38634D01*
X57461Y-38653D01*
X57470Y-38672D01*
X57480Y-38711D01*
X57480Y-38827D01*
X57470Y-38866D01*
X57461Y-38885D01*
X57441Y-38904D01*
X57411Y-38904D01*
X57568Y-38904D02*
X57568Y-38634D01*
X57568Y-38711D02*
X57578Y-38672D01*
X57588Y-38653D01*
X57607Y-38634D01*
X57627Y-38634D01*
X57784Y-38634D02*
X57784Y-38962D01*
X57775Y-39001D01*
X57765Y-39020D01*
X57745Y-39040D01*
X57716Y-39040D01*
X57696Y-39020D01*
X57784Y-38885D02*
X57765Y-38904D01*
X57725Y-38904D01*
X57706Y-38885D01*
X57696Y-38866D01*
X57686Y-38827D01*
X57686Y-38711D01*
X57696Y-38672D01*
X57706Y-38653D01*
X57725Y-38634D01*
X57765Y-38634D01*
X57784Y-38653D01*
G54D13*
X53350Y-37475D02*
X53375Y-37475D01*
X53350Y-46050D02*
X53350Y-37475D01*
X68350Y-46050D02*
X53350Y-46050D01*
X68350Y-37450D02*
X68350Y-46050D01*
X53350Y-37450D02*
X68350Y-37450D01*
G54D14*
X50160Y-39140D02*
X50160Y-43940D01*
X50160Y-43940D02*
X56860Y-43940D01*
X56860Y-43940D02*
X56860Y-39140D01*
X56860Y-39140D02*
X50160Y-39140D01*
X60993Y-43679D02*
X60990Y-43706D01*
X60982Y-43732D01*
X60969Y-43757D01*
X60952Y-43778D01*
X60930Y-43795D01*
X60906Y-43808D01*
X60880Y-43817D01*
X60852Y-43819D01*
X60826Y-43817D01*
X60800Y-43809D01*
X60775Y-43796D01*
X60754Y-43779D01*
X60736Y-43758D01*
X60723Y-43734D01*
X60715Y-43708D01*
X60712Y-43680D01*
X60714Y-43654D01*
X60721Y-43628D01*
X60734Y-43603D01*
X60751Y-43582D01*
X60772Y-43564D01*
X60796Y-43550D01*
X60822Y-43542D01*
X60850Y-43539D01*
X60876Y-43541D01*
X60902Y-43548D01*
X60927Y-43560D01*
X60949Y-43577D01*
X60967Y-43598D01*
X60980Y-43622D01*
X60989Y-43648D01*
X60992Y-43676D01*
X60993Y-43679D01*
X60652Y-42579D02*
X60952Y-42579D01*
X60952Y-42579D02*
X60952Y-43079D01*
X60952Y-43079D02*
X60652Y-43079D01*
X64702Y-43879D02*
X60652Y-43879D01*
X60652Y-41779D02*
X64702Y-41779D01*
X60652Y-41779D02*
X60652Y-43879D01*
X64702Y-41779D02*
X64702Y-43879D01*
X58200Y-44725D02*
X58199Y-44734D01*
X58196Y-44744D01*
X58191Y-44752D01*
X58185Y-44760D01*
X58177Y-44766D01*
X58169Y-44771D01*
X58160Y-44773D01*
X58150Y-44774D01*
X58141Y-44774D01*
X58132Y-44771D01*
X58123Y-44766D01*
X58116Y-44760D01*
X58109Y-44753D01*
X58105Y-44744D01*
X58102Y-44735D01*
X58101Y-44725D01*
X58101Y-44716D01*
X58104Y-44707D01*
X58108Y-44698D01*
X58115Y-44691D01*
X58122Y-44684D01*
X58130Y-44680D01*
X58140Y-44677D01*
X58149Y-44676D01*
X58158Y-44676D01*
X58168Y-44679D01*
X58176Y-44683D01*
X58184Y-44689D01*
X58190Y-44697D01*
X58195Y-44705D01*
X58198Y-44714D01*
X58199Y-44724D01*
X58200Y-44725D01*
X58600Y-44725D02*
X58200Y-44725D01*
X58200Y-44725D02*
X58200Y-44125D01*
X58200Y-44125D02*
X58600Y-44125D01*
X59000Y-44125D02*
X59400Y-44125D01*
X59400Y-44125D02*
X59400Y-44725D01*
X59400Y-44725D02*
X59000Y-44725D01*
X56574Y-44757D02*
X56573Y-44766D01*
X56570Y-44776D01*
X56565Y-44784D01*
X56559Y-44792D01*
X56551Y-44798D01*
X56543Y-44803D01*
X56534Y-44805D01*
X56524Y-44806D01*
X56515Y-44806D01*
X56506Y-44803D01*
X56497Y-44798D01*
X56490Y-44792D01*
X56483Y-44785D01*
X56479Y-44776D01*
X56476Y-44767D01*
X56475Y-44757D01*
X56475Y-44748D01*
X56478Y-44739D01*
X56482Y-44730D01*
X56489Y-44723D01*
X56496Y-44716D01*
X56504Y-44712D01*
X56514Y-44709D01*
X56523Y-44708D01*
X56532Y-44708D01*
X56542Y-44711D01*
X56550Y-44715D01*
X56558Y-44721D01*
X56564Y-44729D01*
X56569Y-44737D01*
X56572Y-44746D01*
X56573Y-44756D01*
X56574Y-44757D01*
X56974Y-44757D02*
X56574Y-44757D01*
X56574Y-44757D02*
X56574Y-44157D01*
X56574Y-44157D02*
X56974Y-44157D01*
X57374Y-44157D02*
X57774Y-44157D01*
X57774Y-44157D02*
X57774Y-44757D01*
X57774Y-44757D02*
X57374Y-44757D01*
G54D15*
X58900Y-37805D02*
X58900Y-39305D01*
G54D16*
X60627Y-38555D02*
X60613Y-38692D01*
X60573Y-38824D01*
X60508Y-38946D01*
X60421Y-39053D01*
X60315Y-39141D01*
X60193Y-39206D01*
X60062Y-39247D01*
X59924Y-39261D01*
X59788Y-39249D01*
X59656Y-39210D01*
X59533Y-39146D01*
X59426Y-39060D01*
X59337Y-38954D01*
X59271Y-38833D01*
X59229Y-38701D01*
X59214Y-38564D01*
X59225Y-38428D01*
X59263Y-38295D01*
X59326Y-38173D01*
X59412Y-38064D01*
X59517Y-37975D01*
X59637Y-37908D01*
X59769Y-37865D01*
X59906Y-37849D01*
X60042Y-37859D01*
X60175Y-37896D01*
X60298Y-37959D01*
X60407Y-38044D01*
X60497Y-38148D01*
X60565Y-38268D01*
X60609Y-38399D01*
X60626Y-38536D01*
X60627Y-38555D01*
G54D17*
X58921Y-39305D02*
X58990Y-39389D01*
X59066Y-39467D01*
X59149Y-39538D01*
X59238Y-39602D01*
X59332Y-39657D01*
X59430Y-39704D01*
X59532Y-39743D01*
X59637Y-39772D01*
X59744Y-39792D01*
X59853Y-39803D01*
X59961Y-39804D01*
X60070Y-39795D01*
X60177Y-39778D01*
X60283Y-39751D01*
X60386Y-39714D01*
X60485Y-39669D01*
X60580Y-39616D01*
X60670Y-39554D01*
X60754Y-39485D01*
X60832Y-39409D01*
X60903Y-39326D01*
X60967Y-39237D01*
X61022Y-39143D01*
X61069Y-39045D01*
X61108Y-38943D01*
X61137Y-38838D01*
X61157Y-38731D01*
X61168Y-38622D01*
X61169Y-38514D01*
X61160Y-38405D01*
X61143Y-38298D01*
X61116Y-38192D01*
X61079Y-38089D01*
X61034Y-37990D01*
X60981Y-37895D01*
X60919Y-37805D01*
X60850Y-37721D01*
X60774Y-37643D01*
X60691Y-37572D01*
X60602Y-37508D01*
X60508Y-37453D01*
X60410Y-37406D01*
X60308Y-37367D01*
X60203Y-37338D01*
X60096Y-37318D01*
X59987Y-37307D01*
X59879Y-37306D01*
X59770Y-37315D01*
X59663Y-37332D01*
X59557Y-37359D01*
X59454Y-37396D01*
X59355Y-37441D01*
X59260Y-37494D01*
X59170Y-37556D01*
X59086Y-37625D01*
X59008Y-37701D01*
X58937Y-37784D01*
X58921Y-37805D01*
G54D10*
X59920Y-39005D02*
X59959Y-39003D01*
X59998Y-38998D01*
X60036Y-38989D01*
X60073Y-38977D01*
X60110Y-38962D01*
X60145Y-38944D01*
X60178Y-38923D01*
X60209Y-38899D01*
X60238Y-38873D01*
X60264Y-38844D01*
X60288Y-38813D01*
X60309Y-38779D01*
X60327Y-38745D01*
X60342Y-38708D01*
X60354Y-38671D01*
X60363Y-38633D01*
X60368Y-38594D01*
X60370Y-38555D01*
X59920Y-38105D02*
X59881Y-38107D01*
X59842Y-38112D01*
X59804Y-38121D01*
X59767Y-38133D01*
X59730Y-38148D01*
X59696Y-38166D01*
X59662Y-38187D01*
X59631Y-38211D01*
X59602Y-38237D01*
X59576Y-38266D01*
X59552Y-38297D01*
X59531Y-38331D01*
X59513Y-38365D01*
X59498Y-38402D01*
X59486Y-38439D01*
X59477Y-38477D01*
X59472Y-38516D01*
X59470Y-38555D01*
X59920Y-39205D02*
X59976Y-39202D01*
X60032Y-39195D01*
X60088Y-39182D01*
X60142Y-39165D01*
X60194Y-39144D01*
X60245Y-39117D01*
X60292Y-39087D01*
X60337Y-39052D01*
X60379Y-39014D01*
X60417Y-38972D01*
X60452Y-38927D01*
X60482Y-38879D01*
X60509Y-38829D01*
X60530Y-38777D01*
X60547Y-38723D01*
X60560Y-38667D01*
X60567Y-38611D01*
X60570Y-38555D01*
X59920Y-37905D02*
X59864Y-37908D01*
X59808Y-37915D01*
X59752Y-37928D01*
X59698Y-37945D01*
X59646Y-37966D01*
X59596Y-37993D01*
X59548Y-38023D01*
X59503Y-38058D01*
X59461Y-38096D01*
X59423Y-38138D01*
X59388Y-38183D01*
X59358Y-38231D01*
X59331Y-38281D01*
X59310Y-38333D01*
X59293Y-38387D01*
X59280Y-38443D01*
X59273Y-38499D01*
X59270Y-38555D01*
X59920Y-39405D02*
X59994Y-39401D01*
X60067Y-39392D01*
X60139Y-39376D01*
X60210Y-39353D01*
X60279Y-39325D01*
X60345Y-39291D01*
X60407Y-39251D01*
X60466Y-39206D01*
X60521Y-39156D01*
X60571Y-39101D01*
X60616Y-39042D01*
X60656Y-38979D01*
X60690Y-38914D01*
X60718Y-38845D01*
X60741Y-38774D01*
X60757Y-38702D01*
X60766Y-38629D01*
X60770Y-38555D01*
X59920Y-37705D02*
X59846Y-37709D01*
X59773Y-37718D01*
X59701Y-37734D01*
X59630Y-37757D01*
X59561Y-37785D01*
X59496Y-37819D01*
X59433Y-37859D01*
X59374Y-37904D01*
X59319Y-37954D01*
X59269Y-38009D01*
X59224Y-38068D01*
X59184Y-38131D01*
X59150Y-38196D01*
X59122Y-38265D01*
X59099Y-38336D01*
X59083Y-38408D01*
X59074Y-38481D01*
X59070Y-38555D01*
G54D15*
X62220Y-37845D02*
X62220Y-39345D01*
G54D16*
X63947Y-38595D02*
X63933Y-38732D01*
X63893Y-38864D01*
X63828Y-38986D01*
X63741Y-39093D01*
X63635Y-39181D01*
X63513Y-39246D01*
X63382Y-39287D01*
X63244Y-39301D01*
X63108Y-39289D01*
X62976Y-39250D01*
X62853Y-39186D01*
X62746Y-39100D01*
X62657Y-38994D01*
X62591Y-38873D01*
X62549Y-38741D01*
X62534Y-38604D01*
X62545Y-38468D01*
X62583Y-38335D01*
X62646Y-38213D01*
X62732Y-38104D01*
X62837Y-38015D01*
X62957Y-37948D01*
X63089Y-37905D01*
X63226Y-37889D01*
X63362Y-37899D01*
X63495Y-37936D01*
X63618Y-37999D01*
X63727Y-38084D01*
X63817Y-38188D01*
X63885Y-38308D01*
X63929Y-38439D01*
X63946Y-38576D01*
X63947Y-38595D01*
G54D17*
X62241Y-39345D02*
X62310Y-39429D01*
X62386Y-39507D01*
X62469Y-39578D01*
X62558Y-39642D01*
X62652Y-39697D01*
X62750Y-39744D01*
X62852Y-39783D01*
X62957Y-39812D01*
X63064Y-39832D01*
X63173Y-39843D01*
X63281Y-39844D01*
X63390Y-39835D01*
X63497Y-39818D01*
X63603Y-39791D01*
X63706Y-39754D01*
X63805Y-39709D01*
X63900Y-39656D01*
X63990Y-39594D01*
X64074Y-39525D01*
X64152Y-39449D01*
X64223Y-39366D01*
X64287Y-39277D01*
X64342Y-39183D01*
X64389Y-39085D01*
X64428Y-38983D01*
X64457Y-38878D01*
X64477Y-38771D01*
X64488Y-38662D01*
X64489Y-38554D01*
X64480Y-38445D01*
X64463Y-38338D01*
X64436Y-38232D01*
X64399Y-38129D01*
X64354Y-38030D01*
X64301Y-37935D01*
X64239Y-37845D01*
X64170Y-37761D01*
X64094Y-37683D01*
X64011Y-37612D01*
X63922Y-37548D01*
X63828Y-37493D01*
X63730Y-37446D01*
X63628Y-37407D01*
X63523Y-37378D01*
X63416Y-37358D01*
X63307Y-37347D01*
X63199Y-37346D01*
X63090Y-37355D01*
X62983Y-37372D01*
X62877Y-37399D01*
X62774Y-37436D01*
X62675Y-37481D01*
X62580Y-37534D01*
X62490Y-37596D01*
X62406Y-37665D01*
X62328Y-37741D01*
X62257Y-37824D01*
X62241Y-37845D01*
G54D10*
X63240Y-39045D02*
X63279Y-39043D01*
X63318Y-39038D01*
X63356Y-39029D01*
X63393Y-39017D01*
X63430Y-39002D01*
X63465Y-38984D01*
X63498Y-38963D01*
X63529Y-38939D01*
X63558Y-38913D01*
X63584Y-38884D01*
X63608Y-38853D01*
X63629Y-38819D01*
X63647Y-38785D01*
X63662Y-38748D01*
X63674Y-38711D01*
X63683Y-38673D01*
X63688Y-38634D01*
X63690Y-38595D01*
X63240Y-38145D02*
X63201Y-38147D01*
X63162Y-38152D01*
X63124Y-38161D01*
X63087Y-38173D01*
X63050Y-38188D01*
X63016Y-38206D01*
X62982Y-38227D01*
X62951Y-38251D01*
X62922Y-38277D01*
X62896Y-38306D01*
X62872Y-38337D01*
X62851Y-38371D01*
X62833Y-38405D01*
X62818Y-38442D01*
X62806Y-38479D01*
X62797Y-38517D01*
X62792Y-38556D01*
X62790Y-38595D01*
X63240Y-39245D02*
X63296Y-39242D01*
X63352Y-39235D01*
X63408Y-39222D01*
X63462Y-39205D01*
X63514Y-39184D01*
X63565Y-39157D01*
X63612Y-39127D01*
X63657Y-39092D01*
X63699Y-39054D01*
X63737Y-39012D01*
X63772Y-38967D01*
X63802Y-38919D01*
X63829Y-38869D01*
X63850Y-38817D01*
X63867Y-38763D01*
X63880Y-38707D01*
X63887Y-38651D01*
X63890Y-38595D01*
X63240Y-37945D02*
X63184Y-37948D01*
X63128Y-37955D01*
X63072Y-37968D01*
X63018Y-37985D01*
X62966Y-38006D01*
X62916Y-38033D01*
X62868Y-38063D01*
X62823Y-38098D01*
X62781Y-38136D01*
X62743Y-38178D01*
X62708Y-38223D01*
X62678Y-38271D01*
X62651Y-38321D01*
X62630Y-38373D01*
X62613Y-38427D01*
X62600Y-38483D01*
X62593Y-38539D01*
X62590Y-38595D01*
X63240Y-39445D02*
X63314Y-39441D01*
X63387Y-39432D01*
X63459Y-39416D01*
X63530Y-39393D01*
X63599Y-39365D01*
X63665Y-39331D01*
X63727Y-39291D01*
X63786Y-39246D01*
X63841Y-39196D01*
X63891Y-39141D01*
X63936Y-39082D01*
X63976Y-39019D01*
X64010Y-38954D01*
X64038Y-38885D01*
X64061Y-38814D01*
X64077Y-38742D01*
X64086Y-38669D01*
X64090Y-38595D01*
X63240Y-37745D02*
X63166Y-37749D01*
X63093Y-37758D01*
X63021Y-37774D01*
X62950Y-37797D01*
X62881Y-37825D01*
X62816Y-37859D01*
X62753Y-37899D01*
X62694Y-37944D01*
X62639Y-37994D01*
X62589Y-38049D01*
X62544Y-38108D01*
X62504Y-38171D01*
X62470Y-38236D01*
X62442Y-38305D01*
X62419Y-38376D01*
X62403Y-38448D01*
X62394Y-38521D01*
X62390Y-38595D01*
G54D13*
X68125Y-42165D02*
X68125Y-45665D01*
X68125Y-45665D02*
X66925Y-45665D01*
X66925Y-45665D02*
X66925Y-38665D01*
X66925Y-38665D02*
X68125Y-38665D01*
X68125Y-38665D02*
X68125Y-42165D01*
G54D14*
X55776Y-44700D02*
X55776Y-45340D01*
X55970Y-45340D02*
X55970Y-44700D01*
X55970Y-44700D02*
X54710Y-44700D01*
X54710Y-44700D02*
X54710Y-45340D01*
X54710Y-45340D02*
X55970Y-45340D01*
G54D18*
G36*
X57342Y-40410D02*
X57349Y-40406D01*
X57364Y-40397D01*
X57386Y-40382D01*
X57412Y-40365D01*
X57438Y-40347D01*
X57460Y-40333D01*
X57475Y-40323D01*
X57481Y-40320D01*
X57484Y-40321D01*
X57497Y-40327D01*
X57514Y-40336D01*
X57525Y-40342D01*
X57541Y-40349D01*
X57550Y-40350D01*
X57551Y-40348D01*
X57557Y-40336D01*
X57566Y-40314D01*
X57579Y-40286D01*
X57593Y-40252D01*
X57608Y-40216D01*
X57624Y-40180D01*
X57638Y-40145D01*
X57651Y-40113D01*
X57661Y-40087D01*
X57668Y-40070D01*
X57671Y-40062D01*
X57670Y-40060D01*
X57662Y-40052D01*
X57647Y-40042D01*
X57616Y-40016D01*
X57585Y-39978D01*
X57567Y-39935D01*
X57560Y-39886D01*
X57566Y-39841D01*
X57583Y-39799D01*
X57613Y-39760D01*
X57650Y-39731D01*
X57692Y-39713D01*
X57740Y-39707D01*
X57785Y-39712D01*
X57829Y-39730D01*
X57868Y-39759D01*
X57885Y-39778D01*
X57907Y-39817D01*
X57920Y-39859D01*
X57921Y-39870D01*
X57919Y-39916D01*
X57906Y-39960D01*
X57881Y-39999D01*
X57848Y-40032D01*
X57843Y-40035D01*
X57828Y-40047D01*
X57817Y-40055D01*
X57809Y-40061D01*
X57868Y-40203D01*
X57877Y-40225D01*
X57893Y-40264D01*
X57907Y-40297D01*
X57919Y-40324D01*
X57927Y-40342D01*
X57930Y-40349D01*
X57930Y-40349D01*
X57936Y-40350D01*
X57946Y-40346D01*
X57966Y-40337D01*
X57979Y-40330D01*
X57994Y-40323D01*
X58001Y-40320D01*
X58007Y-40323D01*
X58021Y-40332D01*
X58042Y-40346D01*
X58068Y-40364D01*
X58092Y-40380D01*
X58114Y-40395D01*
X58130Y-40405D01*
X58138Y-40409D01*
X58139Y-40409D01*
X58146Y-40405D01*
X58159Y-40395D01*
X58178Y-40377D01*
X58205Y-40350D01*
X58209Y-40345D01*
X58232Y-40323D01*
X58250Y-40304D01*
X58262Y-40290D01*
X58267Y-40284D01*
X58267Y-40284D01*
X58263Y-40276D01*
X58252Y-40260D01*
X58238Y-40237D01*
X58220Y-40211D01*
X58173Y-40143D01*
X58199Y-40079D01*
X58207Y-40059D01*
X58217Y-40035D01*
X58224Y-40018D01*
X58228Y-40011D01*
X58235Y-40008D01*
X58252Y-40004D01*
X58278Y-39999D01*
X58308Y-39993D01*
X58337Y-39988D01*
X58363Y-39983D01*
X58382Y-39979D01*
X58391Y-39978D01*
X58393Y-39976D01*
X58395Y-39972D01*
X58396Y-39963D01*
X58396Y-39947D01*
X58397Y-39922D01*
X58397Y-39886D01*
X58397Y-39882D01*
X58396Y-39848D01*
X58396Y-39820D01*
X58395Y-39803D01*
X58394Y-39796D01*
X58394Y-39796D01*
X58385Y-39794D01*
X58367Y-39790D01*
X58341Y-39785D01*
X58310Y-39779D01*
X58308Y-39778D01*
X58277Y-39772D01*
X58250Y-39767D01*
X58232Y-39763D01*
X58225Y-39760D01*
X58223Y-39758D01*
X58217Y-39746D01*
X58208Y-39727D01*
X58197Y-39703D01*
X58187Y-39679D01*
X58179Y-39657D01*
X58173Y-39640D01*
X58171Y-39633D01*
X58171Y-39633D01*
X58176Y-39625D01*
X58186Y-39609D01*
X58201Y-39587D01*
X58220Y-39560D01*
X58221Y-39558D01*
X58239Y-39532D01*
X58253Y-39510D01*
X58263Y-39494D01*
X58267Y-39487D01*
X58266Y-39486D01*
X58261Y-39479D01*
X58247Y-39464D01*
X58228Y-39444D01*
X58205Y-39420D01*
X58198Y-39413D01*
X58172Y-39388D01*
X58154Y-39372D01*
X58143Y-39363D01*
X58138Y-39361D01*
X58138Y-39361D01*
X58130Y-39366D01*
X58113Y-39377D01*
X58091Y-39392D01*
X58064Y-39410D01*
X58062Y-39412D01*
X58036Y-39430D01*
X58014Y-39444D01*
X57999Y-39455D01*
X57992Y-39459D01*
X57991Y-39459D01*
X57980Y-39456D01*
X57961Y-39449D01*
X57938Y-39440D01*
X57914Y-39430D01*
X57892Y-39421D01*
X57875Y-39414D01*
X57868Y-39409D01*
X57867Y-39409D01*
X57865Y-39399D01*
X57860Y-39380D01*
X57854Y-39353D01*
X57848Y-39320D01*
X57847Y-39315D01*
X57841Y-39284D01*
X57836Y-39258D01*
X57833Y-39240D01*
X57831Y-39233D01*
X57826Y-39232D01*
X57811Y-39231D01*
X57788Y-39230D01*
X57760Y-39230D01*
X57730Y-39230D01*
X57701Y-39231D01*
X57677Y-39231D01*
X57659Y-39233D01*
X57651Y-39234D01*
X57651Y-39235D01*
X57648Y-39244D01*
X57644Y-39264D01*
X57639Y-39291D01*
X57632Y-39323D01*
X57631Y-39329D01*
X57625Y-39360D01*
X57620Y-39386D01*
X57616Y-39404D01*
X57614Y-39411D01*
X57612Y-39412D01*
X57599Y-39418D01*
X57578Y-39426D01*
X57552Y-39437D01*
X57492Y-39461D01*
X57418Y-39411D01*
X57411Y-39406D01*
X57385Y-39388D01*
X57363Y-39373D01*
X57348Y-39364D01*
X57341Y-39360D01*
X57341Y-39360D01*
X57333Y-39367D01*
X57319Y-39380D01*
X57299Y-39400D01*
X57276Y-39423D01*
X57258Y-39440D01*
X57238Y-39461D01*
X57225Y-39475D01*
X57218Y-39484D01*
X57216Y-39489D01*
X57216Y-39493D01*
X57221Y-39500D01*
X57232Y-39517D01*
X57247Y-39539D01*
X57265Y-39565D01*
X57280Y-39587D01*
X57296Y-39612D01*
X57306Y-39629D01*
X57310Y-39638D01*
X57309Y-39642D01*
X57304Y-39656D01*
X57295Y-39678D01*
X57284Y-39704D01*
X57258Y-39762D01*
X57220Y-39770D01*
X57197Y-39774D01*
X57164Y-39780D01*
X57133Y-39786D01*
X57085Y-39796D01*
X57083Y-39973D01*
X57091Y-39976D01*
X57098Y-39978D01*
X57116Y-39982D01*
X57141Y-39987D01*
X57172Y-39993D01*
X57197Y-39998D01*
X57223Y-40003D01*
X57242Y-40006D01*
X57250Y-40008D01*
X57252Y-40011D01*
X57259Y-40023D01*
X57268Y-40043D01*
X57278Y-40067D01*
X57289Y-40092D01*
X57298Y-40115D01*
X57304Y-40133D01*
X57307Y-40142D01*
X57303Y-40149D01*
X57293Y-40164D01*
X57279Y-40186D01*
X57261Y-40212D01*
X57244Y-40237D01*
X57229Y-40260D01*
X57219Y-40275D01*
X57214Y-40283D01*
X57216Y-40288D01*
X57227Y-40300D01*
X57246Y-40320D01*
X57275Y-40349D01*
X57280Y-40353D01*
X57303Y-40376D01*
X57322Y-40394D01*
X57336Y-40406D01*
X57342Y-40410D01*
X57342Y-40410D01*
G37*
G54D10*
X56330Y-42040D02*
X56324Y-42092D01*
X56309Y-42142D01*
X56284Y-42189D01*
X56251Y-42230D01*
X56210Y-42263D01*
X56164Y-42288D01*
X56114Y-42304D01*
X56061Y-42309D01*
X56010Y-42305D01*
X55959Y-42290D01*
X55913Y-42265D01*
X55872Y-42232D01*
X55838Y-42192D01*
X55812Y-42146D01*
X55796Y-42096D01*
X55791Y-42043D01*
X55795Y-41992D01*
X55809Y-41941D01*
X55834Y-41894D01*
X55866Y-41853D01*
X55906Y-41819D01*
X55952Y-41793D01*
X56003Y-41777D01*
X56055Y-41771D01*
X56106Y-41775D01*
X56157Y-41789D01*
X56204Y-41813D01*
X56246Y-41845D01*
X56280Y-41885D01*
X56306Y-41931D01*
X56323Y-41981D01*
X56329Y-42033D01*
X56330Y-42040D01*
X56330Y-41040D02*
X56324Y-41092D01*
X56309Y-41142D01*
X56284Y-41189D01*
X56251Y-41230D01*
X56210Y-41263D01*
X56164Y-41288D01*
X56114Y-41304D01*
X56061Y-41309D01*
X56010Y-41305D01*
X55959Y-41290D01*
X55913Y-41265D01*
X55872Y-41232D01*
X55838Y-41192D01*
X55812Y-41146D01*
X55796Y-41096D01*
X55791Y-41043D01*
X55795Y-40992D01*
X55809Y-40941D01*
X55834Y-40894D01*
X55866Y-40853D01*
X55906Y-40819D01*
X55952Y-40793D01*
X56003Y-40777D01*
X56055Y-40771D01*
X56106Y-40775D01*
X56157Y-40789D01*
X56204Y-40813D01*
X56246Y-40845D01*
X56280Y-40885D01*
X56306Y-40931D01*
X56323Y-40981D01*
X56329Y-41033D01*
X56330Y-41040D01*
X55543Y-41040D02*
X55537Y-41092D01*
X55522Y-41142D01*
X55497Y-41189D01*
X55464Y-41230D01*
X55423Y-41263D01*
X55377Y-41288D01*
X55327Y-41304D01*
X55274Y-41309D01*
X55223Y-41305D01*
X55172Y-41290D01*
X55126Y-41265D01*
X55085Y-41232D01*
X55051Y-41192D01*
X55025Y-41146D01*
X55009Y-41096D01*
X55004Y-41043D01*
X55008Y-40992D01*
X55022Y-40941D01*
X55047Y-40894D01*
X55079Y-40853D01*
X55119Y-40819D01*
X55165Y-40793D01*
X55216Y-40777D01*
X55268Y-40771D01*
X55319Y-40775D01*
X55370Y-40789D01*
X55417Y-40813D01*
X55459Y-40845D01*
X55493Y-40885D01*
X55519Y-40931D01*
X55536Y-40981D01*
X55542Y-41033D01*
X55543Y-41040D01*
X55543Y-42040D02*
X55537Y-42092D01*
X55522Y-42142D01*
X55497Y-42189D01*
X55464Y-42230D01*
X55423Y-42263D01*
X55377Y-42288D01*
X55327Y-42304D01*
X55274Y-42309D01*
X55223Y-42305D01*
X55172Y-42290D01*
X55126Y-42265D01*
X55085Y-42232D01*
X55051Y-42192D01*
X55025Y-42146D01*
X55009Y-42096D01*
X55004Y-42043D01*
X55008Y-41992D01*
X55022Y-41941D01*
X55047Y-41894D01*
X55079Y-41853D01*
X55119Y-41819D01*
X55165Y-41793D01*
X55216Y-41777D01*
X55268Y-41771D01*
X55319Y-41775D01*
X55370Y-41789D01*
X55417Y-41813D01*
X55459Y-41845D01*
X55493Y-41885D01*
X55519Y-41931D01*
X55536Y-41981D01*
X55542Y-42033D01*
X55543Y-42040D01*
X54711Y-43902D02*
X54701Y-43999D01*
X54673Y-44092D01*
X54627Y-44179D01*
X54565Y-44255D01*
X54490Y-44317D01*
X54404Y-44363D01*
X54310Y-44392D01*
X54213Y-44402D01*
X54117Y-44394D01*
X54023Y-44366D01*
X53936Y-44321D01*
X53860Y-44259D01*
X53797Y-44185D01*
X53750Y-44099D01*
X53720Y-44006D01*
X53710Y-43908D01*
X53718Y-43812D01*
X53745Y-43718D01*
X53789Y-43631D01*
X53850Y-43554D01*
X53925Y-43491D01*
X54010Y-43443D01*
X54103Y-43413D01*
X54200Y-43402D01*
X54296Y-43409D01*
X54391Y-43435D01*
X54478Y-43479D01*
X54555Y-43540D01*
X54619Y-43614D01*
X54667Y-43699D01*
X54698Y-43792D01*
X54710Y-43889D01*
X54711Y-43902D01*
X54711Y-39178D02*
X54701Y-39275D01*
X54673Y-39368D01*
X54627Y-39455D01*
X54565Y-39531D01*
X54490Y-39593D01*
X54404Y-39639D01*
X54310Y-39668D01*
X54213Y-39678D01*
X54117Y-39670D01*
X54023Y-39642D01*
X53936Y-39597D01*
X53860Y-39535D01*
X53797Y-39461D01*
X53750Y-39375D01*
X53720Y-39282D01*
X53710Y-39184D01*
X53718Y-39088D01*
X53745Y-38994D01*
X53789Y-38907D01*
X53850Y-38830D01*
X53925Y-38767D01*
X54010Y-38719D01*
X54103Y-38689D01*
X54200Y-38678D01*
X54296Y-38685D01*
X54391Y-38711D01*
X54478Y-38755D01*
X54555Y-38816D01*
X54619Y-38890D01*
X54667Y-38975D01*
X54698Y-39068D01*
X54710Y-39165D01*
X54711Y-39178D01*
X60820Y-38555D02*
X60814Y-38613D01*
X60797Y-38669D01*
X60769Y-38721D01*
X60732Y-38766D01*
X60687Y-38803D01*
X60636Y-38831D01*
X60580Y-38848D01*
X60522Y-38854D01*
X60464Y-38849D01*
X60408Y-38833D01*
X60356Y-38806D01*
X60311Y-38769D01*
X60273Y-38724D01*
X60245Y-38673D01*
X60227Y-38617D01*
X60221Y-38559D01*
X60225Y-38501D01*
X60242Y-38445D01*
X60268Y-38393D01*
X60305Y-38347D01*
X60349Y-38309D01*
X60400Y-38281D01*
X60456Y-38262D01*
X60514Y-38256D01*
X60572Y-38260D01*
X60628Y-38276D01*
X60680Y-38302D01*
X60726Y-38338D01*
X60765Y-38383D01*
X60794Y-38433D01*
X60812Y-38489D01*
X60819Y-38547D01*
X60820Y-38555D01*
X59820Y-38555D02*
X59814Y-38613D01*
X59797Y-38669D01*
X59769Y-38721D01*
X59732Y-38766D01*
X59687Y-38803D01*
X59636Y-38831D01*
X59580Y-38848D01*
X59522Y-38854D01*
X59464Y-38849D01*
X59408Y-38833D01*
X59356Y-38806D01*
X59311Y-38769D01*
X59273Y-38724D01*
X59245Y-38673D01*
X59227Y-38617D01*
X59221Y-38559D01*
X59225Y-38501D01*
X59242Y-38445D01*
X59268Y-38393D01*
X59305Y-38347D01*
X59349Y-38309D01*
X59400Y-38281D01*
X59456Y-38262D01*
X59514Y-38256D01*
X59572Y-38260D01*
X59628Y-38276D01*
X59680Y-38302D01*
X59726Y-38338D01*
X59765Y-38383D01*
X59794Y-38433D01*
X59812Y-38489D01*
X59819Y-38547D01*
X59820Y-38555D01*
X64140Y-38595D02*
X64134Y-38653D01*
X64117Y-38709D01*
X64089Y-38761D01*
X64052Y-38806D01*
X64007Y-38843D01*
X63956Y-38871D01*
X63900Y-38888D01*
X63842Y-38894D01*
X63784Y-38889D01*
X63728Y-38873D01*
X63676Y-38846D01*
X63631Y-38809D01*
X63593Y-38764D01*
X63565Y-38713D01*
X63547Y-38657D01*
X63541Y-38599D01*
X63545Y-38541D01*
X63562Y-38485D01*
X63588Y-38433D01*
X63625Y-38387D01*
X63669Y-38349D01*
X63720Y-38321D01*
X63776Y-38302D01*
X63834Y-38296D01*
X63892Y-38300D01*
X63948Y-38316D01*
X64000Y-38342D01*
X64046Y-38378D01*
X64085Y-38423D01*
X64114Y-38473D01*
X64132Y-38529D01*
X64139Y-38587D01*
X64140Y-38595D01*
X63140Y-38595D02*
X63134Y-38653D01*
X63117Y-38709D01*
X63089Y-38761D01*
X63052Y-38806D01*
X63007Y-38843D01*
X62956Y-38871D01*
X62900Y-38888D01*
X62842Y-38894D01*
X62784Y-38889D01*
X62728Y-38873D01*
X62676Y-38846D01*
X62631Y-38809D01*
X62593Y-38764D01*
X62565Y-38713D01*
X62547Y-38657D01*
X62541Y-38599D01*
X62545Y-38541D01*
X62562Y-38485D01*
X62588Y-38433D01*
X62625Y-38387D01*
X62669Y-38349D01*
X62720Y-38321D01*
X62776Y-38302D01*
X62834Y-38296D01*
X62892Y-38300D01*
X62948Y-38316D01*
X63000Y-38342D01*
X63046Y-38378D01*
X63085Y-38423D01*
X63114Y-38473D01*
X63132Y-38529D01*
X63139Y-38587D01*
X63140Y-38595D01*
X67650Y-39920D02*
X67400Y-39920D01*
X67650Y-40410D02*
X67400Y-40410D01*
X67400Y-39920D02*
X67379Y-39921D01*
X67358Y-39924D01*
X67337Y-39929D01*
X67317Y-39935D01*
X67297Y-39943D01*
X67278Y-39953D01*
X67260Y-39965D01*
X67243Y-39978D01*
X67227Y-39992D01*
X67213Y-40008D01*
X67200Y-40025D01*
X67188Y-40043D01*
X67178Y-40062D01*
X67170Y-40082D01*
X67164Y-40102D01*
X67159Y-40123D01*
X67156Y-40144D01*
X67155Y-40165D01*
X67156Y-40186D01*
X67159Y-40207D01*
X67164Y-40228D01*
X67170Y-40248D01*
X67178Y-40268D01*
X67188Y-40287D01*
X67200Y-40305D01*
X67213Y-40322D01*
X67227Y-40338D01*
X67243Y-40352D01*
X67260Y-40365D01*
X67278Y-40377D01*
X67297Y-40387D01*
X67317Y-40395D01*
X67337Y-40401D01*
X67358Y-40406D01*
X67379Y-40409D01*
X67400Y-40410D01*
X67650Y-40410D02*
X67671Y-40409D01*
X67692Y-40406D01*
X67713Y-40401D01*
X67733Y-40395D01*
X67753Y-40387D01*
X67772Y-40377D01*
X67790Y-40365D01*
X67807Y-40352D01*
X67823Y-40338D01*
X67837Y-40322D01*
X67850Y-40305D01*
X67862Y-40287D01*
X67872Y-40268D01*
X67880Y-40248D01*
X67886Y-40228D01*
X67891Y-40207D01*
X67894Y-40186D01*
X67895Y-40165D01*
X67894Y-40144D01*
X67891Y-40123D01*
X67886Y-40102D01*
X67880Y-40082D01*
X67872Y-40062D01*
X67862Y-40043D01*
X67850Y-40025D01*
X67837Y-40008D01*
X67823Y-39992D01*
X67807Y-39978D01*
X67790Y-39965D01*
X67772Y-39953D01*
X67753Y-39943D01*
X67733Y-39935D01*
X67713Y-39929D01*
X67692Y-39924D01*
X67671Y-39921D01*
X67650Y-39920D01*
X67650Y-40920D02*
X67400Y-40920D01*
X67650Y-41410D02*
X67400Y-41410D01*
X67400Y-40920D02*
X67379Y-40921D01*
X67358Y-40924D01*
X67337Y-40929D01*
X67317Y-40935D01*
X67297Y-40943D01*
X67278Y-40953D01*
X67260Y-40965D01*
X67243Y-40978D01*
X67227Y-40992D01*
X67213Y-41008D01*
X67200Y-41025D01*
X67188Y-41043D01*
X67178Y-41062D01*
X67170Y-41082D01*
X67164Y-41102D01*
X67159Y-41123D01*
X67156Y-41144D01*
X67155Y-41165D01*
X67156Y-41186D01*
X67159Y-41207D01*
X67164Y-41228D01*
X67170Y-41248D01*
X67178Y-41268D01*
X67188Y-41287D01*
X67200Y-41305D01*
X67213Y-41322D01*
X67227Y-41338D01*
X67243Y-41352D01*
X67260Y-41365D01*
X67278Y-41377D01*
X67297Y-41387D01*
X67317Y-41395D01*
X67337Y-41401D01*
X67358Y-41406D01*
X67379Y-41409D01*
X67400Y-41410D01*
X67650Y-41410D02*
X67671Y-41409D01*
X67692Y-41406D01*
X67713Y-41401D01*
X67733Y-41395D01*
X67753Y-41387D01*
X67772Y-41377D01*
X67790Y-41365D01*
X67807Y-41352D01*
X67823Y-41338D01*
X67837Y-41322D01*
X67850Y-41305D01*
X67862Y-41287D01*
X67872Y-41268D01*
X67880Y-41248D01*
X67886Y-41228D01*
X67891Y-41207D01*
X67894Y-41186D01*
X67895Y-41165D01*
X67894Y-41144D01*
X67891Y-41123D01*
X67886Y-41102D01*
X67880Y-41082D01*
X67872Y-41062D01*
X67862Y-41043D01*
X67850Y-41025D01*
X67837Y-41008D01*
X67823Y-40992D01*
X67807Y-40978D01*
X67790Y-40965D01*
X67772Y-40953D01*
X67753Y-40943D01*
X67733Y-40935D01*
X67713Y-40929D01*
X67692Y-40924D01*
X67671Y-40921D01*
X67650Y-40920D01*
X67650Y-41920D02*
X67400Y-41920D01*
X67650Y-42410D02*
X67400Y-42410D01*
X67400Y-41920D02*
X67379Y-41921D01*
X67358Y-41924D01*
X67337Y-41929D01*
X67317Y-41935D01*
X67297Y-41943D01*
X67278Y-41953D01*
X67260Y-41965D01*
X67243Y-41978D01*
X67227Y-41992D01*
X67213Y-42008D01*
X67200Y-42025D01*
X67188Y-42043D01*
X67178Y-42062D01*
X67170Y-42082D01*
X67164Y-42102D01*
X67159Y-42123D01*
X67156Y-42144D01*
X67155Y-42165D01*
X67156Y-42186D01*
X67159Y-42207D01*
X67164Y-42228D01*
X67170Y-42248D01*
X67178Y-42268D01*
X67188Y-42287D01*
X67200Y-42305D01*
X67213Y-42322D01*
X67227Y-42338D01*
X67243Y-42352D01*
X67260Y-42365D01*
X67278Y-42377D01*
X67297Y-42387D01*
X67317Y-42395D01*
X67337Y-42401D01*
X67358Y-42406D01*
X67379Y-42409D01*
X67400Y-42410D01*
X67650Y-42410D02*
X67671Y-42409D01*
X67692Y-42406D01*
X67713Y-42401D01*
X67733Y-42395D01*
X67753Y-42387D01*
X67772Y-42377D01*
X67790Y-42365D01*
X67807Y-42352D01*
X67823Y-42338D01*
X67837Y-42322D01*
X67850Y-42305D01*
X67862Y-42287D01*
X67872Y-42268D01*
X67880Y-42248D01*
X67886Y-42228D01*
X67891Y-42207D01*
X67894Y-42186D01*
X67895Y-42165D01*
X67894Y-42144D01*
X67891Y-42123D01*
X67886Y-42102D01*
X67880Y-42082D01*
X67872Y-42062D01*
X67862Y-42043D01*
X67850Y-42025D01*
X67837Y-42008D01*
X67823Y-41992D01*
X67807Y-41978D01*
X67790Y-41965D01*
X67772Y-41953D01*
X67753Y-41943D01*
X67733Y-41935D01*
X67713Y-41929D01*
X67692Y-41924D01*
X67671Y-41921D01*
X67650Y-41920D01*
X67650Y-42920D02*
X67400Y-42920D01*
X67650Y-43410D02*
X67400Y-43410D01*
X67400Y-42920D02*
X67379Y-42921D01*
X67358Y-42924D01*
X67337Y-42929D01*
X67317Y-42935D01*
X67297Y-42943D01*
X67278Y-42953D01*
X67260Y-42965D01*
X67243Y-42978D01*
X67227Y-42992D01*
X67213Y-43008D01*
X67200Y-43025D01*
X67188Y-43043D01*
X67178Y-43062D01*
X67170Y-43082D01*
X67164Y-43102D01*
X67159Y-43123D01*
X67156Y-43144D01*
X67155Y-43165D01*
X67156Y-43186D01*
X67159Y-43207D01*
X67164Y-43228D01*
X67170Y-43248D01*
X67178Y-43268D01*
X67188Y-43287D01*
X67200Y-43305D01*
X67213Y-43322D01*
X67227Y-43338D01*
X67243Y-43352D01*
X67260Y-43365D01*
X67278Y-43377D01*
X67297Y-43387D01*
X67317Y-43395D01*
X67337Y-43401D01*
X67358Y-43406D01*
X67379Y-43409D01*
X67400Y-43410D01*
X67650Y-43410D02*
X67671Y-43409D01*
X67692Y-43406D01*
X67713Y-43401D01*
X67733Y-43395D01*
X67753Y-43387D01*
X67772Y-43377D01*
X67790Y-43365D01*
X67807Y-43352D01*
X67823Y-43338D01*
X67837Y-43322D01*
X67850Y-43305D01*
X67862Y-43287D01*
X67872Y-43268D01*
X67880Y-43248D01*
X67886Y-43228D01*
X67891Y-43207D01*
X67894Y-43186D01*
X67895Y-43165D01*
X67894Y-43144D01*
X67891Y-43123D01*
X67886Y-43102D01*
X67880Y-43082D01*
X67872Y-43062D01*
X67862Y-43043D01*
X67850Y-43025D01*
X67837Y-43008D01*
X67823Y-42992D01*
X67807Y-42978D01*
X67790Y-42965D01*
X67772Y-42953D01*
X67753Y-42943D01*
X67733Y-42935D01*
X67713Y-42929D01*
X67692Y-42924D01*
X67671Y-42921D01*
X67650Y-42920D01*
X67650Y-43920D02*
X67400Y-43920D01*
X67650Y-44410D02*
X67400Y-44410D01*
X67400Y-43920D02*
X67379Y-43921D01*
X67358Y-43924D01*
X67337Y-43929D01*
X67317Y-43935D01*
X67297Y-43943D01*
X67278Y-43953D01*
X67260Y-43965D01*
X67243Y-43978D01*
X67227Y-43992D01*
X67213Y-44008D01*
X67200Y-44025D01*
X67188Y-44043D01*
X67178Y-44062D01*
X67170Y-44082D01*
X67164Y-44102D01*
X67159Y-44123D01*
X67156Y-44144D01*
X67155Y-44165D01*
X67156Y-44186D01*
X67159Y-44207D01*
X67164Y-44228D01*
X67170Y-44248D01*
X67178Y-44268D01*
X67188Y-44287D01*
X67200Y-44305D01*
X67213Y-44322D01*
X67227Y-44338D01*
X67243Y-44352D01*
X67260Y-44365D01*
X67278Y-44377D01*
X67297Y-44387D01*
X67317Y-44395D01*
X67337Y-44401D01*
X67358Y-44406D01*
X67379Y-44409D01*
X67400Y-44410D01*
X67650Y-44410D02*
X67671Y-44409D01*
X67692Y-44406D01*
X67713Y-44401D01*
X67733Y-44395D01*
X67753Y-44387D01*
X67772Y-44377D01*
X67790Y-44365D01*
X67807Y-44352D01*
X67823Y-44338D01*
X67837Y-44322D01*
X67850Y-44305D01*
X67862Y-44287D01*
X67872Y-44268D01*
X67880Y-44248D01*
X67886Y-44228D01*
X67891Y-44207D01*
X67894Y-44186D01*
X67895Y-44165D01*
X67894Y-44144D01*
X67891Y-44123D01*
X67886Y-44102D01*
X67880Y-44082D01*
X67872Y-44062D01*
X67862Y-44043D01*
X67850Y-44025D01*
X67837Y-44008D01*
X67823Y-43992D01*
X67807Y-43978D01*
X67790Y-43965D01*
X67772Y-43953D01*
X67753Y-43943D01*
X67733Y-43935D01*
X67713Y-43929D01*
X67692Y-43924D01*
X67671Y-43921D01*
X67650Y-43920D01*
X67650Y-38920D02*
X67400Y-38920D01*
X67650Y-39410D02*
X67400Y-39410D01*
X67400Y-38920D02*
X67379Y-38921D01*
X67358Y-38924D01*
X67337Y-38929D01*
X67317Y-38935D01*
X67297Y-38943D01*
X67278Y-38953D01*
X67260Y-38965D01*
X67243Y-38978D01*
X67227Y-38992D01*
X67213Y-39008D01*
X67200Y-39025D01*
X67188Y-39043D01*
X67178Y-39062D01*
X67170Y-39082D01*
X67164Y-39102D01*
X67159Y-39123D01*
X67156Y-39144D01*
X67155Y-39165D01*
X67156Y-39186D01*
X67159Y-39207D01*
X67164Y-39228D01*
X67170Y-39248D01*
X67178Y-39268D01*
X67188Y-39287D01*
X67200Y-39305D01*
X67213Y-39322D01*
X67227Y-39338D01*
X67243Y-39352D01*
X67260Y-39365D01*
X67278Y-39377D01*
X67297Y-39387D01*
X67317Y-39395D01*
X67337Y-39401D01*
X67358Y-39406D01*
X67379Y-39409D01*
X67400Y-39410D01*
X67650Y-39410D02*
X67671Y-39409D01*
X67692Y-39406D01*
X67713Y-39401D01*
X67733Y-39395D01*
X67753Y-39387D01*
X67772Y-39377D01*
X67790Y-39365D01*
X67807Y-39352D01*
X67823Y-39338D01*
X67837Y-39322D01*
X67850Y-39305D01*
X67862Y-39287D01*
X67872Y-39268D01*
X67880Y-39248D01*
X67886Y-39228D01*
X67891Y-39207D01*
X67894Y-39186D01*
X67895Y-39165D01*
X67894Y-39144D01*
X67891Y-39123D01*
X67886Y-39102D01*
X67880Y-39082D01*
X67872Y-39062D01*
X67862Y-39043D01*
X67850Y-39025D01*
X67837Y-39008D01*
X67823Y-38992D01*
X67807Y-38978D01*
X67790Y-38965D01*
X67772Y-38953D01*
X67753Y-38943D01*
X67733Y-38935D01*
X67713Y-38929D01*
X67692Y-38924D01*
X67671Y-38921D01*
X67650Y-38920D01*
X67650Y-44920D02*
X67400Y-44920D01*
X67650Y-45410D02*
X67400Y-45410D01*
X67400Y-44920D02*
X67379Y-44921D01*
X67358Y-44924D01*
X67337Y-44929D01*
X67317Y-44935D01*
X67297Y-44943D01*
X67278Y-44953D01*
X67260Y-44965D01*
X67243Y-44978D01*
X67227Y-44992D01*
X67213Y-45008D01*
X67200Y-45025D01*
X67188Y-45043D01*
X67178Y-45062D01*
X67170Y-45082D01*
X67164Y-45102D01*
X67159Y-45123D01*
X67156Y-45144D01*
X67155Y-45165D01*
X67156Y-45186D01*
X67159Y-45207D01*
X67164Y-45228D01*
X67170Y-45248D01*
X67178Y-45268D01*
X67188Y-45287D01*
X67200Y-45305D01*
X67213Y-45322D01*
X67227Y-45338D01*
X67243Y-45352D01*
X67260Y-45365D01*
X67278Y-45377D01*
X67297Y-45387D01*
X67317Y-45395D01*
X67337Y-45401D01*
X67358Y-45406D01*
X67379Y-45409D01*
X67400Y-45410D01*
X67650Y-45410D02*
X67671Y-45409D01*
X67692Y-45406D01*
X67713Y-45401D01*
X67733Y-45395D01*
X67753Y-45387D01*
X67772Y-45377D01*
X67790Y-45365D01*
X67807Y-45352D01*
X67823Y-45338D01*
X67837Y-45322D01*
X67850Y-45305D01*
X67862Y-45287D01*
X67872Y-45268D01*
X67880Y-45248D01*
X67886Y-45228D01*
X67891Y-45207D01*
X67894Y-45186D01*
X67895Y-45165D01*
X67894Y-45144D01*
X67891Y-45123D01*
X67886Y-45102D01*
X67880Y-45082D01*
X67872Y-45062D01*
X67862Y-45043D01*
X67850Y-45025D01*
X67837Y-45008D01*
X67823Y-44992D01*
X67807Y-44978D01*
X67790Y-44965D01*
X67772Y-44953D01*
X67753Y-44943D01*
X67733Y-44935D01*
X67713Y-44929D01*
X67692Y-44924D01*
X67671Y-44921D01*
X67650Y-44920D01*
G54D11*
X51353Y-41740D02*
X51781Y-41740D01*
X51867Y-41768D01*
X51924Y-41825D01*
X51953Y-41911D01*
X51953Y-41968D01*
X51953Y-41140D02*
X51953Y-41483D01*
X51953Y-41311D02*
X51353Y-41311D01*
X51439Y-41368D01*
X51496Y-41426D01*
X51524Y-41483D01*
X53853Y-42811D02*
X54339Y-42811D01*
X54396Y-42783D01*
X54424Y-42754D01*
X54453Y-42697D01*
X54453Y-42583D01*
X54424Y-42525D01*
X54396Y-42497D01*
X54339Y-42468D01*
X53853Y-42468D01*
X54424Y-42211D02*
X54453Y-42125D01*
X54453Y-41982D01*
X54424Y-41925D01*
X54396Y-41896D01*
X54339Y-41868D01*
X54281Y-41868D01*
X54224Y-41896D01*
X54196Y-41925D01*
X54167Y-41982D01*
X54139Y-42096D01*
X54110Y-42154D01*
X54081Y-42182D01*
X54024Y-42211D01*
X53967Y-42211D01*
X53910Y-42182D01*
X53881Y-42154D01*
X53853Y-42096D01*
X53853Y-41954D01*
X53881Y-41868D01*
X54139Y-41411D02*
X54167Y-41325D01*
X54196Y-41297D01*
X54253Y-41268D01*
X54339Y-41268D01*
X54396Y-41297D01*
X54424Y-41325D01*
X54453Y-41383D01*
X54453Y-41611D01*
X53853Y-41611D01*
X53853Y-41411D01*
X53881Y-41354D01*
X53910Y-41325D01*
X53967Y-41297D01*
X54024Y-41297D01*
X54081Y-41325D01*
X54110Y-41354D01*
X54139Y-41411D01*
X54139Y-41611D01*
X54510Y-41154D02*
X54510Y-40697D01*
X53910Y-40583D02*
X53881Y-40554D01*
X53853Y-40497D01*
X53853Y-40354D01*
X53881Y-40297D01*
X53910Y-40268D01*
X53967Y-40240D01*
X54024Y-40240D01*
X54110Y-40268D01*
X54453Y-40611D01*
X54453Y-40240D01*
G54D14*
X62473Y-42050D02*
X62473Y-42293D01*
X62488Y-42322D01*
X62502Y-42336D01*
X62531Y-42350D01*
X62588Y-42350D01*
X62616Y-42336D01*
X62631Y-42322D01*
X62645Y-42293D01*
X62645Y-42050D01*
X62945Y-42350D02*
X62773Y-42350D01*
X62859Y-42350D02*
X62859Y-42050D01*
X62830Y-42093D01*
X62802Y-42122D01*
X62773Y-42136D01*
X61880Y-43243D02*
X61780Y-43243D01*
X61780Y-43400D02*
X61780Y-43100D01*
X61923Y-43100D01*
X61995Y-43100D02*
X62166Y-43100D01*
X62080Y-43400D02*
X62080Y-43100D01*
X62252Y-43129D02*
X62266Y-43115D01*
X62295Y-43100D01*
X62366Y-43100D01*
X62395Y-43115D01*
X62409Y-43129D01*
X62424Y-43158D01*
X62424Y-43186D01*
X62409Y-43229D01*
X62238Y-43400D01*
X62424Y-43400D01*
X62524Y-43100D02*
X62710Y-43100D01*
X62610Y-43215D01*
X62652Y-43215D01*
X62681Y-43229D01*
X62695Y-43243D01*
X62710Y-43272D01*
X62710Y-43343D01*
X62695Y-43372D01*
X62681Y-43386D01*
X62652Y-43400D01*
X62567Y-43400D01*
X62538Y-43386D01*
X62524Y-43372D01*
X62824Y-43129D02*
X62838Y-43115D01*
X62867Y-43100D01*
X62938Y-43100D01*
X62967Y-43115D01*
X62981Y-43129D01*
X62996Y-43158D01*
X62996Y-43186D01*
X62981Y-43229D01*
X62810Y-43400D01*
X62996Y-43400D01*
X63296Y-43400D02*
X63196Y-43258D01*
X63124Y-43400D02*
X63124Y-43100D01*
X63239Y-43100D01*
X63267Y-43115D01*
X63282Y-43129D01*
X63296Y-43158D01*
X63296Y-43200D01*
X63282Y-43229D01*
X63267Y-43243D01*
X63239Y-43258D01*
X63124Y-43258D01*
X63567Y-43400D02*
X63424Y-43400D01*
X63424Y-43100D01*
X58758Y-44502D02*
X58746Y-44514D01*
X58711Y-44526D01*
X58687Y-44526D01*
X58651Y-44514D01*
X58627Y-44490D01*
X58616Y-44467D01*
X58604Y-44419D01*
X58604Y-44383D01*
X58616Y-44336D01*
X58627Y-44312D01*
X58651Y-44288D01*
X58687Y-44276D01*
X58711Y-44276D01*
X58746Y-44288D01*
X58758Y-44300D01*
X58996Y-44526D02*
X58854Y-44526D01*
X58925Y-44526D02*
X58925Y-44276D01*
X58901Y-44312D01*
X58877Y-44336D01*
X58854Y-44348D01*
X57132Y-44534D02*
X57120Y-44546D01*
X57085Y-44558D01*
X57061Y-44558D01*
X57025Y-44546D01*
X57001Y-44522D01*
X56990Y-44499D01*
X56978Y-44451D01*
X56978Y-44415D01*
X56990Y-44368D01*
X57001Y-44344D01*
X57025Y-44320D01*
X57061Y-44308D01*
X57085Y-44308D01*
X57120Y-44320D01*
X57132Y-44332D01*
X57228Y-44332D02*
X57240Y-44320D01*
X57263Y-44308D01*
X57323Y-44308D01*
X57347Y-44320D01*
X57359Y-44332D01*
X57370Y-44356D01*
X57370Y-44380D01*
X57359Y-44415D01*
X57216Y-44558D01*
X57370Y-44558D01*
G54D19*
X59798Y-40176D02*
X59798Y-39876D01*
X59870Y-39876D01*
X59913Y-39891D01*
X59941Y-39919D01*
X59956Y-39948D01*
X59970Y-40005D01*
X59970Y-40048D01*
X59956Y-40105D01*
X59941Y-40134D01*
X59913Y-40162D01*
X59870Y-40176D01*
X59798Y-40176D01*
X60256Y-40176D02*
X60084Y-40176D01*
X60170Y-40176D02*
X60170Y-39876D01*
X60141Y-39919D01*
X60113Y-39948D01*
X60084Y-39962D01*
X59827Y-37176D02*
X59684Y-37176D01*
X59684Y-36876D01*
X59927Y-37019D02*
X60027Y-37019D01*
X60070Y-37176D02*
X59927Y-37176D01*
X59927Y-36876D01*
X60070Y-36876D01*
X60198Y-37176D02*
X60198Y-36876D01*
X60270Y-36876D01*
X60313Y-36891D01*
X60341Y-36919D01*
X60356Y-36948D01*
X60370Y-37005D01*
X60370Y-37048D01*
X60356Y-37105D01*
X60341Y-37134D01*
X60313Y-37162D01*
X60270Y-37176D01*
X60198Y-37176D01*
X63118Y-40216D02*
X63118Y-39916D01*
X63190Y-39916D01*
X63233Y-39931D01*
X63261Y-39959D01*
X63276Y-39988D01*
X63290Y-40045D01*
X63290Y-40088D01*
X63276Y-40145D01*
X63261Y-40174D01*
X63233Y-40202D01*
X63190Y-40216D01*
X63118Y-40216D01*
X63404Y-39945D02*
X63418Y-39931D01*
X63447Y-39916D01*
X63518Y-39916D01*
X63547Y-39931D01*
X63561Y-39945D01*
X63576Y-39974D01*
X63576Y-40002D01*
X63561Y-40045D01*
X63390Y-40216D01*
X63576Y-40216D01*
X63147Y-37216D02*
X63004Y-37216D01*
X63004Y-36916D01*
X63247Y-37059D02*
X63347Y-37059D01*
X63390Y-37216D02*
X63247Y-37216D01*
X63247Y-36916D01*
X63390Y-36916D01*
X63518Y-37216D02*
X63518Y-36916D01*
X63590Y-36916D01*
X63633Y-36931D01*
X63661Y-36959D01*
X63676Y-36988D01*
X63690Y-37045D01*
X63690Y-37088D01*
X63676Y-37145D01*
X63661Y-37174D01*
X63633Y-37202D01*
X63590Y-37216D01*
X63518Y-37216D01*
G54D20*
X55198Y-45590D02*
X55189Y-45600D01*
X55161Y-45609D01*
X55142Y-45609D01*
X55114Y-45600D01*
X55095Y-45581D01*
X55086Y-45562D01*
X55077Y-45525D01*
X55077Y-45497D01*
X55086Y-45459D01*
X55095Y-45440D01*
X55114Y-45422D01*
X55142Y-45412D01*
X55161Y-45412D01*
X55189Y-45422D01*
X55198Y-45431D01*
X55283Y-45609D02*
X55283Y-45412D01*
X55358Y-45412D01*
X55377Y-45422D01*
X55386Y-45431D01*
X55395Y-45450D01*
X55395Y-45478D01*
X55386Y-45497D01*
X55377Y-45506D01*
X55358Y-45515D01*
X55283Y-45515D01*
X55583Y-45609D02*
X55471Y-45609D01*
X55527Y-45609D02*
X55527Y-45412D01*
X55508Y-45440D01*
X55489Y-45459D01*
X55471Y-45469D01*
M02*
