G04 (created by PCBNEW-RS274X (2012-jan-04)-stable) date Fri 25 Jan 2013 16:17:33 CET*
G01*
G70*
G90*
%MOIN*%
G04 Gerber Fmt 3.4, Leading zero omitted, Abs format*
%FSLAX34Y34*%
G04 APERTURE LIST*
%ADD10C,0.006000*%
%ADD11C,0.015000*%
%ADD12C,0.060000*%
%ADD13C,0.106300*%
%ADD14R,0.016000X0.050000*%
%ADD15R,0.035000X0.055000*%
%ADD16C,0.066000*%
%ADD17R,0.055000X0.035000*%
%ADD18O,0.080000X0.055000*%
%ADD19R,0.076800X0.059100*%
%ADD20C,0.035000*%
%ADD21C,0.009800*%
%ADD22C,0.010000*%
G04 APERTURE END LIST*
G54D10*
G54D11*
X53350Y-37475D02*
X53375Y-37475D01*
X53350Y-46050D02*
X53350Y-37475D01*
X68350Y-46050D02*
X53350Y-46050D01*
X68350Y-37450D02*
X68350Y-46050D01*
X53350Y-37450D02*
X68350Y-37450D01*
G54D12*
X56060Y-42040D03*
X56060Y-41040D03*
X55273Y-41040D03*
X55273Y-42040D03*
G54D13*
X54210Y-43902D03*
X54210Y-39178D03*
G54D14*
X61002Y-44229D03*
X61252Y-44229D03*
X61512Y-44229D03*
X61772Y-44229D03*
X62022Y-44229D03*
X62282Y-44229D03*
X62542Y-44229D03*
X62792Y-44229D03*
X63052Y-44229D03*
X63302Y-44229D03*
X63562Y-44229D03*
X63822Y-44229D03*
X64072Y-44229D03*
X64332Y-44229D03*
X64332Y-41429D03*
X64072Y-41429D03*
X63832Y-41429D03*
X63562Y-41429D03*
X63302Y-41429D03*
X63052Y-41429D03*
X62792Y-41429D03*
X62542Y-41429D03*
X62282Y-41429D03*
X62022Y-41429D03*
X61772Y-41429D03*
X61512Y-41429D03*
X61252Y-41429D03*
X61002Y-41429D03*
G54D15*
X58425Y-44425D03*
X59175Y-44425D03*
X56799Y-44457D03*
X57549Y-44457D03*
G54D16*
X60520Y-38555D03*
X59520Y-38555D03*
X63840Y-38595D03*
X62840Y-38595D03*
G54D17*
X59000Y-41955D03*
X59000Y-41495D03*
X59000Y-42405D03*
G54D18*
X67525Y-40165D03*
X67525Y-41165D03*
X67525Y-42165D03*
X67525Y-43165D03*
X67525Y-44165D03*
X67525Y-39165D03*
X67525Y-45165D03*
G54D19*
X54799Y-45020D03*
X55881Y-45020D03*
G54D20*
X56060Y-42040D03*
X63350Y-40250D03*
X61600Y-39220D03*
X59100Y-43580D03*
X57880Y-42120D03*
X66450Y-42200D03*
X67525Y-42165D03*
X64340Y-42480D03*
X55273Y-41040D03*
X63940Y-42240D03*
X56060Y-41040D03*
X66700Y-42750D03*
X67525Y-43165D03*
X67525Y-40165D03*
X61560Y-43440D03*
X59720Y-42020D03*
X65300Y-41480D03*
X67525Y-41165D03*
X67525Y-44165D03*
X65050Y-43100D03*
X62450Y-39350D03*
X66350Y-45400D03*
X67525Y-45165D03*
X60900Y-40350D03*
X65650Y-38600D03*
X55273Y-42040D03*
X67525Y-39165D03*
X60000Y-45350D03*
X62550Y-44850D03*
G54D21*
X63250Y-42450D02*
X63832Y-41868D01*
X59600Y-42450D02*
X63250Y-42450D01*
X59645Y-42405D02*
X59600Y-42450D01*
X57549Y-44457D02*
X57549Y-42951D01*
X58095Y-42405D02*
X59000Y-42405D01*
X57549Y-42951D02*
X58095Y-42405D01*
X59000Y-42405D02*
X59645Y-42405D01*
X63832Y-41868D02*
X63832Y-41429D01*
X63052Y-40702D02*
X63052Y-41429D01*
X55881Y-42219D02*
X55881Y-45020D01*
X63350Y-40250D02*
X63052Y-40702D01*
X61600Y-39220D02*
X60960Y-39860D01*
X60960Y-39860D02*
X59980Y-39860D01*
X59980Y-39860D02*
X59000Y-40840D01*
X59000Y-40840D02*
X59000Y-41495D01*
X58000Y-42000D02*
X57880Y-42120D01*
X56060Y-42040D02*
X55881Y-42219D01*
X59175Y-43655D02*
X59175Y-44425D01*
X59100Y-43580D02*
X59175Y-43655D01*
X58000Y-41495D02*
X59000Y-41495D01*
X57160Y-42040D02*
X57705Y-41495D01*
X58000Y-41495D02*
X58000Y-42000D01*
X57705Y-41495D02*
X58000Y-41495D01*
X56060Y-42040D02*
X57160Y-42040D01*
X65150Y-43500D02*
X66450Y-42200D01*
X63750Y-43500D02*
X65150Y-43500D01*
X63562Y-44229D02*
X63562Y-43688D01*
X63562Y-43688D02*
X63750Y-43500D01*
X64332Y-42472D02*
X64340Y-42480D01*
X64332Y-41429D02*
X64332Y-42472D01*
X64072Y-41429D02*
X64072Y-42108D01*
X64072Y-42108D02*
X63940Y-42240D01*
X61950Y-45400D02*
X64050Y-45400D01*
X61252Y-44702D02*
X61950Y-45400D01*
X64050Y-45400D02*
X66700Y-42750D01*
X61252Y-44229D02*
X61252Y-44702D01*
X64760Y-42820D02*
X66620Y-40960D01*
X66620Y-40960D02*
X66620Y-40340D01*
X66620Y-40340D02*
X66795Y-40165D01*
X61772Y-43652D02*
X61772Y-44229D01*
X61560Y-43440D02*
X61772Y-43652D01*
X59655Y-41955D02*
X59720Y-42020D01*
X61560Y-43440D02*
X61580Y-43440D01*
X59000Y-41955D02*
X59655Y-41955D01*
X61580Y-43440D02*
X62200Y-42820D01*
X62200Y-42820D02*
X64760Y-42820D01*
X66795Y-40165D02*
X67525Y-40165D01*
X65300Y-41480D02*
X64740Y-40920D01*
X64740Y-40920D02*
X63360Y-40920D01*
X63302Y-40978D02*
X63302Y-41429D01*
X63360Y-40920D02*
X63302Y-40978D01*
X62022Y-43628D02*
X62550Y-43100D01*
X62022Y-44229D02*
X62022Y-43628D01*
X62550Y-43100D02*
X65050Y-43100D01*
X62542Y-39442D02*
X62542Y-41429D01*
X62450Y-39350D02*
X62542Y-39442D01*
X61002Y-44802D02*
X61850Y-45650D01*
X66300Y-45650D02*
X66300Y-45450D01*
X66300Y-45450D02*
X66350Y-45400D01*
X61850Y-45650D02*
X66300Y-45650D01*
X61002Y-44802D02*
X61002Y-44229D01*
X62200Y-40900D02*
X62282Y-40982D01*
X60900Y-40350D02*
X61450Y-40900D01*
X62282Y-40982D02*
X62282Y-41429D01*
X61450Y-40900D02*
X62200Y-40900D01*
X65250Y-38600D02*
X65650Y-38600D01*
X62792Y-41429D02*
X62792Y-40108D01*
X63250Y-39650D02*
X64200Y-39650D01*
X64200Y-39650D02*
X65250Y-38600D01*
X62792Y-40108D02*
X63250Y-39650D01*
X62792Y-41758D02*
X62792Y-41429D01*
X56799Y-44457D02*
X56799Y-45200D01*
X54799Y-45519D02*
X54799Y-45020D01*
X55280Y-42047D02*
X55280Y-44000D01*
X61772Y-41429D02*
X61750Y-41451D01*
X58425Y-45125D02*
X58400Y-45150D01*
X61750Y-41750D02*
X61950Y-41950D01*
X61750Y-41451D02*
X61750Y-41750D01*
X55280Y-44000D02*
X54799Y-44481D01*
X55273Y-42040D02*
X55280Y-42047D01*
X62600Y-41950D02*
X62792Y-41758D01*
X56800Y-45460D02*
X56600Y-45660D01*
X54799Y-44481D02*
X54799Y-45020D01*
X56799Y-45200D02*
X56800Y-45200D01*
X61512Y-41429D02*
X61772Y-41429D01*
X58350Y-45200D02*
X56800Y-45200D01*
X63562Y-41429D02*
X63562Y-41818D01*
X62650Y-42000D02*
X62600Y-41950D01*
X63380Y-42000D02*
X62650Y-42000D01*
X63562Y-41818D02*
X63380Y-42000D01*
X58400Y-45150D02*
X58350Y-45200D01*
X56800Y-45200D02*
X56800Y-45460D01*
X59300Y-45150D02*
X59500Y-45350D01*
X58425Y-44425D02*
X58425Y-45125D01*
X58400Y-45150D02*
X59300Y-45150D01*
X56600Y-45660D02*
X54940Y-45660D01*
X62550Y-44850D02*
X62542Y-44942D01*
X62542Y-44942D02*
X62542Y-44229D01*
X54940Y-45660D02*
X54799Y-45519D01*
X59500Y-45350D02*
X60000Y-45350D01*
X61950Y-41950D02*
X62600Y-41950D01*
G54D10*
G36*
X63350Y-41928D02*
X63127Y-42151D01*
X60125Y-42151D01*
X60145Y-42105D01*
X60145Y-41936D01*
X60081Y-41780D01*
X59961Y-41660D01*
X59805Y-41595D01*
X59636Y-41595D01*
X59524Y-41640D01*
X59524Y-41621D01*
X59524Y-41271D01*
X59486Y-41179D01*
X59416Y-41109D01*
X59325Y-41071D01*
X59299Y-41071D01*
X59299Y-40963D01*
X60103Y-40159D01*
X60519Y-40159D01*
X60475Y-40265D01*
X60475Y-40434D01*
X60539Y-40590D01*
X60659Y-40710D01*
X60815Y-40775D01*
X60902Y-40775D01*
X61057Y-40930D01*
X61033Y-40930D01*
X60873Y-40930D01*
X60781Y-40968D01*
X60711Y-41038D01*
X60673Y-41129D01*
X60673Y-41228D01*
X60673Y-41728D01*
X60711Y-41820D01*
X60781Y-41890D01*
X60872Y-41928D01*
X60971Y-41928D01*
X61122Y-41928D01*
X61131Y-41928D01*
X61221Y-41928D01*
X61381Y-41928D01*
X61382Y-41927D01*
X61383Y-41928D01*
X61410Y-41929D01*
X61432Y-41906D01*
X61473Y-41890D01*
X61512Y-41851D01*
X61551Y-41890D01*
X61591Y-41906D01*
X61614Y-41929D01*
X61641Y-41928D01*
X61642Y-41927D01*
X61643Y-41928D01*
X61670Y-41929D01*
X61692Y-41906D01*
X61733Y-41890D01*
X61767Y-41856D01*
X61801Y-41890D01*
X61859Y-41914D01*
X61874Y-41929D01*
X61892Y-41928D01*
X61901Y-41928D01*
X61991Y-41928D01*
X62151Y-41928D01*
X62151Y-41927D01*
X62152Y-41928D01*
X62251Y-41928D01*
X62411Y-41928D01*
X62411Y-41927D01*
X62412Y-41928D01*
X62511Y-41928D01*
X62663Y-41928D01*
X62671Y-41928D01*
X62690Y-41929D01*
X62705Y-41913D01*
X62763Y-41890D01*
X62797Y-41856D01*
X62831Y-41890D01*
X62872Y-41907D01*
X62894Y-41929D01*
X62921Y-41928D01*
X62921Y-41927D01*
X62922Y-41928D01*
X63021Y-41928D01*
X63172Y-41928D01*
X63181Y-41928D01*
X63271Y-41928D01*
X63350Y-41928D01*
X63350Y-41928D01*
G37*
G54D22*
X63350Y-41928D02*
X63127Y-42151D01*
X60125Y-42151D01*
X60145Y-42105D01*
X60145Y-41936D01*
X60081Y-41780D01*
X59961Y-41660D01*
X59805Y-41595D01*
X59636Y-41595D01*
X59524Y-41640D01*
X59524Y-41621D01*
X59524Y-41271D01*
X59486Y-41179D01*
X59416Y-41109D01*
X59325Y-41071D01*
X59299Y-41071D01*
X59299Y-40963D01*
X60103Y-40159D01*
X60519Y-40159D01*
X60475Y-40265D01*
X60475Y-40434D01*
X60539Y-40590D01*
X60659Y-40710D01*
X60815Y-40775D01*
X60902Y-40775D01*
X61057Y-40930D01*
X61033Y-40930D01*
X60873Y-40930D01*
X60781Y-40968D01*
X60711Y-41038D01*
X60673Y-41129D01*
X60673Y-41228D01*
X60673Y-41728D01*
X60711Y-41820D01*
X60781Y-41890D01*
X60872Y-41928D01*
X60971Y-41928D01*
X61122Y-41928D01*
X61131Y-41928D01*
X61221Y-41928D01*
X61381Y-41928D01*
X61382Y-41927D01*
X61383Y-41928D01*
X61410Y-41929D01*
X61432Y-41906D01*
X61473Y-41890D01*
X61512Y-41851D01*
X61551Y-41890D01*
X61591Y-41906D01*
X61614Y-41929D01*
X61641Y-41928D01*
X61642Y-41927D01*
X61643Y-41928D01*
X61670Y-41929D01*
X61692Y-41906D01*
X61733Y-41890D01*
X61767Y-41856D01*
X61801Y-41890D01*
X61859Y-41914D01*
X61874Y-41929D01*
X61892Y-41928D01*
X61901Y-41928D01*
X61991Y-41928D01*
X62151Y-41928D01*
X62151Y-41927D01*
X62152Y-41928D01*
X62251Y-41928D01*
X62411Y-41928D01*
X62411Y-41927D01*
X62412Y-41928D01*
X62511Y-41928D01*
X62663Y-41928D01*
X62671Y-41928D01*
X62690Y-41929D01*
X62705Y-41913D01*
X62763Y-41890D01*
X62797Y-41856D01*
X62831Y-41890D01*
X62872Y-41907D01*
X62894Y-41929D01*
X62921Y-41928D01*
X62921Y-41927D01*
X62922Y-41928D01*
X63021Y-41928D01*
X63172Y-41928D01*
X63181Y-41928D01*
X63271Y-41928D01*
X63350Y-41928D01*
G54D10*
G36*
X64299Y-44728D02*
X63926Y-45101D01*
X62073Y-45101D01*
X61700Y-44728D01*
X61741Y-44728D01*
X61892Y-44728D01*
X61901Y-44728D01*
X61991Y-44728D01*
X62151Y-44728D01*
X62151Y-44727D01*
X62152Y-44728D01*
X62251Y-44728D01*
X62411Y-44728D01*
X62412Y-44727D01*
X62413Y-44728D01*
X62440Y-44729D01*
X62462Y-44706D01*
X62503Y-44690D01*
X62537Y-44656D01*
X62571Y-44690D01*
X62629Y-44714D01*
X62644Y-44729D01*
X62662Y-44728D01*
X62671Y-44728D01*
X62761Y-44728D01*
X62921Y-44728D01*
X62921Y-44727D01*
X62922Y-44728D01*
X63021Y-44728D01*
X63172Y-44728D01*
X63181Y-44728D01*
X63271Y-44728D01*
X63431Y-44728D01*
X63431Y-44727D01*
X63432Y-44728D01*
X63531Y-44728D01*
X63691Y-44728D01*
X63691Y-44727D01*
X63692Y-44728D01*
X63791Y-44728D01*
X63942Y-44728D01*
X63951Y-44728D01*
X64041Y-44728D01*
X64201Y-44728D01*
X64201Y-44727D01*
X64202Y-44728D01*
X64299Y-44728D01*
X64299Y-44728D01*
G37*
G54D22*
X64299Y-44728D02*
X63926Y-45101D01*
X62073Y-45101D01*
X61700Y-44728D01*
X61741Y-44728D01*
X61892Y-44728D01*
X61901Y-44728D01*
X61991Y-44728D01*
X62151Y-44728D01*
X62151Y-44727D01*
X62152Y-44728D01*
X62251Y-44728D01*
X62411Y-44728D01*
X62412Y-44727D01*
X62413Y-44728D01*
X62440Y-44729D01*
X62462Y-44706D01*
X62503Y-44690D01*
X62537Y-44656D01*
X62571Y-44690D01*
X62629Y-44714D01*
X62644Y-44729D01*
X62662Y-44728D01*
X62671Y-44728D01*
X62761Y-44728D01*
X62921Y-44728D01*
X62921Y-44727D01*
X62922Y-44728D01*
X63021Y-44728D01*
X63172Y-44728D01*
X63181Y-44728D01*
X63271Y-44728D01*
X63431Y-44728D01*
X63431Y-44727D01*
X63432Y-44728D01*
X63531Y-44728D01*
X63691Y-44728D01*
X63691Y-44727D01*
X63692Y-44728D01*
X63791Y-44728D01*
X63942Y-44728D01*
X63951Y-44728D01*
X64041Y-44728D01*
X64201Y-44728D01*
X64201Y-44727D01*
X64202Y-44728D01*
X64299Y-44728D01*
G54D10*
G36*
X68025Y-38799D02*
X67862Y-38685D01*
X67662Y-38640D01*
X67575Y-38640D01*
X67575Y-39065D01*
X67575Y-39115D01*
X67575Y-39215D01*
X67475Y-39215D01*
X67475Y-39115D01*
X67475Y-38640D01*
X67388Y-38640D01*
X67188Y-38685D01*
X67020Y-38803D01*
X66910Y-38976D01*
X66892Y-39034D01*
X66940Y-39115D01*
X67475Y-39115D01*
X67475Y-39215D01*
X67425Y-39215D01*
X66940Y-39215D01*
X66892Y-39296D01*
X66910Y-39354D01*
X67020Y-39527D01*
X67188Y-39645D01*
X67259Y-39661D01*
X67097Y-39728D01*
X66959Y-39866D01*
X66795Y-39866D01*
X66681Y-39889D01*
X66648Y-39911D01*
X66583Y-39954D01*
X66409Y-40129D01*
X66344Y-40225D01*
X66340Y-40244D01*
X66321Y-40340D01*
X66321Y-40836D01*
X65725Y-41432D01*
X65725Y-41396D01*
X65661Y-41240D01*
X65541Y-41120D01*
X65385Y-41055D01*
X65297Y-41055D01*
X64951Y-40709D01*
X64855Y-40644D01*
X64835Y-40640D01*
X64740Y-40621D01*
X63565Y-40621D01*
X63590Y-40611D01*
X63710Y-40491D01*
X63775Y-40335D01*
X63775Y-40166D01*
X63711Y-40010D01*
X63591Y-39890D01*
X63435Y-39825D01*
X63266Y-39825D01*
X63110Y-39889D01*
X62990Y-40009D01*
X62925Y-40165D01*
X62925Y-40334D01*
X62929Y-40344D01*
X62841Y-40477D01*
X62841Y-39516D01*
X62875Y-39435D01*
X62875Y-39266D01*
X62837Y-39175D01*
X62955Y-39175D01*
X63168Y-39087D01*
X63331Y-38924D01*
X63339Y-38903D01*
X63348Y-38923D01*
X63511Y-39086D01*
X63724Y-39175D01*
X63955Y-39175D01*
X64168Y-39087D01*
X64331Y-38924D01*
X64420Y-38711D01*
X64420Y-38480D01*
X64332Y-38267D01*
X64169Y-38104D01*
X63956Y-38015D01*
X63725Y-38015D01*
X63512Y-38103D01*
X63349Y-38266D01*
X63340Y-38286D01*
X63332Y-38267D01*
X63169Y-38104D01*
X62956Y-38015D01*
X62725Y-38015D01*
X62512Y-38103D01*
X62349Y-38266D01*
X62260Y-38479D01*
X62260Y-38710D01*
X62348Y-38923D01*
X62354Y-38929D01*
X62210Y-38989D01*
X62090Y-39109D01*
X62025Y-39265D01*
X62025Y-39136D01*
X61961Y-38980D01*
X61841Y-38860D01*
X61685Y-38795D01*
X61516Y-38795D01*
X61360Y-38859D01*
X61240Y-38979D01*
X61175Y-39135D01*
X61175Y-39223D01*
X61100Y-39298D01*
X61100Y-38671D01*
X61100Y-38440D01*
X61012Y-38227D01*
X60849Y-38064D01*
X60636Y-37975D01*
X60405Y-37975D01*
X60192Y-38063D01*
X60029Y-38226D01*
X60020Y-38246D01*
X60012Y-38227D01*
X59849Y-38064D01*
X59636Y-37975D01*
X59405Y-37975D01*
X59192Y-38063D01*
X59029Y-38226D01*
X58940Y-38439D01*
X58940Y-38670D01*
X59028Y-38883D01*
X59191Y-39046D01*
X59404Y-39135D01*
X59635Y-39135D01*
X59848Y-39047D01*
X60011Y-38884D01*
X60019Y-38863D01*
X60028Y-38883D01*
X60191Y-39046D01*
X60404Y-39135D01*
X60635Y-39135D01*
X60848Y-39047D01*
X61011Y-38884D01*
X61100Y-38671D01*
X61100Y-39298D01*
X60837Y-39561D01*
X59980Y-39561D01*
X59866Y-39584D01*
X59833Y-39606D01*
X59768Y-39649D01*
X58789Y-40629D01*
X58724Y-40725D01*
X58720Y-40744D01*
X58701Y-40840D01*
X58701Y-41071D01*
X58676Y-41071D01*
X58584Y-41109D01*
X58514Y-41179D01*
X58506Y-41196D01*
X58000Y-41196D01*
X57705Y-41196D01*
X57591Y-41219D01*
X57558Y-41241D01*
X57493Y-41284D01*
X57036Y-41741D01*
X56529Y-41741D01*
X56525Y-41729D01*
X56371Y-41575D01*
X56286Y-41540D01*
X56371Y-41505D01*
X56525Y-41351D01*
X56609Y-41149D01*
X56609Y-40931D01*
X56525Y-40729D01*
X56371Y-40575D01*
X56169Y-40491D01*
X55951Y-40491D01*
X55749Y-40575D01*
X55666Y-40657D01*
X55584Y-40575D01*
X55382Y-40491D01*
X55164Y-40491D01*
X54962Y-40575D01*
X54808Y-40729D01*
X54724Y-40931D01*
X54724Y-41149D01*
X54808Y-41351D01*
X54962Y-41505D01*
X55053Y-41542D01*
X54992Y-41568D01*
X54965Y-41662D01*
X55273Y-41969D01*
X55581Y-41662D01*
X55554Y-41568D01*
X55488Y-41544D01*
X55584Y-41505D01*
X55666Y-41422D01*
X55749Y-41505D01*
X55833Y-41540D01*
X55749Y-41575D01*
X55595Y-41729D01*
X55552Y-41830D01*
X55344Y-42040D01*
X55273Y-42111D01*
X55202Y-42181D01*
X55202Y-42040D01*
X54895Y-41732D01*
X54801Y-41759D01*
X54730Y-41961D01*
X54741Y-42174D01*
X54801Y-42321D01*
X54895Y-42348D01*
X55202Y-42040D01*
X55202Y-42181D01*
X54965Y-42418D01*
X54992Y-42512D01*
X55194Y-42583D01*
X55407Y-42572D01*
X55554Y-42512D01*
X55565Y-42473D01*
X55581Y-42489D01*
X55582Y-42490D01*
X55582Y-44476D01*
X55581Y-44476D01*
X55448Y-44476D01*
X55356Y-44514D01*
X55340Y-44530D01*
X55324Y-44514D01*
X55232Y-44476D01*
X54911Y-44475D01*
X54849Y-44537D01*
X54849Y-44920D01*
X54849Y-44970D01*
X54849Y-45070D01*
X54849Y-45120D01*
X54849Y-45503D01*
X54911Y-45565D01*
X55232Y-45564D01*
X55324Y-45526D01*
X55340Y-45510D01*
X55356Y-45526D01*
X55447Y-45564D01*
X55546Y-45564D01*
X56314Y-45564D01*
X56406Y-45526D01*
X56476Y-45456D01*
X56514Y-45365D01*
X56514Y-45266D01*
X56514Y-44955D01*
X56575Y-44981D01*
X56687Y-44982D01*
X56749Y-44920D01*
X56749Y-44507D01*
X56749Y-44407D01*
X56749Y-43994D01*
X56687Y-43932D01*
X56575Y-43933D01*
X56483Y-43971D01*
X56413Y-44041D01*
X56375Y-44132D01*
X56375Y-44231D01*
X56374Y-44345D01*
X56436Y-44407D01*
X56749Y-44407D01*
X56749Y-44507D01*
X56436Y-44507D01*
X56417Y-44525D01*
X56406Y-44514D01*
X56315Y-44476D01*
X56216Y-44476D01*
X56180Y-44476D01*
X56180Y-42584D01*
X56371Y-42505D01*
X56525Y-42351D01*
X56529Y-42339D01*
X57160Y-42339D01*
X57160Y-42338D01*
X57255Y-42319D01*
X57274Y-42316D01*
X57275Y-42316D01*
X57371Y-42251D01*
X57455Y-42167D01*
X57455Y-42204D01*
X57519Y-42360D01*
X57618Y-42459D01*
X57338Y-42740D01*
X57273Y-42836D01*
X57269Y-42855D01*
X57250Y-42951D01*
X57250Y-43963D01*
X57233Y-43971D01*
X57174Y-44030D01*
X57115Y-43971D01*
X57023Y-43933D01*
X56911Y-43932D01*
X56849Y-43994D01*
X56849Y-44357D01*
X56849Y-44407D01*
X56849Y-44507D01*
X56849Y-44557D01*
X56849Y-44920D01*
X56911Y-44982D01*
X57023Y-44981D01*
X57115Y-44943D01*
X57174Y-44884D01*
X57233Y-44943D01*
X57324Y-44981D01*
X57423Y-44981D01*
X57773Y-44981D01*
X57865Y-44943D01*
X57935Y-44873D01*
X57973Y-44782D01*
X57973Y-44683D01*
X57973Y-44133D01*
X57935Y-44041D01*
X57865Y-43971D01*
X57848Y-43963D01*
X57848Y-43074D01*
X58218Y-42704D01*
X58506Y-42704D01*
X58514Y-42721D01*
X58584Y-42791D01*
X58675Y-42829D01*
X58774Y-42829D01*
X59324Y-42829D01*
X59416Y-42791D01*
X59482Y-42724D01*
X59485Y-42726D01*
X59486Y-42726D01*
X59504Y-42729D01*
X59600Y-42749D01*
X61848Y-42749D01*
X61582Y-43015D01*
X61476Y-43015D01*
X61320Y-43079D01*
X61200Y-43199D01*
X61135Y-43355D01*
X61135Y-43524D01*
X61199Y-43680D01*
X61249Y-43730D01*
X61132Y-43730D01*
X61123Y-43730D01*
X61033Y-43730D01*
X60873Y-43730D01*
X60781Y-43768D01*
X60711Y-43838D01*
X60673Y-43929D01*
X60673Y-44028D01*
X60673Y-44528D01*
X60703Y-44600D01*
X60703Y-44802D01*
X60722Y-44897D01*
X60726Y-44917D01*
X60791Y-45013D01*
X61502Y-45725D01*
X59599Y-45725D01*
X59599Y-44750D01*
X59599Y-44651D01*
X59599Y-44101D01*
X59561Y-44009D01*
X59491Y-43939D01*
X59474Y-43931D01*
X59474Y-43787D01*
X59525Y-43665D01*
X59525Y-43496D01*
X59461Y-43340D01*
X59341Y-43220D01*
X59185Y-43155D01*
X59016Y-43155D01*
X58860Y-43219D01*
X58740Y-43339D01*
X58675Y-43495D01*
X58675Y-43664D01*
X58739Y-43820D01*
X58858Y-43939D01*
X58800Y-43998D01*
X58741Y-43939D01*
X58649Y-43901D01*
X58537Y-43900D01*
X58475Y-43962D01*
X58475Y-44325D01*
X58475Y-44375D01*
X58475Y-44475D01*
X58475Y-44525D01*
X58475Y-44888D01*
X58537Y-44950D01*
X58649Y-44949D01*
X58741Y-44911D01*
X58800Y-44852D01*
X58859Y-44911D01*
X58950Y-44949D01*
X59049Y-44949D01*
X59399Y-44949D01*
X59491Y-44911D01*
X59561Y-44841D01*
X59599Y-44750D01*
X59599Y-45725D01*
X58375Y-45725D01*
X58375Y-44888D01*
X58375Y-44475D01*
X58375Y-44375D01*
X58375Y-43962D01*
X58313Y-43900D01*
X58201Y-43901D01*
X58109Y-43939D01*
X58039Y-44009D01*
X58001Y-44100D01*
X58001Y-44199D01*
X58000Y-44313D01*
X58062Y-44375D01*
X58375Y-44375D01*
X58375Y-44475D01*
X58062Y-44475D01*
X58000Y-44537D01*
X58001Y-44651D01*
X58001Y-44750D01*
X58039Y-44841D01*
X58109Y-44911D01*
X58201Y-44949D01*
X58313Y-44950D01*
X58375Y-44888D01*
X58375Y-45725D01*
X54749Y-45725D01*
X54749Y-45503D01*
X54749Y-45070D01*
X54227Y-45070D01*
X54165Y-45132D01*
X54166Y-45266D01*
X54166Y-45365D01*
X54204Y-45456D01*
X54274Y-45526D01*
X54366Y-45564D01*
X54687Y-45565D01*
X54749Y-45503D01*
X54749Y-45725D01*
X53675Y-45725D01*
X53675Y-44471D01*
X53767Y-44564D01*
X54054Y-44683D01*
X54166Y-44683D01*
X54166Y-44774D01*
X54165Y-44908D01*
X54227Y-44970D01*
X54749Y-44970D01*
X54749Y-44537D01*
X54714Y-44502D01*
X54872Y-44345D01*
X54991Y-44058D01*
X54991Y-43747D01*
X54872Y-43460D01*
X54653Y-43240D01*
X54366Y-43121D01*
X54055Y-43121D01*
X53768Y-43240D01*
X53675Y-43332D01*
X53675Y-39747D01*
X53767Y-39840D01*
X54054Y-39959D01*
X54365Y-39959D01*
X54652Y-39840D01*
X54872Y-39621D01*
X54991Y-39334D01*
X54991Y-39023D01*
X54872Y-38736D01*
X54653Y-38516D01*
X54366Y-38397D01*
X54055Y-38397D01*
X53768Y-38516D01*
X53675Y-38608D01*
X53675Y-37775D01*
X68025Y-37775D01*
X68025Y-38799D01*
X68025Y-38799D01*
G37*
G54D22*
X68025Y-38799D02*
X67862Y-38685D01*
X67662Y-38640D01*
X67575Y-38640D01*
X67575Y-39065D01*
X67575Y-39115D01*
X67575Y-39215D01*
X67475Y-39215D01*
X67475Y-39115D01*
X67475Y-38640D01*
X67388Y-38640D01*
X67188Y-38685D01*
X67020Y-38803D01*
X66910Y-38976D01*
X66892Y-39034D01*
X66940Y-39115D01*
X67475Y-39115D01*
X67475Y-39215D01*
X67425Y-39215D01*
X66940Y-39215D01*
X66892Y-39296D01*
X66910Y-39354D01*
X67020Y-39527D01*
X67188Y-39645D01*
X67259Y-39661D01*
X67097Y-39728D01*
X66959Y-39866D01*
X66795Y-39866D01*
X66681Y-39889D01*
X66648Y-39911D01*
X66583Y-39954D01*
X66409Y-40129D01*
X66344Y-40225D01*
X66340Y-40244D01*
X66321Y-40340D01*
X66321Y-40836D01*
X65725Y-41432D01*
X65725Y-41396D01*
X65661Y-41240D01*
X65541Y-41120D01*
X65385Y-41055D01*
X65297Y-41055D01*
X64951Y-40709D01*
X64855Y-40644D01*
X64835Y-40640D01*
X64740Y-40621D01*
X63565Y-40621D01*
X63590Y-40611D01*
X63710Y-40491D01*
X63775Y-40335D01*
X63775Y-40166D01*
X63711Y-40010D01*
X63591Y-39890D01*
X63435Y-39825D01*
X63266Y-39825D01*
X63110Y-39889D01*
X62990Y-40009D01*
X62925Y-40165D01*
X62925Y-40334D01*
X62929Y-40344D01*
X62841Y-40477D01*
X62841Y-39516D01*
X62875Y-39435D01*
X62875Y-39266D01*
X62837Y-39175D01*
X62955Y-39175D01*
X63168Y-39087D01*
X63331Y-38924D01*
X63339Y-38903D01*
X63348Y-38923D01*
X63511Y-39086D01*
X63724Y-39175D01*
X63955Y-39175D01*
X64168Y-39087D01*
X64331Y-38924D01*
X64420Y-38711D01*
X64420Y-38480D01*
X64332Y-38267D01*
X64169Y-38104D01*
X63956Y-38015D01*
X63725Y-38015D01*
X63512Y-38103D01*
X63349Y-38266D01*
X63340Y-38286D01*
X63332Y-38267D01*
X63169Y-38104D01*
X62956Y-38015D01*
X62725Y-38015D01*
X62512Y-38103D01*
X62349Y-38266D01*
X62260Y-38479D01*
X62260Y-38710D01*
X62348Y-38923D01*
X62354Y-38929D01*
X62210Y-38989D01*
X62090Y-39109D01*
X62025Y-39265D01*
X62025Y-39136D01*
X61961Y-38980D01*
X61841Y-38860D01*
X61685Y-38795D01*
X61516Y-38795D01*
X61360Y-38859D01*
X61240Y-38979D01*
X61175Y-39135D01*
X61175Y-39223D01*
X61100Y-39298D01*
X61100Y-38671D01*
X61100Y-38440D01*
X61012Y-38227D01*
X60849Y-38064D01*
X60636Y-37975D01*
X60405Y-37975D01*
X60192Y-38063D01*
X60029Y-38226D01*
X60020Y-38246D01*
X60012Y-38227D01*
X59849Y-38064D01*
X59636Y-37975D01*
X59405Y-37975D01*
X59192Y-38063D01*
X59029Y-38226D01*
X58940Y-38439D01*
X58940Y-38670D01*
X59028Y-38883D01*
X59191Y-39046D01*
X59404Y-39135D01*
X59635Y-39135D01*
X59848Y-39047D01*
X60011Y-38884D01*
X60019Y-38863D01*
X60028Y-38883D01*
X60191Y-39046D01*
X60404Y-39135D01*
X60635Y-39135D01*
X60848Y-39047D01*
X61011Y-38884D01*
X61100Y-38671D01*
X61100Y-39298D01*
X60837Y-39561D01*
X59980Y-39561D01*
X59866Y-39584D01*
X59833Y-39606D01*
X59768Y-39649D01*
X58789Y-40629D01*
X58724Y-40725D01*
X58720Y-40744D01*
X58701Y-40840D01*
X58701Y-41071D01*
X58676Y-41071D01*
X58584Y-41109D01*
X58514Y-41179D01*
X58506Y-41196D01*
X58000Y-41196D01*
X57705Y-41196D01*
X57591Y-41219D01*
X57558Y-41241D01*
X57493Y-41284D01*
X57036Y-41741D01*
X56529Y-41741D01*
X56525Y-41729D01*
X56371Y-41575D01*
X56286Y-41540D01*
X56371Y-41505D01*
X56525Y-41351D01*
X56609Y-41149D01*
X56609Y-40931D01*
X56525Y-40729D01*
X56371Y-40575D01*
X56169Y-40491D01*
X55951Y-40491D01*
X55749Y-40575D01*
X55666Y-40657D01*
X55584Y-40575D01*
X55382Y-40491D01*
X55164Y-40491D01*
X54962Y-40575D01*
X54808Y-40729D01*
X54724Y-40931D01*
X54724Y-41149D01*
X54808Y-41351D01*
X54962Y-41505D01*
X55053Y-41542D01*
X54992Y-41568D01*
X54965Y-41662D01*
X55273Y-41969D01*
X55581Y-41662D01*
X55554Y-41568D01*
X55488Y-41544D01*
X55584Y-41505D01*
X55666Y-41422D01*
X55749Y-41505D01*
X55833Y-41540D01*
X55749Y-41575D01*
X55595Y-41729D01*
X55552Y-41830D01*
X55344Y-42040D01*
X55273Y-42111D01*
X55202Y-42181D01*
X55202Y-42040D01*
X54895Y-41732D01*
X54801Y-41759D01*
X54730Y-41961D01*
X54741Y-42174D01*
X54801Y-42321D01*
X54895Y-42348D01*
X55202Y-42040D01*
X55202Y-42181D01*
X54965Y-42418D01*
X54992Y-42512D01*
X55194Y-42583D01*
X55407Y-42572D01*
X55554Y-42512D01*
X55565Y-42473D01*
X55581Y-42489D01*
X55582Y-42490D01*
X55582Y-44476D01*
X55581Y-44476D01*
X55448Y-44476D01*
X55356Y-44514D01*
X55340Y-44530D01*
X55324Y-44514D01*
X55232Y-44476D01*
X54911Y-44475D01*
X54849Y-44537D01*
X54849Y-44920D01*
X54849Y-44970D01*
X54849Y-45070D01*
X54849Y-45120D01*
X54849Y-45503D01*
X54911Y-45565D01*
X55232Y-45564D01*
X55324Y-45526D01*
X55340Y-45510D01*
X55356Y-45526D01*
X55447Y-45564D01*
X55546Y-45564D01*
X56314Y-45564D01*
X56406Y-45526D01*
X56476Y-45456D01*
X56514Y-45365D01*
X56514Y-45266D01*
X56514Y-44955D01*
X56575Y-44981D01*
X56687Y-44982D01*
X56749Y-44920D01*
X56749Y-44507D01*
X56749Y-44407D01*
X56749Y-43994D01*
X56687Y-43932D01*
X56575Y-43933D01*
X56483Y-43971D01*
X56413Y-44041D01*
X56375Y-44132D01*
X56375Y-44231D01*
X56374Y-44345D01*
X56436Y-44407D01*
X56749Y-44407D01*
X56749Y-44507D01*
X56436Y-44507D01*
X56417Y-44525D01*
X56406Y-44514D01*
X56315Y-44476D01*
X56216Y-44476D01*
X56180Y-44476D01*
X56180Y-42584D01*
X56371Y-42505D01*
X56525Y-42351D01*
X56529Y-42339D01*
X57160Y-42339D01*
X57160Y-42338D01*
X57255Y-42319D01*
X57274Y-42316D01*
X57275Y-42316D01*
X57371Y-42251D01*
X57455Y-42167D01*
X57455Y-42204D01*
X57519Y-42360D01*
X57618Y-42459D01*
X57338Y-42740D01*
X57273Y-42836D01*
X57269Y-42855D01*
X57250Y-42951D01*
X57250Y-43963D01*
X57233Y-43971D01*
X57174Y-44030D01*
X57115Y-43971D01*
X57023Y-43933D01*
X56911Y-43932D01*
X56849Y-43994D01*
X56849Y-44357D01*
X56849Y-44407D01*
X56849Y-44507D01*
X56849Y-44557D01*
X56849Y-44920D01*
X56911Y-44982D01*
X57023Y-44981D01*
X57115Y-44943D01*
X57174Y-44884D01*
X57233Y-44943D01*
X57324Y-44981D01*
X57423Y-44981D01*
X57773Y-44981D01*
X57865Y-44943D01*
X57935Y-44873D01*
X57973Y-44782D01*
X57973Y-44683D01*
X57973Y-44133D01*
X57935Y-44041D01*
X57865Y-43971D01*
X57848Y-43963D01*
X57848Y-43074D01*
X58218Y-42704D01*
X58506Y-42704D01*
X58514Y-42721D01*
X58584Y-42791D01*
X58675Y-42829D01*
X58774Y-42829D01*
X59324Y-42829D01*
X59416Y-42791D01*
X59482Y-42724D01*
X59485Y-42726D01*
X59486Y-42726D01*
X59504Y-42729D01*
X59600Y-42749D01*
X61848Y-42749D01*
X61582Y-43015D01*
X61476Y-43015D01*
X61320Y-43079D01*
X61200Y-43199D01*
X61135Y-43355D01*
X61135Y-43524D01*
X61199Y-43680D01*
X61249Y-43730D01*
X61132Y-43730D01*
X61123Y-43730D01*
X61033Y-43730D01*
X60873Y-43730D01*
X60781Y-43768D01*
X60711Y-43838D01*
X60673Y-43929D01*
X60673Y-44028D01*
X60673Y-44528D01*
X60703Y-44600D01*
X60703Y-44802D01*
X60722Y-44897D01*
X60726Y-44917D01*
X60791Y-45013D01*
X61502Y-45725D01*
X59599Y-45725D01*
X59599Y-44750D01*
X59599Y-44651D01*
X59599Y-44101D01*
X59561Y-44009D01*
X59491Y-43939D01*
X59474Y-43931D01*
X59474Y-43787D01*
X59525Y-43665D01*
X59525Y-43496D01*
X59461Y-43340D01*
X59341Y-43220D01*
X59185Y-43155D01*
X59016Y-43155D01*
X58860Y-43219D01*
X58740Y-43339D01*
X58675Y-43495D01*
X58675Y-43664D01*
X58739Y-43820D01*
X58858Y-43939D01*
X58800Y-43998D01*
X58741Y-43939D01*
X58649Y-43901D01*
X58537Y-43900D01*
X58475Y-43962D01*
X58475Y-44325D01*
X58475Y-44375D01*
X58475Y-44475D01*
X58475Y-44525D01*
X58475Y-44888D01*
X58537Y-44950D01*
X58649Y-44949D01*
X58741Y-44911D01*
X58800Y-44852D01*
X58859Y-44911D01*
X58950Y-44949D01*
X59049Y-44949D01*
X59399Y-44949D01*
X59491Y-44911D01*
X59561Y-44841D01*
X59599Y-44750D01*
X59599Y-45725D01*
X58375Y-45725D01*
X58375Y-44888D01*
X58375Y-44475D01*
X58375Y-44375D01*
X58375Y-43962D01*
X58313Y-43900D01*
X58201Y-43901D01*
X58109Y-43939D01*
X58039Y-44009D01*
X58001Y-44100D01*
X58001Y-44199D01*
X58000Y-44313D01*
X58062Y-44375D01*
X58375Y-44375D01*
X58375Y-44475D01*
X58062Y-44475D01*
X58000Y-44537D01*
X58001Y-44651D01*
X58001Y-44750D01*
X58039Y-44841D01*
X58109Y-44911D01*
X58201Y-44949D01*
X58313Y-44950D01*
X58375Y-44888D01*
X58375Y-45725D01*
X54749Y-45725D01*
X54749Y-45503D01*
X54749Y-45070D01*
X54227Y-45070D01*
X54165Y-45132D01*
X54166Y-45266D01*
X54166Y-45365D01*
X54204Y-45456D01*
X54274Y-45526D01*
X54366Y-45564D01*
X54687Y-45565D01*
X54749Y-45503D01*
X54749Y-45725D01*
X53675Y-45725D01*
X53675Y-44471D01*
X53767Y-44564D01*
X54054Y-44683D01*
X54166Y-44683D01*
X54166Y-44774D01*
X54165Y-44908D01*
X54227Y-44970D01*
X54749Y-44970D01*
X54749Y-44537D01*
X54714Y-44502D01*
X54872Y-44345D01*
X54991Y-44058D01*
X54991Y-43747D01*
X54872Y-43460D01*
X54653Y-43240D01*
X54366Y-43121D01*
X54055Y-43121D01*
X53768Y-43240D01*
X53675Y-43332D01*
X53675Y-39747D01*
X53767Y-39840D01*
X54054Y-39959D01*
X54365Y-39959D01*
X54652Y-39840D01*
X54872Y-39621D01*
X54991Y-39334D01*
X54991Y-39023D01*
X54872Y-38736D01*
X54653Y-38516D01*
X54366Y-38397D01*
X54055Y-38397D01*
X53768Y-38516D01*
X53675Y-38608D01*
X53675Y-37775D01*
X68025Y-37775D01*
X68025Y-38799D01*
M02*
