M48
;DRILL file {Pcbnew (2012-jan-04)-stable} date Fri 25 Jan 2013 16:17:39 CET
;FORMAT={-:-/ absolute / inch / decimal}
FMAT,2
INCH,TZ
T1C0.025
T2C0.032
T3C0.040
T4C0.091
%
G90
G05
M72
T1
X5.527Y-4.104
X5.527Y-4.204
X5.606Y-4.104
X5.606Y-4.204
X5.788Y-4.212
X5.910Y-4.358
X5.972Y-4.202
X6.000Y-4.535
X6.090Y-4.035
X6.156Y-4.344
X6.160Y-3.922
X6.245Y-3.935
X6.255Y-4.485
X6.335Y-4.025
X6.394Y-4.224
X6.434Y-4.248
X6.505Y-4.310
X6.530Y-4.148
X6.565Y-3.860
X6.635Y-4.540
X6.645Y-4.220
X6.670Y-4.275
X6.753Y-3.917
X6.753Y-4.017
X6.753Y-4.117
X6.753Y-4.216
X6.753Y-4.317
X6.753Y-4.417
X6.753Y-4.517
T2
X5.527Y-4.104
X5.527Y-4.204
X5.606Y-4.104
X5.606Y-4.204
X5.952Y-3.856
X6.052Y-3.856
X6.284Y-3.860
X6.384Y-3.860
T3
X6.753Y-3.917
X6.753Y-4.017
X6.753Y-4.117
X6.753Y-4.216
X6.753Y-4.317
X6.753Y-4.417
X6.753Y-4.517
T4
X5.421Y-3.918
T0
M30
