G04 (created by PCBNEW-RS274X (2012-jan-04)-stable) date Fri 25 Jan 2013 15:52:51 CET*
G01*
G70*
G90*
%MOIN*%
G04 Gerber Fmt 3.4, Leading zero omitted, Abs format*
%FSLAX34Y34*%
G04 APERTURE LIST*
%ADD10C,0.006000*%
%ADD11R,0.016000X0.050000*%
%ADD12R,0.035000X0.055000*%
%ADD13R,0.025000X0.045000*%
%ADD14R,0.031400X0.031400*%
%ADD15R,0.045000X0.025000*%
%ADD16R,0.074700X0.046200*%
%ADD17R,0.074700X0.093500*%
%ADD18R,0.082700X0.058000*%
%ADD19R,0.054300X0.017700*%
%ADD20R,0.086600X0.060000*%
%ADD21O,0.086600X0.060000*%
%ADD22R,0.076800X0.059100*%
%ADD23C,0.035000*%
%ADD24C,0.010000*%
%ADD25C,0.008000*%
G04 APERTURE END LIST*
G54D10*
G54D11*
X61002Y-44229D03*
X61252Y-44229D03*
X61512Y-44229D03*
X61772Y-44229D03*
X62022Y-44229D03*
X62282Y-44229D03*
X62542Y-44229D03*
X62792Y-44229D03*
X63052Y-44229D03*
X63302Y-44229D03*
X63562Y-44229D03*
X63822Y-44229D03*
X64072Y-44229D03*
X64332Y-44229D03*
X64332Y-41429D03*
X64072Y-41429D03*
X63832Y-41429D03*
X63562Y-41429D03*
X63302Y-41429D03*
X63052Y-41429D03*
X62792Y-41429D03*
X62542Y-41429D03*
X62282Y-41429D03*
X62022Y-41429D03*
X61772Y-41429D03*
X61512Y-41429D03*
X61252Y-41429D03*
X61002Y-41429D03*
G54D12*
X59580Y-43820D03*
X60040Y-43820D03*
X59130Y-43820D03*
G54D13*
X59350Y-41050D03*
X59950Y-41050D03*
X59350Y-41850D03*
X59950Y-41850D03*
G54D14*
X61200Y-39705D03*
X61200Y-40295D03*
X62600Y-39705D03*
X62600Y-40295D03*
G54D15*
X62000Y-39700D03*
X62000Y-40300D03*
X63400Y-40300D03*
X63400Y-39700D03*
G54D16*
X57140Y-41430D03*
X57140Y-42090D03*
G54D17*
X57140Y-42907D03*
X57140Y-40613D03*
G54D18*
X58045Y-42729D03*
X58045Y-40791D03*
G54D19*
X58187Y-41248D03*
X58187Y-41504D03*
X58187Y-41760D03*
X58187Y-42016D03*
X58187Y-42272D03*
G54D20*
X66400Y-39050D03*
G54D21*
X66400Y-40050D03*
X66400Y-41050D03*
X66400Y-42050D03*
X66400Y-43050D03*
X66400Y-44050D03*
X66400Y-45050D03*
G54D22*
X59109Y-42650D03*
X60191Y-42650D03*
G54D23*
X60400Y-42100D03*
X64700Y-40625D03*
X65000Y-42400D03*
X61200Y-43400D03*
X66400Y-40050D03*
X63180Y-42040D03*
X66400Y-41050D03*
X65200Y-44400D03*
X61000Y-44800D03*
X60700Y-40775D03*
X59300Y-40375D03*
X64800Y-41480D03*
X58840Y-41960D03*
X58860Y-41480D03*
X64060Y-42120D03*
G54D24*
X64250Y-40625D02*
X64700Y-40625D01*
X60200Y-42100D02*
X59950Y-41850D01*
X59650Y-43050D02*
X59650Y-43070D01*
X63832Y-41429D02*
X63832Y-41043D01*
X59650Y-43070D02*
X59440Y-43280D01*
X59440Y-43280D02*
X59280Y-43280D01*
X59280Y-43280D02*
X59130Y-43430D01*
X59130Y-43430D02*
X59130Y-43820D01*
X59950Y-41850D02*
X59950Y-41950D01*
X59650Y-42250D02*
X59950Y-41950D01*
X59650Y-43050D02*
X59650Y-42250D01*
X60400Y-42100D02*
X60200Y-42100D01*
X63832Y-41043D02*
X64250Y-40625D01*
X62000Y-39200D02*
X62000Y-39700D01*
X59950Y-39925D02*
X60675Y-39200D01*
X63800Y-40200D02*
X63700Y-40300D01*
X62000Y-39200D02*
X63600Y-39200D01*
G54D25*
X63400Y-40400D02*
X63400Y-40300D01*
G54D24*
X60675Y-39200D02*
X62000Y-39200D01*
X63700Y-40300D02*
X63400Y-40300D01*
X63600Y-39200D02*
X63800Y-39400D01*
X59140Y-40000D02*
X59950Y-40000D01*
X59950Y-41050D02*
X59950Y-40000D01*
X63052Y-41429D02*
X63052Y-40748D01*
X59950Y-40000D02*
X59950Y-39925D01*
X58187Y-41248D02*
X58512Y-41248D01*
X58720Y-41040D02*
X58720Y-40420D01*
X60860Y-41900D02*
X60860Y-42600D01*
X60040Y-43820D02*
X60040Y-42801D01*
X60810Y-42650D02*
X60191Y-42650D01*
X60040Y-42801D02*
X60191Y-42650D01*
X58720Y-40420D02*
X59140Y-40000D01*
X63052Y-40748D02*
X63400Y-40400D01*
X59950Y-41050D02*
X60010Y-41050D01*
X60010Y-41050D02*
X60860Y-41900D01*
X60860Y-42600D02*
X60810Y-42650D01*
X58512Y-41248D02*
X58720Y-41040D01*
X63800Y-39400D02*
X63800Y-40200D01*
X63600Y-43600D02*
X64800Y-43600D01*
X64800Y-43600D02*
X65000Y-43400D01*
X63562Y-44229D02*
X63562Y-43638D01*
X63562Y-43638D02*
X63600Y-43600D01*
X65000Y-43400D02*
X65000Y-42400D01*
X61252Y-44229D02*
X61252Y-43452D01*
G54D25*
X61252Y-43452D02*
X61200Y-43400D01*
G54D24*
X61460Y-45180D02*
X65520Y-45180D01*
X65750Y-40050D02*
X66400Y-40050D01*
X65600Y-40200D02*
X65750Y-40050D01*
X65600Y-45100D02*
X65600Y-40200D01*
X65520Y-45180D02*
X65600Y-45100D01*
X59580Y-44660D02*
X60100Y-45180D01*
X61564Y-45180D02*
X61772Y-44972D01*
X60100Y-45180D02*
X61460Y-45180D01*
X61460Y-45180D02*
X61564Y-45180D01*
X61772Y-44928D02*
X61772Y-44972D01*
X59580Y-43820D02*
X59580Y-44660D01*
X61772Y-44229D02*
X61772Y-44928D01*
X63302Y-41429D02*
X63302Y-41918D01*
X63302Y-41918D02*
X63180Y-42040D01*
X62022Y-44229D02*
X62022Y-44722D01*
X64850Y-44750D02*
X65200Y-44400D01*
X62022Y-44722D02*
X62050Y-44750D01*
X62050Y-44750D02*
X64850Y-44750D01*
X62542Y-41429D02*
X62542Y-40353D01*
G54D25*
X62542Y-40353D02*
X62600Y-40295D01*
G54D24*
X61002Y-44229D02*
X61002Y-44798D01*
G54D25*
X61002Y-44798D02*
X61000Y-44800D01*
G54D24*
X62282Y-40757D02*
X62250Y-40725D01*
X62282Y-41429D02*
X62282Y-40757D01*
X61630Y-40725D02*
X61200Y-40295D01*
X62250Y-40725D02*
X61630Y-40725D01*
X62542Y-42440D02*
X63280Y-42440D01*
X63562Y-41838D02*
X63562Y-41429D01*
X63562Y-42158D02*
X63562Y-41838D01*
X63280Y-42440D02*
X63562Y-42158D01*
X62542Y-42440D02*
X61460Y-42440D01*
X61512Y-42388D02*
X61512Y-41832D01*
X61460Y-42440D02*
X61512Y-42388D01*
X63562Y-41429D02*
X63562Y-40918D01*
X63562Y-40918D02*
X65430Y-39050D01*
X65430Y-39050D02*
X66400Y-39050D01*
X59350Y-40425D02*
X59300Y-40375D01*
X60775Y-40850D02*
X61375Y-40850D01*
X61375Y-40850D02*
X61512Y-40987D01*
X62542Y-42258D02*
X62792Y-42008D01*
X59350Y-41050D02*
X59350Y-40425D01*
X60700Y-40775D02*
X60775Y-40850D01*
X59350Y-41050D02*
X59350Y-41850D01*
X59109Y-42650D02*
X59109Y-42431D01*
X59109Y-42431D02*
X59350Y-42190D01*
X58731Y-42272D02*
X59109Y-42650D01*
X59350Y-42190D02*
X59350Y-41850D01*
X61512Y-40987D02*
X61512Y-41429D01*
G54D25*
X62792Y-42000D02*
X62792Y-42008D01*
G54D24*
X58187Y-42272D02*
X58731Y-42272D01*
G54D25*
X61512Y-41429D02*
X61772Y-41429D01*
G54D24*
X61512Y-41888D02*
X61512Y-41832D01*
X61512Y-41832D02*
X61512Y-41429D01*
X62792Y-42008D02*
X62792Y-41429D01*
X62542Y-44229D02*
X62542Y-42440D01*
X62542Y-42440D02*
X62542Y-42258D01*
X61600Y-40200D02*
X61600Y-39800D01*
X61600Y-39800D02*
X61505Y-39705D01*
X61505Y-39705D02*
X61200Y-39705D01*
X62000Y-40300D02*
X61700Y-40300D01*
X61700Y-40300D02*
X61600Y-40200D01*
X63400Y-39700D02*
X62605Y-39700D01*
G54D25*
X62605Y-39700D02*
X62600Y-39705D01*
G54D24*
X64749Y-41429D02*
X64332Y-41429D01*
X64800Y-41480D02*
X64749Y-41429D01*
X58640Y-41760D02*
X58840Y-41960D01*
X58187Y-41760D02*
X58640Y-41760D01*
X58836Y-41504D02*
X58860Y-41480D01*
X64060Y-42120D02*
X64072Y-42108D01*
X64072Y-42108D02*
X64072Y-41429D01*
X58187Y-41504D02*
X58836Y-41504D01*
G54D10*
G36*
X59159Y-42700D02*
X59059Y-42700D01*
X59059Y-42600D01*
X59159Y-42600D01*
X59159Y-42700D01*
X59159Y-42700D01*
G37*
G54D24*
X59159Y-42700D02*
X59059Y-42700D01*
X59059Y-42600D01*
X59159Y-42600D01*
X59159Y-42700D01*
G54D10*
G36*
X59650Y-40648D02*
X59616Y-40614D01*
X59524Y-40576D01*
X59462Y-40575D01*
X59400Y-40637D01*
X59400Y-40950D01*
X59400Y-41000D01*
X59400Y-41100D01*
X59400Y-41150D01*
X59400Y-41437D01*
X59400Y-41463D01*
X59400Y-41750D01*
X59400Y-41800D01*
X59400Y-41900D01*
X59300Y-41900D01*
X59300Y-41800D01*
X59300Y-41750D01*
X59300Y-41463D01*
X59300Y-41437D01*
X59300Y-41150D01*
X59300Y-41100D01*
X59300Y-41000D01*
X59300Y-40950D01*
X59300Y-40637D01*
X59238Y-40575D01*
X59176Y-40576D01*
X59084Y-40614D01*
X59020Y-40678D01*
X59020Y-40544D01*
X59264Y-40300D01*
X59650Y-40300D01*
X59650Y-40648D01*
X59650Y-40648D01*
G37*
G54D24*
X59650Y-40648D02*
X59616Y-40614D01*
X59524Y-40576D01*
X59462Y-40575D01*
X59400Y-40637D01*
X59400Y-40950D01*
X59400Y-41000D01*
X59400Y-41100D01*
X59400Y-41150D01*
X59400Y-41437D01*
X59400Y-41463D01*
X59400Y-41750D01*
X59400Y-41800D01*
X59400Y-41900D01*
X59300Y-41900D01*
X59300Y-41800D01*
X59300Y-41750D01*
X59300Y-41463D01*
X59300Y-41437D01*
X59300Y-41150D01*
X59300Y-41100D01*
X59300Y-41000D01*
X59300Y-40950D01*
X59300Y-40637D01*
X59238Y-40575D01*
X59176Y-40576D01*
X59084Y-40614D01*
X59020Y-40678D01*
X59020Y-40544D01*
X59264Y-40300D01*
X59650Y-40300D01*
X59650Y-40648D01*
G54D10*
G36*
X61410Y-40929D02*
X61383Y-40930D01*
X61382Y-40930D01*
X61283Y-40930D01*
X61132Y-40930D01*
X61123Y-40930D01*
X61033Y-40930D01*
X60873Y-40930D01*
X60781Y-40968D01*
X60711Y-41038D01*
X60673Y-41129D01*
X60673Y-41228D01*
X60673Y-41289D01*
X60324Y-40940D01*
X60324Y-40776D01*
X60286Y-40684D01*
X60250Y-40648D01*
X60250Y-40049D01*
X60794Y-39505D01*
X60794Y-39597D01*
X60794Y-39911D01*
X60830Y-39999D01*
X60794Y-40088D01*
X60794Y-40187D01*
X60794Y-40501D01*
X60832Y-40593D01*
X60902Y-40663D01*
X60993Y-40701D01*
X61092Y-40701D01*
X61182Y-40701D01*
X61410Y-40929D01*
X61410Y-40929D01*
G37*
G54D24*
X61410Y-40929D02*
X61383Y-40930D01*
X61382Y-40930D01*
X61283Y-40930D01*
X61132Y-40930D01*
X61123Y-40930D01*
X61033Y-40930D01*
X60873Y-40930D01*
X60781Y-40968D01*
X60711Y-41038D01*
X60673Y-41129D01*
X60673Y-41228D01*
X60673Y-41289D01*
X60324Y-40940D01*
X60324Y-40776D01*
X60286Y-40684D01*
X60250Y-40648D01*
X60250Y-40049D01*
X60794Y-39505D01*
X60794Y-39597D01*
X60794Y-39911D01*
X60830Y-39999D01*
X60794Y-40088D01*
X60794Y-40187D01*
X60794Y-40501D01*
X60832Y-40593D01*
X60902Y-40663D01*
X60993Y-40701D01*
X61092Y-40701D01*
X61182Y-40701D01*
X61410Y-40929D01*
G54D10*
G36*
X66450Y-39100D02*
X66350Y-39100D01*
X66300Y-39100D01*
X65779Y-39100D01*
X65717Y-39162D01*
X65718Y-39399D01*
X65756Y-39491D01*
X65826Y-39561D01*
X65917Y-39599D01*
X65941Y-39599D01*
X65797Y-39744D01*
X65794Y-39750D01*
X65750Y-39750D01*
X65635Y-39773D01*
X65538Y-39838D01*
X65388Y-39988D01*
X65323Y-40085D01*
X65300Y-40200D01*
X65300Y-42099D01*
X65241Y-42040D01*
X65085Y-41975D01*
X64916Y-41975D01*
X64760Y-42039D01*
X64640Y-42159D01*
X64575Y-42315D01*
X64575Y-42484D01*
X64639Y-42640D01*
X64700Y-42701D01*
X64700Y-43275D01*
X64675Y-43300D01*
X63600Y-43300D01*
X63485Y-43323D01*
X63387Y-43388D01*
X63350Y-43426D01*
X63285Y-43523D01*
X63262Y-43638D01*
X63262Y-43730D01*
X63182Y-43730D01*
X63173Y-43730D01*
X63083Y-43730D01*
X62923Y-43730D01*
X62922Y-43730D01*
X62823Y-43730D01*
X62671Y-43730D01*
X62644Y-43729D01*
X62628Y-43744D01*
X62571Y-43768D01*
X62537Y-43802D01*
X62503Y-43768D01*
X62461Y-43750D01*
X62440Y-43729D01*
X62413Y-43730D01*
X62412Y-43730D01*
X62313Y-43730D01*
X62153Y-43730D01*
X62152Y-43730D01*
X62053Y-43730D01*
X61902Y-43730D01*
X61893Y-43730D01*
X61803Y-43730D01*
X61643Y-43730D01*
X61642Y-43730D01*
X61552Y-43730D01*
X61552Y-43649D01*
X61560Y-43641D01*
X61625Y-43485D01*
X61625Y-43316D01*
X61561Y-43160D01*
X61441Y-43040D01*
X61285Y-42975D01*
X61116Y-42975D01*
X60960Y-43039D01*
X60840Y-43159D01*
X60775Y-43315D01*
X60775Y-43484D01*
X60839Y-43640D01*
X60929Y-43730D01*
X60873Y-43730D01*
X60781Y-43768D01*
X60711Y-43838D01*
X60673Y-43929D01*
X60673Y-44028D01*
X60673Y-44526D01*
X60640Y-44559D01*
X60575Y-44715D01*
X60575Y-44880D01*
X60224Y-44880D01*
X59880Y-44536D01*
X59880Y-44344D01*
X59914Y-44344D01*
X60264Y-44344D01*
X60356Y-44306D01*
X60426Y-44236D01*
X60464Y-44145D01*
X60464Y-44046D01*
X60464Y-43496D01*
X60426Y-43404D01*
X60356Y-43334D01*
X60340Y-43327D01*
X60340Y-43194D01*
X60624Y-43194D01*
X60716Y-43156D01*
X60786Y-43086D01*
X60824Y-42995D01*
X60824Y-42947D01*
X60925Y-42927D01*
X61022Y-42862D01*
X61072Y-42813D01*
X61072Y-42812D01*
X61137Y-42715D01*
X61159Y-42601D01*
X61160Y-42600D01*
X61160Y-41928D01*
X61221Y-41928D01*
X61381Y-41928D01*
X61382Y-41927D01*
X61383Y-41928D01*
X61410Y-41929D01*
X61432Y-41906D01*
X61473Y-41890D01*
X61512Y-41851D01*
X61551Y-41890D01*
X61591Y-41906D01*
X61614Y-41929D01*
X61641Y-41928D01*
X61642Y-41927D01*
X61643Y-41928D01*
X61670Y-41929D01*
X61692Y-41906D01*
X61733Y-41890D01*
X61767Y-41856D01*
X61801Y-41890D01*
X61859Y-41914D01*
X61874Y-41929D01*
X61892Y-41928D01*
X61901Y-41928D01*
X61991Y-41928D01*
X62151Y-41928D01*
X62151Y-41927D01*
X62152Y-41928D01*
X62251Y-41928D01*
X62411Y-41928D01*
X62411Y-41927D01*
X62412Y-41928D01*
X62511Y-41928D01*
X62663Y-41928D01*
X62671Y-41928D01*
X62690Y-41929D01*
X62692Y-41926D01*
X62692Y-41929D01*
X62765Y-41929D01*
X62755Y-41955D01*
X62755Y-42124D01*
X62819Y-42280D01*
X62939Y-42400D01*
X63095Y-42465D01*
X63264Y-42465D01*
X63420Y-42401D01*
X63540Y-42281D01*
X63605Y-42125D01*
X63605Y-41956D01*
X63597Y-41938D01*
X63598Y-41929D01*
X63662Y-41929D01*
X63662Y-41927D01*
X63664Y-41929D01*
X63679Y-41928D01*
X63635Y-42035D01*
X63635Y-42204D01*
X63699Y-42360D01*
X63819Y-42480D01*
X63975Y-42545D01*
X64144Y-42545D01*
X64300Y-42481D01*
X64420Y-42361D01*
X64485Y-42205D01*
X64485Y-42036D01*
X64440Y-41928D01*
X64461Y-41928D01*
X64553Y-41890D01*
X64590Y-41852D01*
X64715Y-41905D01*
X64884Y-41905D01*
X65040Y-41841D01*
X65160Y-41721D01*
X65225Y-41565D01*
X65225Y-41396D01*
X65161Y-41240D01*
X65041Y-41120D01*
X64885Y-41055D01*
X64716Y-41055D01*
X64642Y-41085D01*
X64627Y-41050D01*
X64784Y-41050D01*
X64940Y-40986D01*
X65060Y-40866D01*
X65125Y-40710D01*
X65125Y-40541D01*
X65061Y-40385D01*
X64941Y-40265D01*
X64785Y-40200D01*
X64616Y-40200D01*
X64460Y-40264D01*
X64399Y-40325D01*
X64250Y-40325D01*
X64135Y-40348D01*
X64038Y-40413D01*
X63620Y-40831D01*
X63555Y-40928D01*
X63554Y-40929D01*
X63462Y-40929D01*
X63462Y-40931D01*
X63460Y-40929D01*
X63433Y-40930D01*
X63432Y-40930D01*
X63352Y-40930D01*
X63352Y-40872D01*
X63550Y-40674D01*
X63674Y-40674D01*
X63766Y-40636D01*
X63836Y-40566D01*
X63837Y-40561D01*
X63912Y-40512D01*
X64012Y-40412D01*
X64077Y-40315D01*
X64100Y-40200D01*
X64100Y-39400D01*
X64099Y-39399D01*
X64077Y-39285D01*
X64012Y-39188D01*
X64012Y-39187D01*
X63812Y-38988D01*
X63715Y-38923D01*
X63600Y-38900D01*
X62000Y-38900D01*
X60675Y-38900D01*
X60560Y-38923D01*
X60463Y-38988D01*
X59751Y-39700D01*
X59140Y-39700D01*
X59025Y-39723D01*
X58928Y-39788D01*
X58927Y-39788D01*
X58927Y-39789D01*
X58508Y-40208D01*
X58478Y-40252D01*
X58409Y-40252D01*
X57762Y-40252D01*
X57762Y-40097D01*
X57724Y-40005D01*
X57654Y-39935D01*
X57563Y-39897D01*
X57464Y-39897D01*
X56885Y-39897D01*
X56885Y-38725D01*
X65717Y-38725D01*
X65717Y-38938D01*
X65779Y-39000D01*
X66300Y-39000D01*
X66350Y-39000D01*
X66450Y-39000D01*
X66450Y-39100D01*
X66450Y-39100D01*
G37*
G54D24*
X66450Y-39100D02*
X66350Y-39100D01*
X66300Y-39100D01*
X65779Y-39100D01*
X65717Y-39162D01*
X65718Y-39399D01*
X65756Y-39491D01*
X65826Y-39561D01*
X65917Y-39599D01*
X65941Y-39599D01*
X65797Y-39744D01*
X65794Y-39750D01*
X65750Y-39750D01*
X65635Y-39773D01*
X65538Y-39838D01*
X65388Y-39988D01*
X65323Y-40085D01*
X65300Y-40200D01*
X65300Y-42099D01*
X65241Y-42040D01*
X65085Y-41975D01*
X64916Y-41975D01*
X64760Y-42039D01*
X64640Y-42159D01*
X64575Y-42315D01*
X64575Y-42484D01*
X64639Y-42640D01*
X64700Y-42701D01*
X64700Y-43275D01*
X64675Y-43300D01*
X63600Y-43300D01*
X63485Y-43323D01*
X63387Y-43388D01*
X63350Y-43426D01*
X63285Y-43523D01*
X63262Y-43638D01*
X63262Y-43730D01*
X63182Y-43730D01*
X63173Y-43730D01*
X63083Y-43730D01*
X62923Y-43730D01*
X62922Y-43730D01*
X62823Y-43730D01*
X62671Y-43730D01*
X62644Y-43729D01*
X62628Y-43744D01*
X62571Y-43768D01*
X62537Y-43802D01*
X62503Y-43768D01*
X62461Y-43750D01*
X62440Y-43729D01*
X62413Y-43730D01*
X62412Y-43730D01*
X62313Y-43730D01*
X62153Y-43730D01*
X62152Y-43730D01*
X62053Y-43730D01*
X61902Y-43730D01*
X61893Y-43730D01*
X61803Y-43730D01*
X61643Y-43730D01*
X61642Y-43730D01*
X61552Y-43730D01*
X61552Y-43649D01*
X61560Y-43641D01*
X61625Y-43485D01*
X61625Y-43316D01*
X61561Y-43160D01*
X61441Y-43040D01*
X61285Y-42975D01*
X61116Y-42975D01*
X60960Y-43039D01*
X60840Y-43159D01*
X60775Y-43315D01*
X60775Y-43484D01*
X60839Y-43640D01*
X60929Y-43730D01*
X60873Y-43730D01*
X60781Y-43768D01*
X60711Y-43838D01*
X60673Y-43929D01*
X60673Y-44028D01*
X60673Y-44526D01*
X60640Y-44559D01*
X60575Y-44715D01*
X60575Y-44880D01*
X60224Y-44880D01*
X59880Y-44536D01*
X59880Y-44344D01*
X59914Y-44344D01*
X60264Y-44344D01*
X60356Y-44306D01*
X60426Y-44236D01*
X60464Y-44145D01*
X60464Y-44046D01*
X60464Y-43496D01*
X60426Y-43404D01*
X60356Y-43334D01*
X60340Y-43327D01*
X60340Y-43194D01*
X60624Y-43194D01*
X60716Y-43156D01*
X60786Y-43086D01*
X60824Y-42995D01*
X60824Y-42947D01*
X60925Y-42927D01*
X61022Y-42862D01*
X61072Y-42813D01*
X61072Y-42812D01*
X61137Y-42715D01*
X61159Y-42601D01*
X61160Y-42600D01*
X61160Y-41928D01*
X61221Y-41928D01*
X61381Y-41928D01*
X61382Y-41927D01*
X61383Y-41928D01*
X61410Y-41929D01*
X61432Y-41906D01*
X61473Y-41890D01*
X61512Y-41851D01*
X61551Y-41890D01*
X61591Y-41906D01*
X61614Y-41929D01*
X61641Y-41928D01*
X61642Y-41927D01*
X61643Y-41928D01*
X61670Y-41929D01*
X61692Y-41906D01*
X61733Y-41890D01*
X61767Y-41856D01*
X61801Y-41890D01*
X61859Y-41914D01*
X61874Y-41929D01*
X61892Y-41928D01*
X61901Y-41928D01*
X61991Y-41928D01*
X62151Y-41928D01*
X62151Y-41927D01*
X62152Y-41928D01*
X62251Y-41928D01*
X62411Y-41928D01*
X62411Y-41927D01*
X62412Y-41928D01*
X62511Y-41928D01*
X62663Y-41928D01*
X62671Y-41928D01*
X62690Y-41929D01*
X62692Y-41926D01*
X62692Y-41929D01*
X62765Y-41929D01*
X62755Y-41955D01*
X62755Y-42124D01*
X62819Y-42280D01*
X62939Y-42400D01*
X63095Y-42465D01*
X63264Y-42465D01*
X63420Y-42401D01*
X63540Y-42281D01*
X63605Y-42125D01*
X63605Y-41956D01*
X63597Y-41938D01*
X63598Y-41929D01*
X63662Y-41929D01*
X63662Y-41927D01*
X63664Y-41929D01*
X63679Y-41928D01*
X63635Y-42035D01*
X63635Y-42204D01*
X63699Y-42360D01*
X63819Y-42480D01*
X63975Y-42545D01*
X64144Y-42545D01*
X64300Y-42481D01*
X64420Y-42361D01*
X64485Y-42205D01*
X64485Y-42036D01*
X64440Y-41928D01*
X64461Y-41928D01*
X64553Y-41890D01*
X64590Y-41852D01*
X64715Y-41905D01*
X64884Y-41905D01*
X65040Y-41841D01*
X65160Y-41721D01*
X65225Y-41565D01*
X65225Y-41396D01*
X65161Y-41240D01*
X65041Y-41120D01*
X64885Y-41055D01*
X64716Y-41055D01*
X64642Y-41085D01*
X64627Y-41050D01*
X64784Y-41050D01*
X64940Y-40986D01*
X65060Y-40866D01*
X65125Y-40710D01*
X65125Y-40541D01*
X65061Y-40385D01*
X64941Y-40265D01*
X64785Y-40200D01*
X64616Y-40200D01*
X64460Y-40264D01*
X64399Y-40325D01*
X64250Y-40325D01*
X64135Y-40348D01*
X64038Y-40413D01*
X63620Y-40831D01*
X63555Y-40928D01*
X63554Y-40929D01*
X63462Y-40929D01*
X63462Y-40931D01*
X63460Y-40929D01*
X63433Y-40930D01*
X63432Y-40930D01*
X63352Y-40930D01*
X63352Y-40872D01*
X63550Y-40674D01*
X63674Y-40674D01*
X63766Y-40636D01*
X63836Y-40566D01*
X63837Y-40561D01*
X63912Y-40512D01*
X64012Y-40412D01*
X64077Y-40315D01*
X64100Y-40200D01*
X64100Y-39400D01*
X64099Y-39399D01*
X64077Y-39285D01*
X64012Y-39188D01*
X64012Y-39187D01*
X63812Y-38988D01*
X63715Y-38923D01*
X63600Y-38900D01*
X62000Y-38900D01*
X60675Y-38900D01*
X60560Y-38923D01*
X60463Y-38988D01*
X59751Y-39700D01*
X59140Y-39700D01*
X59025Y-39723D01*
X58928Y-39788D01*
X58927Y-39788D01*
X58927Y-39789D01*
X58508Y-40208D01*
X58478Y-40252D01*
X58409Y-40252D01*
X57762Y-40252D01*
X57762Y-40097D01*
X57724Y-40005D01*
X57654Y-39935D01*
X57563Y-39897D01*
X57464Y-39897D01*
X56885Y-39897D01*
X56885Y-38725D01*
X65717Y-38725D01*
X65717Y-38938D01*
X65779Y-39000D01*
X66300Y-39000D01*
X66350Y-39000D01*
X66450Y-39000D01*
X66450Y-39100D01*
M02*
