M48
;DRILL file {Pcbnew (2012-jan-04)-stable} date Fri 25 Jan 2013 15:52:58 CET
;FORMAT={-:-/ absolute / inch / decimal}
FMAT,2
INCH,TZ
T1C0.025
T2C0.039
%
G90
G05
M72
T1
X5.884Y-4.196
X5.886Y-4.148
X5.930Y-4.038
X6.040Y-4.210
X6.070Y-4.078
X6.100Y-4.480
X6.120Y-4.340
X6.318Y-4.204
X6.406Y-4.212
X6.470Y-4.062
X6.480Y-4.148
X6.500Y-4.240
X6.520Y-4.440
X6.640Y-4.005
X6.640Y-4.105
T2
X6.640Y-3.905
X6.640Y-4.005
X6.640Y-4.105
X6.640Y-4.205
X6.640Y-4.305
X6.640Y-4.405
X6.640Y-4.505
T0
M30
