G04 (created by PCBNEW-RS274X (2012-jan-04)-stable) date Fri 25 Jan 2013 15:52:51 CET*
G01*
G70*
G90*
%MOIN*%
G04 Gerber Fmt 3.4, Leading zero omitted, Abs format*
%FSLAX34Y34*%
G04 APERTURE LIST*
%ADD10C,0.006000*%
%ADD11R,0.016000X0.050000*%
%ADD12R,0.035000X0.055000*%
%ADD13R,0.055000X0.039400*%
%ADD14R,0.025000X0.045000*%
%ADD15R,0.031400X0.031400*%
%ADD16R,0.045000X0.025000*%
%ADD17R,0.074700X0.046200*%
%ADD18R,0.074700X0.093500*%
%ADD19R,0.082700X0.058000*%
%ADD20R,0.054300X0.017700*%
%ADD21R,0.076800X0.059100*%
G04 APERTURE END LIST*
G54D10*
G54D11*
X61002Y-44229D03*
X61252Y-44229D03*
X61512Y-44229D03*
X61772Y-44229D03*
X62022Y-44229D03*
X62282Y-44229D03*
X62542Y-44229D03*
X62792Y-44229D03*
X63052Y-44229D03*
X63302Y-44229D03*
X63562Y-44229D03*
X63822Y-44229D03*
X64072Y-44229D03*
X64332Y-44229D03*
X64332Y-41429D03*
X64072Y-41429D03*
X63832Y-41429D03*
X63562Y-41429D03*
X63302Y-41429D03*
X63052Y-41429D03*
X62792Y-41429D03*
X62542Y-41429D03*
X62282Y-41429D03*
X62022Y-41429D03*
X61772Y-41429D03*
X61512Y-41429D03*
X61252Y-41429D03*
X61002Y-41429D03*
G54D12*
X59580Y-43820D03*
X60040Y-43820D03*
X59130Y-43820D03*
G54D13*
X59795Y-43820D03*
G54D14*
X59350Y-41050D03*
X59950Y-41050D03*
X59350Y-41850D03*
X59950Y-41850D03*
G54D15*
X61200Y-39705D03*
X61200Y-40295D03*
X62600Y-39705D03*
X62600Y-40295D03*
G54D16*
X62000Y-39700D03*
X62000Y-40300D03*
X63400Y-40300D03*
X63400Y-39700D03*
G54D17*
X57140Y-41430D03*
X57140Y-42090D03*
G54D18*
X57140Y-42907D03*
X57140Y-40613D03*
G54D19*
X58045Y-42729D03*
X58045Y-40791D03*
G54D20*
X58187Y-41248D03*
X58187Y-41504D03*
X58187Y-41760D03*
X58187Y-42016D03*
X58187Y-42272D03*
G54D21*
X59109Y-42650D03*
X60191Y-42650D03*
M02*
