G04 (created by PCBNEW-RS274X (2012-jan-04)-stable) date Fri 25 Jan 2013 15:52:51 CET*
G01*
G70*
G90*
%MOIN*%
G04 Gerber Fmt 3.4, Leading zero omitted, Abs format*
%FSLAX34Y34*%
G04 APERTURE LIST*
%ADD10C,0.006000*%
%ADD11C,0.005200*%
G04 APERTURE END LIST*
G54D10*
G54D11*
X57257Y-40289D02*
X57257Y-40425D01*
X57396Y-40262D02*
X56911Y-40357D01*
X57396Y-40452D01*
X57373Y-40533D02*
X57396Y-40560D01*
X57396Y-40615D01*
X57373Y-40642D01*
X57327Y-40655D01*
X57303Y-40655D01*
X57257Y-40642D01*
X57234Y-40615D01*
X57234Y-40574D01*
X57211Y-40547D01*
X57165Y-40533D01*
X57142Y-40533D01*
X57096Y-40547D01*
X57072Y-40574D01*
X57072Y-40615D01*
X57096Y-40642D01*
X57373Y-40764D02*
X57396Y-40791D01*
X57396Y-40846D01*
X57373Y-40873D01*
X57327Y-40886D01*
X57303Y-40886D01*
X57257Y-40873D01*
X57234Y-40846D01*
X57234Y-40805D01*
X57211Y-40778D01*
X57165Y-40764D01*
X57142Y-40764D01*
X57096Y-40778D01*
X57072Y-40805D01*
X57072Y-40846D01*
X57096Y-40873D01*
X57396Y-41050D02*
X57373Y-41022D01*
X57350Y-41009D01*
X57303Y-40995D01*
X57165Y-40995D01*
X57119Y-41009D01*
X57096Y-41022D01*
X57072Y-41050D01*
X57072Y-41090D01*
X57096Y-41117D01*
X57119Y-41131D01*
X57165Y-41145D01*
X57303Y-41145D01*
X57350Y-41131D01*
X57373Y-41117D01*
X57396Y-41090D01*
X57396Y-41050D01*
X57373Y-41389D02*
X57396Y-41362D01*
X57396Y-41308D01*
X57373Y-41280D01*
X57350Y-41267D01*
X57303Y-41253D01*
X57165Y-41253D01*
X57119Y-41267D01*
X57096Y-41280D01*
X57072Y-41308D01*
X57072Y-41362D01*
X57096Y-41389D01*
X57396Y-41511D02*
X57072Y-41511D01*
X56911Y-41511D02*
X56934Y-41497D01*
X56957Y-41511D01*
X56934Y-41524D01*
X56911Y-41511D01*
X56957Y-41511D01*
X57396Y-41769D02*
X57142Y-41769D01*
X57096Y-41755D01*
X57072Y-41728D01*
X57072Y-41674D01*
X57096Y-41647D01*
X57373Y-41769D02*
X57396Y-41742D01*
X57396Y-41674D01*
X57373Y-41647D01*
X57327Y-41633D01*
X57280Y-41633D01*
X57234Y-41647D01*
X57211Y-41674D01*
X57211Y-41742D01*
X57188Y-41769D01*
X57072Y-41878D02*
X57072Y-42027D01*
X57396Y-41878D01*
X57396Y-42027D01*
X57396Y-42136D02*
X57072Y-42136D01*
X56911Y-42136D02*
X56934Y-42122D01*
X56957Y-42136D01*
X56934Y-42149D01*
X56911Y-42136D01*
X56957Y-42136D01*
X57396Y-42313D02*
X57373Y-42285D01*
X57350Y-42272D01*
X57303Y-42258D01*
X57165Y-42258D01*
X57119Y-42272D01*
X57096Y-42285D01*
X57072Y-42313D01*
X57072Y-42353D01*
X57096Y-42380D01*
X57119Y-42394D01*
X57165Y-42408D01*
X57303Y-42408D01*
X57350Y-42394D01*
X57373Y-42380D01*
X57396Y-42353D01*
X57396Y-42313D01*
X57072Y-42530D02*
X57396Y-42530D01*
X57119Y-42530D02*
X57096Y-42543D01*
X57072Y-42571D01*
X57072Y-42611D01*
X57096Y-42638D01*
X57142Y-42652D01*
X57396Y-42652D01*
X57373Y-42896D02*
X57396Y-42869D01*
X57396Y-42815D01*
X57373Y-42788D01*
X57327Y-42774D01*
X57142Y-42774D01*
X57096Y-42788D01*
X57072Y-42815D01*
X57072Y-42869D01*
X57096Y-42896D01*
X57142Y-42910D01*
X57188Y-42910D01*
X57234Y-42774D01*
X57396Y-43249D02*
X56911Y-43249D01*
X56911Y-43357D01*
X56934Y-43385D01*
X56957Y-43398D01*
X57003Y-43412D01*
X57072Y-43412D01*
X57119Y-43398D01*
X57142Y-43385D01*
X57165Y-43357D01*
X57165Y-43249D01*
X57396Y-43534D02*
X57072Y-43534D01*
X57165Y-43534D02*
X57119Y-43547D01*
X57096Y-43561D01*
X57072Y-43588D01*
X57072Y-43615D01*
X57396Y-43751D02*
X57373Y-43723D01*
X57350Y-43710D01*
X57303Y-43696D01*
X57165Y-43696D01*
X57119Y-43710D01*
X57096Y-43723D01*
X57072Y-43751D01*
X57072Y-43791D01*
X57096Y-43818D01*
X57119Y-43832D01*
X57165Y-43846D01*
X57303Y-43846D01*
X57350Y-43832D01*
X57373Y-43818D01*
X57396Y-43791D01*
X57396Y-43751D01*
X57396Y-43968D02*
X57072Y-43968D01*
X57119Y-43968D02*
X57096Y-43981D01*
X57072Y-44009D01*
X57072Y-44049D01*
X57096Y-44076D01*
X57142Y-44090D01*
X57396Y-44090D01*
X57142Y-44090D02*
X57096Y-44104D01*
X57072Y-44131D01*
X57072Y-44171D01*
X57096Y-44199D01*
X57142Y-44212D01*
X57396Y-44212D01*
X57373Y-44456D02*
X57396Y-44429D01*
X57396Y-44375D01*
X57373Y-44348D01*
X57327Y-44334D01*
X57142Y-44334D01*
X57096Y-44348D01*
X57072Y-44375D01*
X57072Y-44429D01*
X57096Y-44456D01*
X57142Y-44470D01*
X57188Y-44470D01*
X57234Y-44334D01*
X57072Y-44551D02*
X57072Y-44660D01*
X56911Y-44592D02*
X57327Y-44592D01*
X57373Y-44605D01*
X57396Y-44633D01*
X57396Y-44660D01*
X57373Y-44863D02*
X57396Y-44836D01*
X57396Y-44782D01*
X57373Y-44755D01*
X57327Y-44741D01*
X57142Y-44741D01*
X57096Y-44755D01*
X57072Y-44782D01*
X57072Y-44836D01*
X57096Y-44863D01*
X57142Y-44877D01*
X57188Y-44877D01*
X57234Y-44741D01*
X57396Y-45040D02*
X57373Y-45012D01*
X57350Y-44999D01*
X57303Y-44985D01*
X57165Y-44985D01*
X57119Y-44999D01*
X57096Y-45012D01*
X57072Y-45040D01*
X57072Y-45080D01*
X57096Y-45107D01*
X57119Y-45121D01*
X57165Y-45135D01*
X57303Y-45135D01*
X57350Y-45121D01*
X57373Y-45107D01*
X57396Y-45080D01*
X57396Y-45040D01*
X57803Y-40879D02*
X58127Y-40933D01*
X57896Y-40987D01*
X58127Y-41042D01*
X57803Y-41096D01*
X57803Y-41178D02*
X58127Y-41232D01*
X57896Y-41286D01*
X58127Y-41341D01*
X57803Y-41395D01*
X57803Y-41477D02*
X58127Y-41531D01*
X57896Y-41585D01*
X58127Y-41640D01*
X57803Y-41694D01*
X58081Y-41803D02*
X58104Y-41816D01*
X58127Y-41803D01*
X58104Y-41789D01*
X58081Y-41803D01*
X58127Y-41803D01*
X58127Y-41980D02*
X58104Y-41952D01*
X58081Y-41939D01*
X58034Y-41925D01*
X57896Y-41925D01*
X57850Y-41939D01*
X57827Y-41952D01*
X57803Y-41980D01*
X57803Y-42020D01*
X57827Y-42047D01*
X57850Y-42061D01*
X57896Y-42075D01*
X58034Y-42075D01*
X58081Y-42061D01*
X58104Y-42047D01*
X58127Y-42020D01*
X58127Y-41980D01*
X57803Y-42197D02*
X58288Y-42197D01*
X57827Y-42197D02*
X57803Y-42224D01*
X57803Y-42278D01*
X57827Y-42305D01*
X57850Y-42319D01*
X57896Y-42333D01*
X58034Y-42333D01*
X58081Y-42319D01*
X58104Y-42305D01*
X58127Y-42278D01*
X58127Y-42224D01*
X58104Y-42197D01*
X58104Y-42563D02*
X58127Y-42536D01*
X58127Y-42482D01*
X58104Y-42455D01*
X58058Y-42441D01*
X57873Y-42441D01*
X57827Y-42455D01*
X57803Y-42482D01*
X57803Y-42536D01*
X57827Y-42563D01*
X57873Y-42577D01*
X57919Y-42577D01*
X57965Y-42441D01*
X57803Y-42699D02*
X58127Y-42699D01*
X57850Y-42699D02*
X57827Y-42712D01*
X57803Y-42740D01*
X57803Y-42780D01*
X57827Y-42807D01*
X57873Y-42821D01*
X58127Y-42821D01*
X58127Y-42998D02*
X58104Y-42970D01*
X58058Y-42957D01*
X57642Y-42957D01*
X58127Y-43228D02*
X57873Y-43228D01*
X57827Y-43214D01*
X57803Y-43187D01*
X57803Y-43133D01*
X57827Y-43106D01*
X58104Y-43228D02*
X58127Y-43201D01*
X58127Y-43133D01*
X58104Y-43106D01*
X58058Y-43092D01*
X58011Y-43092D01*
X57965Y-43106D01*
X57942Y-43133D01*
X57942Y-43201D01*
X57919Y-43228D01*
X58127Y-43364D02*
X57642Y-43364D01*
X57827Y-43364D02*
X57803Y-43391D01*
X57803Y-43445D01*
X57827Y-43472D01*
X57850Y-43486D01*
X57896Y-43500D01*
X58034Y-43500D01*
X58081Y-43486D01*
X58104Y-43472D01*
X58127Y-43445D01*
X58127Y-43391D01*
X58104Y-43364D01*
X57803Y-43581D02*
X57803Y-43690D01*
X57642Y-43622D02*
X58058Y-43622D01*
X58104Y-43635D01*
X58127Y-43663D01*
X58127Y-43690D01*
X58127Y-43826D02*
X58104Y-43798D01*
X58081Y-43785D01*
X58034Y-43771D01*
X57896Y-43771D01*
X57850Y-43785D01*
X57827Y-43798D01*
X57803Y-43826D01*
X57803Y-43866D01*
X57827Y-43893D01*
X57850Y-43907D01*
X57896Y-43921D01*
X58034Y-43921D01*
X58081Y-43907D01*
X58104Y-43893D01*
X58127Y-43866D01*
X58127Y-43826D01*
X58081Y-44043D02*
X58104Y-44056D01*
X58127Y-44043D01*
X58104Y-44029D01*
X58081Y-44043D01*
X58127Y-44043D01*
X58127Y-44220D02*
X58104Y-44192D01*
X58081Y-44179D01*
X58034Y-44165D01*
X57896Y-44165D01*
X57850Y-44179D01*
X57827Y-44192D01*
X57803Y-44220D01*
X57803Y-44260D01*
X57827Y-44287D01*
X57850Y-44301D01*
X57896Y-44315D01*
X58034Y-44315D01*
X58081Y-44301D01*
X58104Y-44287D01*
X58127Y-44260D01*
X58127Y-44220D01*
X58127Y-44437D02*
X57803Y-44437D01*
X57896Y-44437D02*
X57850Y-44450D01*
X57827Y-44464D01*
X57803Y-44491D01*
X57803Y-44518D01*
X57803Y-44735D02*
X58196Y-44735D01*
X58242Y-44721D01*
X58265Y-44708D01*
X58288Y-44681D01*
X58288Y-44640D01*
X58265Y-44613D01*
X58104Y-44735D02*
X58127Y-44708D01*
X58127Y-44654D01*
X58104Y-44626D01*
X58081Y-44613D01*
X58034Y-44599D01*
X57896Y-44599D01*
X57850Y-44613D01*
X57827Y-44626D01*
X57803Y-44654D01*
X57803Y-44708D01*
X57827Y-44735D01*
M02*
