  0
SECTION
  2
HEADER
  9
$ACADVER
  1
AC1014
  9
$HANDSEED
  5
FFFF
  9
$MEASUREMENT
 70
     1
  0
ENDSEC
  0
SECTION
  2
TABLES
  0
TABLE
  2
VPORT
  5
8
330
0
100
AcDbSymbolTable
 70
     4
  0
VPORT
  5
2E
330
8
100
AcDbSymbolTableRecord
100
AcDbViewportTableRecord
  2
*ACTIVE
 70
     0
 10
0.0
 20
0.0
 11
1.0
 21
1.0
 12
210.0
 22
148.5
 13
0.0
 23
0.0
 14
10.0
 24
10.0
 15
10.0
 25
10.0
 16
0.0
 26
0.0
 36
1.0
 17
0.0
 27
0.0
 37
0.0
 40
341.0
 41
1.24
 42
50.0
 43
0.0
 44
0.0
 50
0.0
 51
0.0
 71
     0
 72
   100
 73
     1
 74
     3
 75
     0
 76
     0
 77
     0
 78
     0
  0
ENDTAB
  0
TABLE
  2
LTYPE
  5
5
330
0
100
AcDbSymbolTable
 70
     1
  0
LTYPE
  5
14
330
5
100
AcDbSymbolTableRecord
100
AcDbLinetypeTableRecord
  2
BYBLOCK
 70
     0
  3

 72
    65
 73
     0
 40
0.0
  0
LTYPE
  5
15
330
5
100
AcDbSymbolTableRecord
100
AcDbLinetypeTableRecord
  2
BYLAYER
 70
     0
  3

 72
    65
 73
     0
 40
0.0
  0
LTYPE
  5
16
330
5
100
AcDbSymbolTableRecord
100
AcDbLinetypeTableRecord
  2
CONTINUOUS
 70
     0
  3
Solid line
 72
    65
 73
     0
 40
0.0
  0
ENDTAB
  0
TABLE
  2
LAYER
  5
2
100
AcDbSymbolTable
 70
1
  0
LAYER
  5
50
100
AcDbSymbolTableRecord
100
AcDbLayerTableRecord
  2
0
 70
0
  6
CONTINUOUS
  0
ENDTAB
  0
TABLE
  2
STYLE
  5
3
330
0
100
AcDbSymbolTable
 70
     1
  0
STYLE
  5
11
330
3
100
AcDbSymbolTableRecord
100
AcDbTextStyleTableRecord
  2
STANDARD
 70
     0
 40
0.0
 41
1.0
 50
0.0
 71
     0
 42
2.5
  3
txt
  4

  0
ENDTAB
  0
TABLE
  2
VIEW
  5
6
330
0
100
AcDbSymbolTable
 70
     0
  0
ENDTAB
  0
TABLE
  2
UCS
  5
7
330
0
100
AcDbSymbolTable
 70
     0
  0
ENDTAB
  0
TABLE
  2
APPID
  5
9
330
0
100
AcDbSymbolTable
 70
     2
  0
APPID
  5
12
330
9
100
AcDbSymbolTableRecord
100
AcDbRegAppTableRecord
  2
ACAD
 70
     0
  0
ENDTAB
  0
TABLE
  2
DIMSTYLE
  5
A
330
0
100
AcDbSymbolTable
 70
     1
  0
DIMSTYLE
105
27
330
A
100
AcDbSymbolTableRecord
100
AcDbDimStyleTableRecord
  2
ISO-25
 70
     0
  3

  4

  5

  6

  7

 40
1.0
 41
2.5
 42
0.625
 43
3.75
 44
1.25
 45
0.0
 46
0.0
 47
0.0
 48
0.0
140
2.5
141
2.5
142
0.0
143
0.03937007874016
144
1.0
145
0.0
146
1.0
147
0.625
 71
     0
 72
     0
 73
     0
 74
     0
 75
     0
 76
     0
 77
     1
 78
     8
170
     0
171
     3
172
     1
173
     0
174
     0
175
     0
176
     0
177
     0
178
     0
270
     2
271
     2
272
     2
273
     2
274
     3
340
11
275
     0
280
     0
281
     0
282
     0
283
     0
284
     8
285
     0
286
     0
287
     3
288
     0
  0
ENDTAB
  0
TABLE
  2
BLOCK_RECORD
  5
1
330
0
100
AcDbSymbolTable
 70
     1
  0
BLOCK_RECORD
  5
1F
330
1
100
AcDbSymbolTableRecord
100
AcDbBlockTableRecord
  2
*MODEL_SPACE
  0
BLOCK_RECORD
  5
1B
330
1
100
AcDbSymbolTableRecord
100
AcDbBlockTableRecord
  2
*PAPER_SPACE
  0
ENDTAB
  0
ENDSEC
  0
SECTION
  2
BLOCKS
  0
BLOCK
  5
20
330
1F
100
AcDbEntity
  8
0
100
AcDbBlockBegin
  2
*MODEL_SPACE
 70
     0
 10
0.0
 20
0.0
 30
0.0
  3
*MODEL_SPACE
  1

  0
ENDBLK
  5
21
330
1F
100
AcDbEntity
  8
0
100
AcDbBlockEnd
  0
BLOCK
  5
1C
330
1B
100
AcDbEntity
 67
     1
  8
0
100
AcDbBlockBegin
  2
*PAPER_SPACE
  1

  0
ENDBLK
  5
1D
330
1B
100
AcDbEntity
 67
     1
  8
0
100
AcDbBlockEnd
  0
ENDSEC
  0
SECTION
  2
ENTITIES
  0
LWPOLYLINE
  5
100
100
AcDbEntity
  8
0
 62
7
100
AcDbPolyline
 90
5
 70
0
 10
26.137500
 20
9.218750
 30
0.0
 10
27.059375
 20
9.218750
 30
0.0
 10
27.059375
 20
12.100000
 30
0.0
 10
26.137500
 20
12.100000
 30
0.0
 10
26.137500
 20
9.218750
 30
0.0
  0
LWPOLYLINE
  5
101
100
AcDbEntity
  8
0
 62
7
100
AcDbPolyline
 90
5
 70
0
 10
27.578125
 20
9.218750
 30
0.0
 10
28.500000
 20
9.218750
 30
0.0
 10
28.500000
 20
12.100000
 30
0.0
 10
27.578125
 20
12.100000
 30
0.0
 10
27.578125
 20
9.218750
 30
0.0
  0
LWPOLYLINE
  5
102
100
AcDbEntity
  8
0
 62
7
100
AcDbPolyline
 90
5
 70
0
 10
29.075000
 20
9.218750
 30
0.0
 10
29.996875
 20
9.218750
 30
0.0
 10
29.996875
 20
12.100000
 30
0.0
 10
29.075000
 20
12.100000
 30
0.0
 10
29.075000
 20
9.218750
 30
0.0
  0
LWPOLYLINE
  5
103
100
AcDbEntity
  8
0
 62
7
100
AcDbPolyline
 90
5
 70
0
 10
30.571875
 20
9.218750
 30
0.0
 10
31.493750
 20
9.218750
 30
0.0
 10
31.493750
 20
12.100000
 30
0.0
 10
30.571875
 20
12.100000
 30
0.0
 10
30.571875
 20
9.218750
 30
0.0
  0
LWPOLYLINE
  5
104
100
AcDbEntity
  8
0
 62
7
100
AcDbPolyline
 90
5
 70
0
 10
32.012500
 20
9.218750
 30
0.0
 10
32.934375
 20
9.218750
 30
0.0
 10
32.934375
 20
12.100000
 30
0.0
 10
32.012500
 20
12.100000
 30
0.0
 10
32.012500
 20
9.218750
 30
0.0
  0
LWPOLYLINE
  5
105
100
AcDbEntity
  8
0
 62
7
100
AcDbPolyline
 90
5
 70
0
 10
33.509375
 20
9.218750
 30
0.0
 10
34.431250
 20
9.218750
 30
0.0
 10
34.431250
 20
12.100000
 30
0.0
 10
33.509375
 20
12.100000
 30
0.0
 10
33.509375
 20
9.218750
 30
0.0
  0
LWPOLYLINE
  5
106
100
AcDbEntity
  8
0
 62
7
100
AcDbPolyline
 90
5
 70
0
 10
35.009375
 20
9.218750
 30
0.0
 10
35.931250
 20
9.218750
 30
0.0
 10
35.931250
 20
12.100000
 30
0.0
 10
35.009375
 20
12.100000
 30
0.0
 10
35.009375
 20
9.218750
 30
0.0
  0
LWPOLYLINE
  5
107
100
AcDbEntity
  8
0
 62
7
100
AcDbPolyline
 90
5
 70
0
 10
36.446875
 20
9.218750
 30
0.0
 10
37.368750
 20
9.218750
 30
0.0
 10
37.368750
 20
12.100000
 30
0.0
 10
36.446875
 20
12.100000
 30
0.0
 10
36.446875
 20
9.218750
 30
0.0
  0
LWPOLYLINE
  5
108
100
AcDbEntity
  8
0
 62
7
100
AcDbPolyline
 90
5
 70
0
 10
37.946875
 20
9.218750
 30
0.0
 10
38.868750
 20
9.218750
 30
0.0
 10
38.868750
 20
12.100000
 30
0.0
 10
37.946875
 20
12.100000
 30
0.0
 10
37.946875
 20
9.218750
 30
0.0
  0
LWPOLYLINE
  5
109
100
AcDbEntity
  8
0
 62
7
100
AcDbPolyline
 90
5
 70
0
 10
39.384375
 20
9.218750
 30
0.0
 10
40.306250
 20
9.218750
 30
0.0
 10
40.306250
 20
12.100000
 30
0.0
 10
39.384375
 20
12.100000
 30
0.0
 10
39.384375
 20
9.218750
 30
0.0
  0
LWPOLYLINE
  5
10a
100
AcDbEntity
  8
0
 62
7
100
AcDbPolyline
 90
5
 70
0
 10
40.884375
 20
9.218750
 30
0.0
 10
41.806250
 20
9.218750
 30
0.0
 10
41.806250
 20
12.100000
 30
0.0
 10
40.884375
 20
12.100000
 30
0.0
 10
40.884375
 20
9.218750
 30
0.0
  0
LWPOLYLINE
  5
10b
100
AcDbEntity
  8
0
 62
7
100
AcDbPolyline
 90
5
 70
0
 10
42.381250
 20
9.218750
 30
0.0
 10
43.303125
 20
9.218750
 30
0.0
 10
43.303125
 20
12.100000
 30
0.0
 10
42.381250
 20
12.100000
 30
0.0
 10
42.381250
 20
9.218750
 30
0.0
  0
LWPOLYLINE
  5
10c
100
AcDbEntity
  8
0
 62
7
100
AcDbPolyline
 90
5
 70
0
 10
43.821875
 20
9.218750
 30
0.0
 10
44.743750
 20
9.218750
 30
0.0
 10
44.743750
 20
12.100000
 30
0.0
 10
43.821875
 20
12.100000
 30
0.0
 10
43.821875
 20
9.218750
 30
0.0
  0
LWPOLYLINE
  5
10d
100
AcDbEntity
  8
0
 62
7
100
AcDbPolyline
 90
5
 70
0
 10
45.318750
 20
9.218750
 30
0.0
 10
46.240625
 20
9.218750
 30
0.0
 10
46.240625
 20
12.100000
 30
0.0
 10
45.318750
 20
12.100000
 30
0.0
 10
45.318750
 20
9.218750
 30
0.0
  0
LWPOLYLINE
  5
10e
100
AcDbEntity
  8
0
 62
7
100
AcDbPolyline
 90
5
 70
0
 10
45.318750
 20
25.346875
 30
0.0
 10
46.240625
 20
25.346875
 30
0.0
 10
46.240625
 20
28.228125
 30
0.0
 10
45.318750
 20
28.228125
 30
0.0
 10
45.318750
 20
25.346875
 30
0.0
  0
LWPOLYLINE
  5
10f
100
AcDbEntity
  8
0
 62
7
100
AcDbPolyline
 90
5
 70
0
 10
43.821875
 20
25.346875
 30
0.0
 10
44.743750
 20
25.346875
 30
0.0
 10
44.743750
 20
28.228125
 30
0.0
 10
43.821875
 20
28.228125
 30
0.0
 10
43.821875
 20
25.346875
 30
0.0
  0
LWPOLYLINE
  5
110
100
AcDbEntity
  8
0
 62
7
100
AcDbPolyline
 90
5
 70
0
 10
42.437500
 20
25.346875
 30
0.0
 10
43.359375
 20
25.346875
 30
0.0
 10
43.359375
 20
28.228125
 30
0.0
 10
42.437500
 20
28.228125
 30
0.0
 10
42.437500
 20
25.346875
 30
0.0
  0
LWPOLYLINE
  5
111
100
AcDbEntity
  8
0
 62
7
100
AcDbPolyline
 90
5
 70
0
 10
40.884375
 20
25.346875
 30
0.0
 10
41.806250
 20
25.346875
 30
0.0
 10
41.806250
 20
28.228125
 30
0.0
 10
40.884375
 20
28.228125
 30
0.0
 10
40.884375
 20
25.346875
 30
0.0
  0
LWPOLYLINE
  5
112
100
AcDbEntity
  8
0
 62
7
100
AcDbPolyline
 90
5
 70
0
 10
39.384375
 20
25.346875
 30
0.0
 10
40.306250
 20
25.346875
 30
0.0
 10
40.306250
 20
28.228125
 30
0.0
 10
39.384375
 20
28.228125
 30
0.0
 10
39.384375
 20
25.346875
 30
0.0
  0
LWPOLYLINE
  5
113
100
AcDbEntity
  8
0
 62
7
100
AcDbPolyline
 90
5
 70
0
 10
37.946875
 20
25.346875
 30
0.0
 10
38.868750
 20
25.346875
 30
0.0
 10
38.868750
 20
28.228125
 30
0.0
 10
37.946875
 20
28.228125
 30
0.0
 10
37.946875
 20
25.346875
 30
0.0
  0
LWPOLYLINE
  5
114
100
AcDbEntity
  8
0
 62
7
100
AcDbPolyline
 90
5
 70
0
 10
36.446875
 20
25.346875
 30
0.0
 10
37.368750
 20
25.346875
 30
0.0
 10
37.368750
 20
28.228125
 30
0.0
 10
36.446875
 20
28.228125
 30
0.0
 10
36.446875
 20
25.346875
 30
0.0
  0
LWPOLYLINE
  5
115
100
AcDbEntity
  8
0
 62
7
100
AcDbPolyline
 90
5
 70
0
 10
35.009375
 20
25.346875
 30
0.0
 10
35.931250
 20
25.346875
 30
0.0
 10
35.931250
 20
28.228125
 30
0.0
 10
35.009375
 20
28.228125
 30
0.0
 10
35.009375
 20
25.346875
 30
0.0
  0
LWPOLYLINE
  5
116
100
AcDbEntity
  8
0
 62
7
100
AcDbPolyline
 90
5
 70
0
 10
33.509375
 20
25.346875
 30
0.0
 10
34.431250
 20
25.346875
 30
0.0
 10
34.431250
 20
28.228125
 30
0.0
 10
33.509375
 20
28.228125
 30
0.0
 10
33.509375
 20
25.346875
 30
0.0
  0
LWPOLYLINE
  5
117
100
AcDbEntity
  8
0
 62
7
100
AcDbPolyline
 90
5
 70
0
 10
32.012500
 20
25.346875
 30
0.0
 10
32.934375
 20
25.346875
 30
0.0
 10
32.934375
 20
28.228125
 30
0.0
 10
32.012500
 20
28.228125
 30
0.0
 10
32.012500
 20
25.346875
 30
0.0
  0
LWPOLYLINE
  5
118
100
AcDbEntity
  8
0
 62
7
100
AcDbPolyline
 90
5
 70
0
 10
30.571875
 20
25.346875
 30
0.0
 10
31.493750
 20
25.346875
 30
0.0
 10
31.493750
 20
28.228125
 30
0.0
 10
30.571875
 20
28.228125
 30
0.0
 10
30.571875
 20
25.346875
 30
0.0
  0
LWPOLYLINE
  5
119
100
AcDbEntity
  8
0
 62
7
100
AcDbPolyline
 90
5
 70
0
 10
29.075000
 20
25.346875
 30
0.0
 10
29.996875
 20
25.346875
 30
0.0
 10
29.996875
 20
28.228125
 30
0.0
 10
29.075000
 20
28.228125
 30
0.0
 10
29.075000
 20
25.346875
 30
0.0
  0
LWPOLYLINE
  5
11a
100
AcDbEntity
  8
0
 62
7
100
AcDbPolyline
 90
5
 70
0
 10
27.578125
 20
25.346875
 30
0.0
 10
28.500000
 20
25.346875
 30
0.0
 10
28.500000
 20
28.228125
 30
0.0
 10
27.578125
 20
28.228125
 30
0.0
 10
27.578125
 20
25.346875
 30
0.0
  0
LWPOLYLINE
  5
11b
100
AcDbEntity
  8
0
 62
7
100
AcDbPolyline
 90
5
 70
0
 10
26.137500
 20
25.346875
 30
0.0
 10
27.059375
 20
25.346875
 30
0.0
 10
27.059375
 20
28.228125
 30
0.0
 10
26.137500
 20
28.228125
 30
0.0
 10
26.137500
 20
25.346875
 30
0.0
  0
LWPOLYLINE
  5
11c
100
AcDbEntity
  8
0
 62
7
100
AcDbPolyline
 90
5
 70
0
 10
17.400000
 20
11.431250
 30
0.0
 10
19.415625
 20
11.431250
 30
0.0
 10
19.415625
 20
14.600000
 30
0.0
 10
17.400000
 20
14.600000
 30
0.0
 10
17.400000
 20
11.431250
 30
0.0
  0
LWPOLYLINE
  5
11d
100
AcDbEntity
  8
0
 62
7
100
AcDbPolyline
 90
5
 70
0
 10
20.050000
 20
11.431250
 30
0.0
 10
22.065625
 20
11.431250
 30
0.0
 10
22.065625
 20
14.600000
 30
0.0
 10
20.050000
 20
14.600000
 30
0.0
 10
20.050000
 20
11.431250
 30
0.0
  0
LWPOLYLINE
  5
11e
100
AcDbEntity
  8
0
 62
7
100
AcDbPolyline
 90
5
 70
0
 10
14.806250
 20
11.431250
 30
0.0
 10
16.821875
 20
11.431250
 30
0.0
 10
16.821875
 20
14.600000
 30
0.0
 10
14.806250
 20
14.600000
 30
0.0
 10
14.806250
 20
11.431250
 30
0.0
  0
LWPOLYLINE
  5
11f
100
AcDbEntity
  8
0
 62
7
100
AcDbPolyline
 90
5
 70
0
 10
18.062500
 20
11.881250
 30
0.0
 10
21.231250
 20
11.881250
 30
0.0
 10
21.231250
 20
14.150000
 30
0.0
 10
18.062500
 20
14.150000
 30
0.0
 10
18.062500
 20
11.881250
 30
0.0
  0
LWPOLYLINE
  5
120
100
AcDbEntity
  8
0
 62
7
100
AcDbPolyline
 90
5
 70
0
 10
16.362500
 20
27.675000
 30
0.0
 10
17.803125
 20
27.675000
 30
0.0
 10
17.803125
 20
30.265625
 30
0.0
 10
16.362500
 20
30.265625
 30
0.0
 10
16.362500
 20
27.675000
 30
0.0
  0
LWPOLYLINE
  5
121
100
AcDbEntity
  8
0
 62
7
100
AcDbPolyline
 90
5
 70
0
 10
19.818750
 20
27.675000
 30
0.0
 10
21.259375
 20
27.675000
 30
0.0
 10
21.259375
 20
30.265625
 30
0.0
 10
19.818750
 20
30.265625
 30
0.0
 10
19.818750
 20
27.675000
 30
0.0
  0
LWPOLYLINE
  5
122
100
AcDbEntity
  8
0
 62
7
100
AcDbPolyline
 90
5
 70
0
 10
16.362500
 20
23.065625
 30
0.0
 10
17.803125
 20
23.065625
 30
0.0
 10
17.803125
 20
25.656250
 30
0.0
 10
16.362500
 20
25.656250
 30
0.0
 10
16.362500
 20
23.065625
 30
0.0
  0
LWPOLYLINE
  5
123
100
AcDbEntity
  8
0
 62
7
100
AcDbPolyline
 90
5
 70
0
 10
19.818750
 20
23.065625
 30
0.0
 10
21.259375
 20
23.065625
 30
0.0
 10
21.259375
 20
25.656250
 30
0.0
 10
19.818750
 20
25.656250
 30
0.0
 10
19.818750
 20
23.065625
 30
0.0
  0
LWPOLYLINE
  5
124
100
AcDbEntity
  8
0
 62
7
100
AcDbPolyline
 90
5
 70
0
 10
26.834375
 20
35.812500
 30
0.0
 10
28.643750
 20
35.812500
 30
0.0
 10
28.643750
 20
37.621875
 30
0.0
 10
26.834375
 20
37.621875
 30
0.0
 10
26.834375
 20
35.812500
 30
0.0
  0
LWPOLYLINE
  5
125
100
AcDbEntity
  8
0
 62
7
100
AcDbPolyline
 90
5
 70
0
 10
26.834375
 20
32.415625
 30
0.0
 10
28.643750
 20
32.415625
 30
0.0
 10
28.643750
 20
34.225000
 30
0.0
 10
26.834375
 20
34.225000
 30
0.0
 10
26.834375
 20
32.415625
 30
0.0
  0
LWPOLYLINE
  5
126
100
AcDbEntity
  8
0
 62
7
100
AcDbPolyline
 90
5
 70
0
 10
34.900000
 20
35.812500
 30
0.0
 10
36.709375
 20
35.812500
 30
0.0
 10
36.709375
 20
37.621875
 30
0.0
 10
34.900000
 20
37.621875
 30
0.0
 10
34.900000
 20
35.812500
 30
0.0
  0
LWPOLYLINE
  5
127
100
AcDbEntity
  8
0
 62
7
100
AcDbPolyline
 90
5
 70
0
 10
34.900000
 20
32.415625
 30
0.0
 10
36.709375
 20
32.415625
 30
0.0
 10
36.709375
 20
34.225000
 30
0.0
 10
34.900000
 20
34.225000
 30
0.0
 10
34.900000
 20
32.415625
 30
0.0
  0
LWPOLYLINE
  5
128
100
AcDbEntity
  8
0
 62
7
100
AcDbPolyline
 90
5
 70
0
 10
31.050000
 20
36.028125
 30
0.0
 10
33.640625
 20
36.028125
 30
0.0
 10
33.640625
 20
37.468750
 30
0.0
 10
31.050000
 20
37.468750
 30
0.0
 10
31.050000
 20
36.028125
 30
0.0
  0
LWPOLYLINE
  5
129
100
AcDbEntity
  8
0
 62
7
100
AcDbPolyline
 90
5
 70
0
 10
31.050000
 20
32.571875
 30
0.0
 10
33.640625
 20
32.571875
 30
0.0
 10
33.640625
 20
34.012500
 30
0.0
 10
31.050000
 20
34.012500
 30
0.0
 10
31.050000
 20
32.571875
 30
0.0
  0
LWPOLYLINE
  5
12a
100
AcDbEntity
  8
0
 62
7
100
AcDbPolyline
 90
5
 70
0
 10
39.115625
 20
32.571875
 30
0.0
 10
41.706250
 20
32.571875
 30
0.0
 10
41.706250
 20
34.012500
 30
0.0
 10
39.115625
 20
34.012500
 30
0.0
 10
39.115625
 20
32.571875
 30
0.0
  0
LWPOLYLINE
  5
12b
100
AcDbEntity
  8
0
 62
7
100
AcDbPolyline
 90
5
 70
0
 10
39.115625
 20
36.028125
 30
0.0
 10
41.706250
 20
36.028125
 30
0.0
 10
41.706250
 20
37.468750
 30
0.0
 10
39.115625
 20
37.468750
 30
0.0
 10
39.115625
 20
36.028125
 30
0.0
  0
LWPOLYLINE
  5
12c
100
AcDbEntity
  8
0
 62
7
100
AcDbPolyline
 90
5
 70
0
 10
2.203125
 20
25.453125
 30
0.0
 10
6.506250
 20
25.453125
 30
0.0
 10
6.506250
 20
28.115625
 30
0.0
 10
2.203125
 20
28.115625
 30
0.0
 10
2.203125
 20
25.453125
 30
0.0
  0
LWPOLYLINE
  5
12d
100
AcDbEntity
  8
0
 62
7
100
AcDbPolyline
 90
5
 70
0
 10
2.203125
 20
21.650000
 30
0.0
 10
6.506250
 20
21.650000
 30
0.0
 10
6.506250
 20
24.312500
 30
0.0
 10
2.203125
 20
24.312500
 30
0.0
 10
2.203125
 20
21.650000
 30
0.0
  0
LWPOLYLINE
  5
12e
100
AcDbEntity
  8
0
 62
7
100
AcDbPolyline
 90
5
 70
0
 10
2.203125
 20
15.581250
 30
0.0
 10
6.506250
 20
15.581250
 30
0.0
 10
6.506250
 20
20.965625
 30
0.0
 10
2.203125
 20
20.965625
 30
0.0
 10
2.203125
 20
15.581250
 30
0.0
  0
LWPOLYLINE
  5
12f
100
AcDbEntity
  8
0
 62
7
100
AcDbPolyline
 90
5
 70
0
 10
2.203125
 20
28.796875
 30
0.0
 10
6.506250
 20
28.796875
 30
0.0
 10
6.506250
 20
34.181250
 30
0.0
 10
2.203125
 20
34.181250
 30
0.0
 10
2.203125
 20
28.796875
 30
0.0
  0
LWPOLYLINE
  5
130
100
AcDbEntity
  8
0
 62
7
100
AcDbPolyline
 90
5
 70
0
 10
7.184375
 20
17.631250
 30
0.0
 10
11.946875
 20
17.631250
 30
0.0
 10
11.946875
 20
20.971875
 30
0.0
 10
7.184375
 20
20.971875
 30
0.0
 10
7.184375
 20
17.631250
 30
0.0
  0
LWPOLYLINE
  5
131
100
AcDbEntity
  8
0
 62
7
100
AcDbPolyline
 90
5
 70
0
 10
7.184375
 20
28.793750
 30
0.0
 10
11.946875
 20
28.793750
 30
0.0
 10
11.946875
 20
32.134375
 30
0.0
 10
7.184375
 20
32.134375
 30
0.0
 10
7.184375
 20
28.793750
 30
0.0
  0
LWPOLYLINE
  5
132
100
AcDbEntity
  8
0
 62
7
100
AcDbPolyline
 90
5
 70
0
 10
8.818750
 20
27.321875
 30
0.0
 10
11.946875
 20
27.321875
 30
0.0
 10
11.946875
 20
28.340625
 30
0.0
 10
8.818750
 20
28.340625
 30
0.0
 10
8.818750
 20
27.321875
 30
0.0
  0
LWPOLYLINE
  5
133
100
AcDbEntity
  8
0
 62
7
100
AcDbPolyline
 90
5
 70
0
 10
8.818750
 20
25.846875
 30
0.0
 10
11.946875
 20
25.846875
 30
0.0
 10
11.946875
 20
26.865625
 30
0.0
 10
8.818750
 20
26.865625
 30
0.0
 10
8.818750
 20
25.846875
 30
0.0
  0
LWPOLYLINE
  5
134
100
AcDbEntity
  8
0
 62
7
100
AcDbPolyline
 90
5
 70
0
 10
8.818750
 20
24.371875
 30
0.0
 10
11.946875
 20
24.371875
 30
0.0
 10
11.946875
 20
25.390625
 30
0.0
 10
8.818750
 20
25.390625
 30
0.0
 10
8.818750
 20
24.371875
 30
0.0
  0
LWPOLYLINE
  5
135
100
AcDbEntity
  8
0
 62
7
100
AcDbPolyline
 90
5
 70
0
 10
8.818750
 20
22.896875
 30
0.0
 10
11.946875
 20
22.896875
 30
0.0
 10
11.946875
 20
23.915625
 30
0.0
 10
8.818750
 20
23.915625
 30
0.0
 10
8.818750
 20
22.896875
 30
0.0
  0
LWPOLYLINE
  5
136
100
AcDbEntity
  8
0
 62
7
100
AcDbPolyline
 90
5
 70
0
 10
8.818750
 20
21.421875
 30
0.0
 10
11.946875
 20
21.421875
 30
0.0
 10
11.946875
 20
22.440625
 30
0.0
 10
8.818750
 20
22.440625
 30
0.0
 10
8.818750
 20
21.421875
 30
0.0
  0
LWPOLYLINE
  5
137
100
AcDbEntity
  8
0
 62
7
100
AcDbPolyline
 90
5
 70
0
 10
13.484375
 20
18.053125
 30
0.0
 10
17.909375
 20
18.053125
 30
0.0
 10
17.909375
 20
21.456250
 30
0.0
 10
13.484375
 20
21.456250
 30
0.0
 10
13.484375
 20
18.053125
 30
0.0
  0
LWPOLYLINE
  5
138
100
AcDbEntity
  8
0
 62
7
100
AcDbPolyline
 90
5
 70
0
 10
19.715625
 20
18.053125
 30
0.0
 10
24.140625
 20
18.053125
 30
0.0
 10
24.140625
 20
21.456250
 30
0.0
 10
19.715625
 20
21.456250
 30
0.0
 10
19.715625
 20
18.053125
 30
0.0
  0
ENDSEC
  0
SECTION
  2
OBJECTS
  0
DICTIONARY
  5
C
330
0
100
AcDbDictionary
  3
ACAD_GROUP
350
D
  3
ACAD_MLINESTYLE
350
17
  0
DICTIONARY
  5
D
330
C
100
AcDbDictionary
  0
DICTIONARY
  5
1A
330
C
100
AcDbDictionary
  0
DICTIONARY
  5
17
330
C
100
AcDbDictionary
  3
STANDARD
350
18
  0
DICTIONARY
  5
19
330
C
100
AcDbDictionary
  0
ENDSEC
  0
EOF
